  0
SECTION
  2
HEADER
  9
$ACADVER
  1
AC1014
  9
$HANDSEED
  5
FFFF
  9
$MEASUREMENT
 70
     1
  0
ENDSEC
  0
SECTION
  2
TABLES
  0
TABLE
  2
VPORT
  5
8
330
0
100
AcDbSymbolTable
 70
     4
  0
VPORT
  5
2E
330
8
100
AcDbSymbolTableRecord
100
AcDbViewportTableRecord
  2
*ACTIVE
 70
     0
 10
0.0
 20
0.0
 11
1.0
 21
1.0
 12
210.0
 22
148.5
 13
0.0
 23
0.0
 14
10.0
 24
10.0
 15
10.0
 25
10.0
 16
0.0
 26
0.0
 36
1.0
 17
0.0
 27
0.0
 37
0.0
 40
341.0
 41
1.24
 42
50.0
 43
0.0
 44
0.0
 50
0.0
 51
0.0
 71
     0
 72
   100
 73
     1
 74
     3
 75
     0
 76
     0
 77
     0
 78
     0
  0
ENDTAB
  0
TABLE
  2
LTYPE
  5
5
330
0
100
AcDbSymbolTable
 70
     1
  0
LTYPE
  5
14
330
5
100
AcDbSymbolTableRecord
100
AcDbLinetypeTableRecord
  2
BYBLOCK
 70
     0
  3

 72
    65
 73
     0
 40
0.0
  0
LTYPE
  5
15
330
5
100
AcDbSymbolTableRecord
100
AcDbLinetypeTableRecord
  2
BYLAYER
 70
     0
  3

 72
    65
 73
     0
 40
0.0
  0
LTYPE
  5
16
330
5
100
AcDbSymbolTableRecord
100
AcDbLinetypeTableRecord
  2
CONTINUOUS
 70
     0
  3
Solid line
 72
    65
 73
     0
 40
0.0
  0
ENDTAB
  0
TABLE
  2
LAYER
  5
2
100
AcDbSymbolTable
 70
2
  0
LAYER
  5
50
100
AcDbSymbolTableRecord
100
AcDbLayerTableRecord
  2
0
 70
0
  6
CONTINUOUS
  0
LAYER
  5
51
100
AcDbSymbolTableRecord
100
AcDbLayerTableRecord
  2
Layer_1
 70
0
  6
CONTINUOUS
  0
ENDTAB
  0
TABLE
  2
STYLE
  5
3
330
0
100
AcDbSymbolTable
 70
     1
  0
STYLE
  5
11
330
3
100
AcDbSymbolTableRecord
100
AcDbTextStyleTableRecord
  2
STANDARD
 70
     0
 40
0.0
 41
1.0
 50
0.0
 71
     0
 42
2.5
  3
txt
  4

  0
ENDTAB
  0
TABLE
  2
VIEW
  5
6
330
0
100
AcDbSymbolTable
 70
     0
  0
ENDTAB
  0
TABLE
  2
UCS
  5
7
330
0
100
AcDbSymbolTable
 70
     0
  0
ENDTAB
  0
TABLE
  2
APPID
  5
9
330
0
100
AcDbSymbolTable
 70
     2
  0
APPID
  5
12
330
9
100
AcDbSymbolTableRecord
100
AcDbRegAppTableRecord
  2
ACAD
 70
     0
  0
ENDTAB
  0
TABLE
  2
DIMSTYLE
  5
A
330
0
100
AcDbSymbolTable
 70
     1
  0
DIMSTYLE
105
27
330
A
100
AcDbSymbolTableRecord
100
AcDbDimStyleTableRecord
  2
ISO-25
 70
     0
  3

  4

  5

  6

  7

 40
1.0
 41
2.5
 42
0.625
 43
3.75
 44
1.25
 45
0.0
 46
0.0
 47
0.0
 48
0.0
140
2.5
141
2.5
142
0.0
143
0.03937007874016
144
1.0
145
0.0
146
1.0
147
0.625
 71
     0
 72
     0
 73
     0
 74
     0
 75
     0
 76
     0
 77
     1
 78
     8
170
     0
171
     3
172
     1
173
     0
174
     0
175
     0
176
     0
177
     0
178
     0
270
     2
271
     2
272
     2
273
     2
274
     3
340
11
275
     0
280
     0
281
     0
282
     0
283
     0
284
     8
285
     0
286
     0
287
     3
288
     0
  0
ENDTAB
  0
TABLE
  2
BLOCK_RECORD
  5
1
330
0
100
AcDbSymbolTable
 70
     1
  0
BLOCK_RECORD
  5
1F
330
1
100
AcDbSymbolTableRecord
100
AcDbBlockTableRecord
  2
*MODEL_SPACE
  0
BLOCK_RECORD
  5
1B
330
1
100
AcDbSymbolTableRecord
100
AcDbBlockTableRecord
  2
*PAPER_SPACE
  0
ENDTAB
  0
ENDSEC
  0
SECTION
  2
BLOCKS
  0
BLOCK
  5
20
330
1F
100
AcDbEntity
  8
0
100
AcDbBlockBegin
  2
*MODEL_SPACE
 70
     0
 10
0.0
 20
0.0
 30
0.0
  3
*MODEL_SPACE
  1

  0
ENDBLK
  5
21
330
1F
100
AcDbEntity
  8
0
100
AcDbBlockEnd
  0
BLOCK
  5
1C
330
1B
100
AcDbEntity
 67
     1
  8
0
100
AcDbBlockBegin
  2
*PAPER_SPACE
  1

  0
ENDBLK
  5
1D
330
1B
100
AcDbEntity
 67
     1
  8
0
100
AcDbBlockEnd
  0
ENDSEC
  0
SECTION
  2
ENTITIES
  0
LWPOLYLINE
  5
100
100
AcDbEntity
  8
Layer_1
 62
7
100
AcDbPolyline
 90
545
 70
0
 10
53.049936
 20
55.475018
 30
0.0
 10
51.449112
 20
55.462698
 30
0.0
 10
49.860216
 20
55.425898
 30
0.0
 10
48.283904
 20
55.364938
 30
0.0
 10
46.720832
 20
55.280226
 30
0.0
 10
45.171664
 20
55.172082
 30
0.0
 10
43.637056
 20
55.040842
 30
0.0
 10
42.117656
 20
54.886858
 30
0.0
 10
40.614128
 20
54.710474
 30
0.0
 10
39.127136
 20
54.512026
 30
0.0
 10
37.657320
 20
54.291866
 30
0.0
 10
36.205352
 20
54.050330
 30
0.0
 10
34.771888
 20
53.787770
 30
0.0
 10
33.357584
 20
53.504522
 30
0.0
 10
31.963088
 20
53.200938
 30
0.0
 10
30.589072
 20
52.877354
 30
0.0
 10
29.236176
 20
52.534114
 30
0.0
 10
27.905072
 20
52.171570
 30
0.0
 10
26.596416
 20
51.790058
 30
0.0
 10
25.310856
 20
51.389930
 30
0.0
 10
24.049064
 20
50.971514
 30
0.0
 10
22.811680
 20
50.535170
 30
0.0
 10
21.599368
 20
50.081242
 30
0.0
 10
20.412792
 20
49.610058
 30
0.0
 10
19.252608
 20
49.121970
 30
0.0
 10
18.119464
 20
48.617330
 30
0.0
 10
17.014016
 20
48.096466
 30
0.0
 10
15.936936
 20
47.559738
 30
0.0
 10
14.888872
 20
47.007474
 30
0.0
 10
13.870488
 20
46.440034
 30
0.0
 10
12.882424
 20
45.857746
 30
0.0
 10
11.925360
 20
45.260970
 30
0.0
 10
10.999936
 20
44.650034
 30
0.0
 10
11.708528
 20
44.650034
 30
0.0
 10
12.417120
 20
44.650034
 30
0.0
 10
13.125720
 20
44.650034
 30
0.0
 10
13.834312
 20
44.650034
 30
0.0
 10
14.542904
 20
44.650034
 30
0.0
 10
15.251496
 20
44.650034
 30
0.0
 10
15.960096
 20
44.650034
 30
0.0
 10
16.668688
 20
44.650034
 30
0.0
 10
17.377280
 20
44.650034
 30
0.0
 10
18.085872
 20
44.650034
 30
0.0
 10
18.794464
 20
44.650034
 30
0.0
 10
19.503064
 20
44.650034
 30
0.0
 10
20.211656
 20
44.650034
 30
0.0
 10
20.920248
 20
44.650034
 30
0.0
 10
21.628840
 20
44.650034
 30
0.0
 10
22.337432
 20
44.650034
 30
0.0
 10
23.046032
 20
44.650034
 30
0.0
 10
23.754624
 20
44.650034
 30
0.0
 10
24.463216
 20
44.650034
 30
0.0
 10
25.171808
 20
44.650034
 30
0.0
 10
25.880408
 20
44.650034
 30
0.0
 10
26.589000
 20
44.650034
 30
0.0
 10
27.297592
 20
44.650034
 30
0.0
 10
28.006184
 20
44.650034
 30
0.0
 10
28.714776
 20
44.650034
 30
0.0
 10
29.423376
 20
44.650034
 30
0.0
 10
30.131968
 20
44.650034
 30
0.0
 10
30.840560
 20
44.650034
 30
0.0
 10
31.549152
 20
44.650034
 30
0.0
 10
32.257752
 20
44.650034
 30
0.0
 10
32.966344
 20
44.650034
 30
0.0
 10
33.674936
 20
44.650034
 30
0.0
 10
33.674936
 20
44.450818
 30
0.0
 10
33.674936
 20
44.251594
 30
0.0
 10
33.674936
 20
44.052378
 30
0.0
 10
33.674936
 20
43.853162
 30
0.0
 10
33.674936
 20
43.653938
 30
0.0
 10
33.674936
 20
43.454722
 30
0.0
 10
33.674936
 20
43.255506
 30
0.0
 10
33.674936
 20
43.056282
 30
0.0
 10
33.674936
 20
42.857066
 30
0.0
 10
33.674936
 20
42.657850
 30
0.0
 10
33.674936
 20
42.458626
 30
0.0
 10
33.674936
 20
42.259410
 30
0.0
 10
33.674936
 20
42.060194
 30
0.0
 10
33.674936
 20
41.860970
 30
0.0
 10
33.674936
 20
41.661754
 30
0.0
 10
33.674936
 20
41.462538
 30
0.0
 10
33.674936
 20
41.263314
 30
0.0
 10
33.674936
 20
41.064098
 30
0.0
 10
33.674936
 20
40.864874
 30
0.0
 10
33.674936
 20
40.665658
 30
0.0
 10
33.674936
 20
40.466442
 30
0.0
 10
33.674936
 20
40.267218
 30
0.0
 10
33.674936
 20
40.068002
 30
0.0
 10
33.674936
 20
39.868786
 30
0.0
 10
33.674936
 20
39.669562
 30
0.0
 10
33.674936
 20
39.470346
 30
0.0
 10
33.674936
 20
39.271130
 30
0.0
 10
33.674936
 20
39.071906
 30
0.0
 10
33.674936
 20
38.872690
 30
0.0
 10
33.674936
 20
38.673474
 30
0.0
 10
33.674936
 20
38.474250
 30
0.0
 10
33.674936
 20
38.275034
 30
0.0
 10
33.228064
 20
38.275034
 30
0.0
 10
32.781184
 20
38.275034
 30
0.0
 10
32.334312
 20
38.275034
 30
0.0
 10
31.887432
 20
38.275034
 30
0.0
 10
31.440560
 20
38.275034
 30
0.0
 10
30.993688
 20
38.275034
 30
0.0
 10
30.546808
 20
38.275034
 30
0.0
 10
30.099936
 20
38.275034
 30
0.0
 10
29.653064
 20
38.275034
 30
0.0
 10
29.206184
 20
38.275034
 30
0.0
 10
28.759312
 20
38.275034
 30
0.0
 10
28.312432
 20
38.275034
 30
0.0
 10
27.865560
 20
38.275034
 30
0.0
 10
27.418688
 20
38.275034
 30
0.0
 10
26.971808
 20
38.275034
 30
0.0
 10
26.524936
 20
38.275034
 30
0.0
 10
26.078064
 20
38.275034
 30
0.0
 10
25.631184
 20
38.275034
 30
0.0
 10
25.184312
 20
38.275034
 30
0.0
 10
24.737432
 20
38.275034
 30
0.0
 10
24.290560
 20
38.275034
 30
0.0
 10
23.843688
 20
38.275034
 30
0.0
 10
23.396808
 20
38.275034
 30
0.0
 10
22.949936
 20
38.275034
 30
0.0
 10
22.503064
 20
38.275034
 30
0.0
 10
22.056184
 20
38.275034
 30
0.0
 10
21.609312
 20
38.275034
 30
0.0
 10
21.162432
 20
38.275034
 30
0.0
 10
20.715560
 20
38.275034
 30
0.0
 10
20.268688
 20
38.275034
 30
0.0
 10
19.821808
 20
38.275034
 30
0.0
 10
19.374936
 20
38.275034
 30
0.0
 10
19.374936
 20
38.085194
 30
0.0
 10
19.374936
 20
37.895346
 30
0.0
 10
19.374936
 20
37.705506
 30
0.0
 10
19.374936
 20
37.515658
 30
0.0
 10
19.374936
 20
37.325818
 30
0.0
 10
19.374936
 20
37.135970
 30
0.0
 10
19.374936
 20
36.946130
 30
0.0
 10
19.374936
 20
36.756282
 30
0.0
 10
19.374936
 20
36.566442
 30
0.0
 10
19.374936
 20
36.376594
 30
0.0
 10
19.374936
 20
36.186754
 30
0.0
 10
19.374936
 20
35.996906
 30
0.0
 10
19.374936
 20
35.807066
 30
0.0
 10
19.374936
 20
35.617218
 30
0.0
 10
19.374936
 20
35.427378
 30
0.0
 10
19.374936
 20
35.237538
 30
0.0
 10
19.374936
 20
35.047690
 30
0.0
 10
19.374936
 20
34.857850
 30
0.0
 10
19.374936
 20
34.668002
 30
0.0
 10
19.374936
 20
34.478162
 30
0.0
 10
19.374936
 20
34.288314
 30
0.0
 10
19.374936
 20
34.098474
 30
0.0
 10
19.374936
 20
33.908626
 30
0.0
 10
19.374936
 20
33.718786
 30
0.0
 10
19.374936
 20
33.528938
 30
0.0
 10
19.374936
 20
33.339098
 30
0.0
 10
19.374936
 20
33.149250
 30
0.0
 10
19.374936
 20
32.959410
 30
0.0
 10
19.374936
 20
32.769562
 30
0.0
 10
19.374936
 20
32.579722
 30
0.0
 10
19.374936
 20
32.389874
 30
0.0
 10
19.374936
 20
32.200034
 30
0.0
 10
19.795248
 20
32.200034
 30
0.0
 10
20.215560
 20
32.200034
 30
0.0
 10
20.635872
 20
32.200034
 30
0.0
 10
21.056184
 20
32.200034
 30
0.0
 10
21.476496
 20
32.200034
 30
0.0
 10
21.896808
 20
32.200034
 30
0.0
 10
22.317120
 20
32.200034
 30
0.0
 10
22.737432
 20
32.200034
 30
0.0
 10
23.157752
 20
32.200034
 30
0.0
 10
23.578064
 20
32.200034
 30
0.0
 10
23.998376
 20
32.200034
 30
0.0
 10
24.418688
 20
32.200034
 30
0.0
 10
24.839000
 20
32.200034
 30
0.0
 10
25.259312
 20
32.200034
 30
0.0
 10
25.679624
 20
32.200034
 30
0.0
 10
26.099936
 20
32.200034
 30
0.0
 10
26.520248
 20
32.200034
 30
0.0
 10
26.940560
 20
32.200034
 30
0.0
 10
27.360872
 20
32.200034
 30
0.0
 10
27.781184
 20
32.200034
 30
0.0
 10
28.201496
 20
32.200034
 30
0.0
 10
28.621808
 20
32.200034
 30
0.0
 10
29.042120
 20
32.200034
 30
0.0
 10
29.462432
 20
32.200034
 30
0.0
 10
29.882752
 20
32.200034
 30
0.0
 10
30.303064
 20
32.200034
 30
0.0
 10
30.723376
 20
32.200034
 30
0.0
 10
31.143688
 20
32.200034
 30
0.0
 10
31.564000
 20
32.200034
 30
0.0
 10
31.984312
 20
32.200034
 30
0.0
 10
32.404624
 20
32.200034
 30
0.0
 10
32.824936
 20
32.200034
 30
0.0
 10
32.824936
 20
32.001594
 30
0.0
 10
32.824936
 20
31.803162
 30
0.0
 10
32.824936
 20
31.604722
 30
0.0
 10
32.824936
 20
31.406282
 30
0.0
 10
32.824936
 20
31.207850
 30
0.0
 10
32.824936
 20
31.009410
 30
0.0
 10
32.824936
 20
30.810970
 30
0.0
 10
32.824936
 20
30.612538
 30
0.0
 10
32.824936
 20
30.414098
 30
0.0
 10
32.824936
 20
30.215658
 30
0.0
 10
32.824936
 20
30.017218
 30
0.0
 10
32.824936
 20
29.818786
 30
0.0
 10
32.824936
 20
29.620346
 30
0.0
 10
32.824936
 20
29.421906
 30
0.0
 10
32.824936
 20
29.223474
 30
0.0
 10
32.824936
 20
29.025034
 30
0.0
 10
32.824936
 20
28.826594
 30
0.0
 10
32.824936
 20
28.628162
 30
0.0
 10
32.824936
 20
28.429722
 30
0.0
 10
32.824936
 20
28.231282
 30
0.0
 10
32.824936
 20
28.032850
 30
0.0
 10
32.824936
 20
27.834410
 30
0.0
 10
32.824936
 20
27.635970
 30
0.0
 10
32.824936
 20
27.437538
 30
0.0
 10
32.824936
 20
27.239098
 30
0.0
 10
32.824936
 20
27.040658
 30
0.0
 10
32.824936
 20
26.842218
 30
0.0
 10
32.824936
 20
26.643786
 30
0.0
 10
32.824936
 20
26.445346
 30
0.0
 10
32.824936
 20
26.246906
 30
0.0
 10
32.824936
 20
26.048474
 30
0.0
 10
32.824936
 20
25.850034
 30
0.0
 10
32.404624
 20
25.850034
 30
0.0
 10
31.984312
 20
25.850034
 30
0.0
 10
31.564000
 20
25.850034
 30
0.0
 10
31.143688
 20
25.850034
 30
0.0
 10
30.723376
 20
25.850034
 30
0.0
 10
30.303064
 20
25.850034
 30
0.0
 10
29.882752
 20
25.850034
 30
0.0
 10
29.462432
 20
25.850034
 30
0.0
 10
29.042120
 20
25.850034
 30
0.0
 10
28.621808
 20
25.850034
 30
0.0
 10
28.201496
 20
25.850034
 30
0.0
 10
27.781184
 20
25.850034
 30
0.0
 10
27.360872
 20
25.850034
 30
0.0
 10
26.940560
 20
25.850034
 30
0.0
 10
26.520248
 20
25.850034
 30
0.0
 10
26.099936
 20
25.850034
 30
0.0
 10
25.679624
 20
25.850034
 30
0.0
 10
25.259312
 20
25.850034
 30
0.0
 10
24.839000
 20
25.850034
 30
0.0
 10
24.418688
 20
25.850034
 30
0.0
 10
23.998376
 20
25.850034
 30
0.0
 10
23.578064
 20
25.850034
 30
0.0
 10
23.157752
 20
25.850034
 30
0.0
 10
22.737432
 20
25.850034
 30
0.0
 10
22.317120
 20
25.850034
 30
0.0
 10
21.896808
 20
25.850034
 30
0.0
 10
21.476496
 20
25.850034
 30
0.0
 10
21.056184
 20
25.850034
 30
0.0
 10
20.635872
 20
25.850034
 30
0.0
 10
20.215560
 20
25.850034
 30
0.0
 10
19.795248
 20
25.850034
 30
0.0
 10
19.374936
 20
25.850034
 30
0.0
 10
19.374936
 20
25.615658
 30
0.0
 10
19.374936
 20
25.381282
 30
0.0
 10
19.374936
 20
25.146906
 30
0.0
 10
19.374936
 20
24.912538
 30
0.0
 10
19.374936
 20
24.678162
 30
0.0
 10
19.374936
 20
24.443786
 30
0.0
 10
19.374936
 20
24.209410
 30
0.0
 10
19.374936
 20
23.975034
 30
0.0
 10
19.374936
 20
23.740658
 30
0.0
 10
19.374936
 20
23.506282
 30
0.0
 10
19.374936
 20
23.271906
 30
0.0
 10
19.374936
 20
23.037538
 30
0.0
 10
19.374936
 20
22.803162
 30
0.0
 10
19.374936
 20
22.568786
 30
0.0
 10
19.374936
 20
22.334410
 30
0.0
 10
19.374936
 20
22.100034
 30
0.0
 10
19.374936
 20
21.865658
 30
0.0
 10
19.374936
 20
21.631282
 30
0.0
 10
19.374936
 20
21.396906
 30
0.0
 10
19.374936
 20
21.162538
 30
0.0
 10
19.374936
 20
20.928162
 30
0.0
 10
19.374936
 20
20.693786
 30
0.0
 10
19.374936
 20
20.459410
 30
0.0
 10
19.374936
 20
20.225034
 30
0.0
 10
19.374936
 20
19.990658
 30
0.0
 10
19.374936
 20
19.756282
 30
0.0
 10
19.374936
 20
19.521906
 30
0.0
 10
19.374936
 20
19.287538
 30
0.0
 10
19.374936
 20
19.053162
 30
0.0
 10
19.374936
 20
18.818786
 30
0.0
 10
19.374936
 20
18.584410
 30
0.0
 10
19.374936
 20
18.350034
 30
0.0
 10
19.836656
 20
18.350034
 30
0.0
 10
20.298376
 20
18.350034
 30
0.0
 10
20.760096
 20
18.350034
 30
0.0
 10
21.221808
 20
18.350034
 30
0.0
 10
21.683528
 20
18.350034
 30
0.0
 10
22.145248
 20
18.350034
 30
0.0
 10
22.606968
 20
18.350034
 30
0.0
 10
23.068688
 20
18.350034
 30
0.0
 10
23.530408
 20
18.350034
 30
0.0
 10
23.992120
 20
18.350034
 30
0.0
 10
24.453840
 20
18.350034
 30
0.0
 10
24.915560
 20
18.350034
 30
0.0
 10
25.377280
 20
18.350034
 30
0.0
 10
25.839000
 20
18.350034
 30
0.0
 10
26.300720
 20
18.350034
 30
0.0
 10
26.762432
 20
18.350034
 30
0.0
 10
27.224152
 20
18.350034
 30
0.0
 10
27.685872
 20
18.350034
 30
0.0
 10
28.147592
 20
18.350034
 30
0.0
 10
28.609312
 20
18.350034
 30
0.0
 10
29.071032
 20
18.350034
 30
0.0
 10
29.532752
 20
18.350034
 30
0.0
 10
29.994464
 20
18.350034
 30
0.0
 10
30.456184
 20
18.350034
 30
0.0
 10
30.917904
 20
18.350034
 30
0.0
 10
31.379624
 20
18.350034
 30
0.0
 10
31.841344
 20
18.350034
 30
0.0
 10
32.303064
 20
18.350034
 30
0.0
 10
32.764776
 20
18.350034
 30
0.0
 10
33.226496
 20
18.350034
 30
0.0
 10
33.688216
 20
18.350034
 30
0.0
 10
34.149936
 20
18.350034
 30
0.0
 10
34.149936
 20
18.151594
 30
0.0
 10
34.149936
 20
17.953162
 30
0.0
 10
34.149936
 20
17.754722
 30
0.0
 10
34.149936
 20
17.556282
 30
0.0
 10
34.149936
 20
17.357850
 30
0.0
 10
34.149936
 20
17.159410
 30
0.0
 10
34.149936
 20
16.960970
 30
0.0
 10
34.149936
 20
16.762538
 30
0.0
 10
34.149936
 20
16.564098
 30
0.0
 10
34.149936
 20
16.365658
 30
0.0
 10
34.149936
 20
16.167218
 30
0.0
 10
34.149936
 20
15.968786
 30
0.0
 10
34.149936
 20
15.770346
 30
0.0
 10
34.149936
 20
15.571906
 30
0.0
 10
34.149936
 20
15.373474
 30
0.0
 10
34.149936
 20
15.175034
 30
0.0
 10
34.149936
 20
14.976594
 30
0.0
 10
34.149936
 20
14.778162
 30
0.0
 10
34.149936
 20
14.579722
 30
0.0
 10
34.149936
 20
14.381282
 30
0.0
 10
34.149936
 20
14.182850
 30
0.0
 10
34.149936
 20
13.984410
 30
0.0
 10
34.149936
 20
13.785970
 30
0.0
 10
34.149936
 20
13.587538
 30
0.0
 10
34.149936
 20
13.389098
 30
0.0
 10
34.149936
 20
13.190658
 30
0.0
 10
34.149936
 20
12.992218
 30
0.0
 10
34.149936
 20
12.793786
 30
0.0
 10
34.149936
 20
12.595346
 30
0.0
 10
34.149936
 20
12.396906
 30
0.0
 10
34.149936
 20
12.198474
 30
0.0
 10
34.149936
 20
12.000034
 30
0.0
 10
33.424936
 20
12.000034
 30
0.0
 10
32.699936
 20
12.000034
 30
0.0
 10
31.974936
 20
12.000034
 30
0.0
 10
31.249936
 20
12.000034
 30
0.0
 10
30.524936
 20
12.000034
 30
0.0
 10
29.799936
 20
12.000034
 30
0.0
 10
29.074936
 20
12.000034
 30
0.0
 10
28.349936
 20
12.000034
 30
0.0
 10
27.624936
 20
12.000034
 30
0.0
 10
26.899936
 20
12.000034
 30
0.0
 10
26.174936
 20
12.000034
 30
0.0
 10
25.449936
 20
12.000034
 30
0.0
 10
24.724936
 20
12.000034
 30
0.0
 10
23.999936
 20
12.000034
 30
0.0
 10
23.274936
 20
12.000034
 30
0.0
 10
22.549936
 20
12.000034
 30
0.0
 10
21.824936
 20
12.000034
 30
0.0
 10
21.099936
 20
12.000034
 30
0.0
 10
20.374936
 20
12.000034
 30
0.0
 10
19.649936
 20
12.000034
 30
0.0
 10
18.924936
 20
12.000034
 30
0.0
 10
18.199936
 20
12.000034
 30
0.0
 10
17.474936
 20
12.000034
 30
0.0
 10
16.749936
 20
12.000034
 30
0.0
 10
16.024936
 20
12.000034
 30
0.0
 10
15.299936
 20
12.000034
 30
0.0
 10
14.574936
 20
12.000034
 30
0.0
 10
13.849936
 20
12.000034
 30
0.0
 10
13.124936
 20
12.000034
 30
0.0
 10
12.399936
 20
12.000034
 30
0.0
 10
11.674936
 20
12.000034
 30
0.0
 10
10.949936
 20
12.000034
 30
0.0
 10
10.949936
 20
13.019562
 30
0.0
 10
10.949936
 20
14.039098
 30
0.0
 10
10.949936
 20
15.058626
 30
0.0
 10
10.949936
 20
16.078162
 30
0.0
 10
10.949936
 20
17.097690
 30
0.0
 10
10.949936
 20
18.117218
 30
0.0
 10
10.949936
 20
19.136754
 30
0.0
 10
10.949936
 20
20.156282
 30
0.0
 10
10.949936
 20
21.175818
 30
0.0
 10
10.949936
 20
22.195346
 30
0.0
 10
10.949936
 20
23.214874
 30
0.0
 10
10.949936
 20
24.234410
 30
0.0
 10
10.949936
 20
25.253938
 30
0.0
 10
10.949936
 20
26.273474
 30
0.0
 10
10.949936
 20
27.293002
 30
0.0
 10
10.949936
 20
28.312538
 30
0.0
 10
10.949936
 20
29.332066
 30
0.0
 10
10.949936
 20
30.351594
 30
0.0
 10
10.949936
 20
31.371130
 30
0.0
 10
10.949936
 20
32.390658
 30
0.0
 10
10.949936
 20
33.410194
 30
0.0
 10
10.949936
 20
34.429722
 30
0.0
 10
10.949936
 20
35.449250
 30
0.0
 10
10.949936
 20
36.468786
 30
0.0
 10
10.949936
 20
37.488314
 30
0.0
 10
10.949936
 20
38.507850
 30
0.0
 10
10.949936
 20
39.527378
 30
0.0
 10
10.949936
 20
40.546906
 30
0.0
 10
10.949936
 20
41.566442
 30
0.0
 10
10.949936
 20
42.585970
 30
0.0
 10
10.949936
 20
43.605506
 30
0.0
 10
10.949936
 20
44.625034
 30
0.0
 10
10.315072
 20
44.183418
 30
0.0
 10
9.696664
 20
43.735002
 30
0.0
 10
9.094960
 20
43.279922
 30
0.0
 10
8.510200
 20
42.818306
 30
0.0
 10
7.942624
 20
42.350266
 30
0.0
 10
7.392472
 20
41.875946
 30
0.0
 10
6.860000
 20
41.395458
 30
0.0
 10
6.345432
 20
40.908930
 30
0.0
 10
5.849024
 20
40.416498
 30
0.0
 10
5.371016
 20
39.918282
 30
0.0
 10
4.911648
 20
39.414410
 30
0.0
 10
4.471160
 20
38.905002
 30
0.0
 10
4.049800
 20
38.390194
 30
0.0
 10
3.647800
 20
37.870106
 30
0.0
 10
3.265416
 20
37.344866
 30
0.0
 10
2.902880
 20
36.814610
 30
0.0
 10
2.560440
 20
36.279442
 30
0.0
 10
2.238336
 20
35.739506
 30
0.0
 10
1.936808
 20
35.194922
 30
0.0
 10
1.656104
 20
34.645826
 30
0.0
 10
1.396464
 20
34.092330
 30
0.0
 10
1.158136
 20
33.534570
 30
0.0
 10
0.941344
 20
32.972666
 30
0.0
 10
0.746352
 20
32.406746
 30
0.0
 10
0.573392
 20
31.836938
 30
0.0
 10
0.422704
 20
31.263370
 30
0.0
 10
0.294536
 20
30.686162
 30
0.0
 10
0.189128
 20
30.105450
 30
0.0
 10
0.106720
 20
29.521354
 30
0.0
 10
0.047600
 20
28.934002
 30
0.0
 10
0.011920
 20
28.343522
 30
0.0
 10
-0.000000
 20
27.750034
 30
0.0
 10
0.069040
 20
26.322626
 30
0.0
 10
0.273872
 20
24.913890
 30
0.0
 10
0.611192
 20
23.525578
 30
0.0
 10
1.077656
 20
22.159418
 30
0.0
 10
1.669944
 20
20.817178
 30
0.0
 10
2.384720
 20
19.500594
 30
0.0
 10
3.218656
 20
18.211418
 30
0.0
 10
4.168416
 20
16.951386
 30
0.0
 10
5.230680
 20
15.722266
 30
0.0
 10
6.402104
 20
14.525794
 30
0.0
 10
7.679360
 20
13.363714
 30
0.0
 10
9.059128
 20
12.237778
 30
0.0
 10
10.538056
 20
11.149730
 30
0.0
 10
12.112832
 20
10.101322
 30
0.0
 10
13.780120
 20
9.094298
 30
0.0
 10
15.536576
 20
8.130410
 30
0.0
 10
17.378888
 20
7.211394
 30
0.0
 10
19.303712
 20
6.339010
 30
0.0
 10
21.307728
 20
5.515002
 30
0.0
 10
23.387592
 20
4.741114
 30
0.0
 10
25.539976
 20
4.019098
 30
0.0
 10
27.761552
 20
3.350698
 30
0.0
 10
30.048992
 20
2.737658
 30
0.0
 10
32.398960
 20
2.181738
 30
0.0
 10
34.808128
 20
1.684666
 30
0.0
 10
37.273160
 20
1.248210
 30
0.0
 10
39.790728
 20
0.874106
 30
0.0
 10
42.357504
 20
0.564098
 30
0.0
 10
44.970152
 20
0.319938
 30
0.0
 10
47.625344
 20
0.143378
 30
0.0
 10
50.319744
 20
0.036162
 30
0.0
 10
53.050024
 20
0.000002
 30
0.0
 10
55.780376
 20
0.036162
 30
0.0
 10
58.474984
 20
0.143378
 30
0.0
 10
61.130512
 20
0.319938
 30
0.0
 10
63.743616
 20
0.564098
 30
0.0
 10
66.310960
 20
0.874106
 30
0.0
 10
68.829192
 20
1.248210
 30
0.0
 10
71.294984
 20
1.684666
 30
0.0
 10
73.704992
 20
2.181738
 30
0.0
 10
76.055872
 20
2.737658
 30
0.0
 10
78.344296
 20
3.350698
 30
0.0
 10
80.566904
 20
4.019098
 30
0.0
 10
82.720368
 20
4.741114
 30
0.0
 10
84.801352
 20
5.515002
 30
0.0
 10
86.806504
 20
6.339010
 30
0.0
 10
88.732488
 20
7.211394
 30
0.0
 10
90.575968
 20
8.130410
 30
0.0
 10
92.333600
 20
9.094298
 30
0.0
 10
94.002048
 20
10.101322
 30
0.0
 10
95.577960
 20
11.149730
 30
0.0
 10
97.058016
 20
12.237778
 30
0.0
 10
98.438856
 20
13.363714
 30
0.0
 10
99.717144
 20
14.525794
 30
0.0
 10
100.889552
 20
15.722266
 30
0.0
 10
101.952720
 20
16.951386
 30
0.0
 10
102.903328
 20
18.211418
 30
0.0
 10
103.738024
 20
19.500594
 30
0.0
 10
104.453464
 20
20.817178
 30
0.0
 10
105.046320
 20
22.159418
 30
0.0
 10
105.513240
 20
23.525578
 30
0.0
 10
105.850896
 20
24.913890
 30
0.0
 10
106.055936
 20
26.322626
 30
0.0
 10
106.125056
 20
27.750034
 30
0.0
 10
106.055936
 20
29.177370
 30
0.0
 10
105.850896
 20
30.585890
 30
0.0
 10
105.513240
 20
31.973874
 30
0.0
 10
105.046320
 20
33.339570
 30
0.0
 10
104.453464
 20
34.681250
 30
0.0
 10
103.738024
 20
35.997170
 30
0.0
 10
102.903328
 20
37.285586
 30
0.0
 10
101.952720
 20
38.544770
 30
0.0
 10
100.889552
 20
39.772978
 30
0.0
 10
99.717144
 20
40.968482
 30
0.0
 10
98.438856
 20
42.129522
 30
0.0
 10
97.058016
 20
43.254386
 30
0.0
 10
95.577960
 20
44.341314
 30
0.0
 10
94.002048
 20
45.388578
 30
0.0
 10
92.333600
 20
46.394442
 30
0.0
 10
90.575968
 20
47.357162
 30
0.0
 10
88.732488
 20
48.275002
 30
0.0
 10
86.806504
 20
49.146226
 30
0.0
 10
84.801352
 20
49.969090
 30
0.0
 10
82.720368
 20
50.741866
 30
0.0
 10
80.566904
 20
51.462802
 30
0.0
 10
78.344296
 20
52.130170
 30
0.0
 10
76.055872
 20
52.742226
 30
0.0
 10
73.704992
 20
53.297242
 30
0.0
 10
71.294984
 20
53.793466
 30
0.0
 10
68.829192
 20
54.229162
 30
0.0
 10
66.310960
 20
54.602602
 30
0.0
 10
63.743616
 20
54.912042
 30
0.0
 10
61.130512
 20
55.155746
 30
0.0
 10
58.474984
 20
55.331970
 30
0.0
 10
55.780376
 20
55.438978
 30
0.0
 10
53.049936
 20
55.475018
 30
0.0
  0
LWPOLYLINE
  5
101
100
AcDbEntity
  8
Layer_1
 62
7
100
AcDbPolyline
 90
97
 70
0
 10
10.949936
 20
44.625018
 30
0.0
 10
10.951536
 20
44.625818
 30
0.0
 10
10.953136
 20
44.626618
 30
0.0
 10
10.954736
 20
44.627418
 30
0.0
 10
10.956336
 20
44.628218
 30
0.0
 10
10.957936
 20
44.629018
 30
0.0
 10
10.959536
 20
44.629818
 30
0.0
 10
10.961136
 20
44.630610
 30
0.0
 10
10.962736
 20
44.631370
 30
0.0
 10
10.964336
 20
44.632122
 30
0.0
 10
10.965936
 20
44.632850
 30
0.0
 10
10.967536
 20
44.633570
 30
0.0
 10
10.969136
 20
44.634282
 30
0.0
 10
10.970736
 20
44.634978
 30
0.0
 10
10.972336
 20
44.635674
 30
0.0
 10
10.973936
 20
44.636362
 30
0.0
 10
10.975536
 20
44.637050
 30
0.0
 10
10.977136
 20
44.637738
 30
0.0
 10
10.978736
 20
44.638426
 30
0.0
 10
10.980336
 20
44.639122
 30
0.0
 10
10.981936
 20
44.639818
 30
0.0
 10
10.983536
 20
44.640530
 30
0.0
 10
10.985136
 20
44.641250
 30
0.0
 10
10.986736
 20
44.641978
 30
0.0
 10
10.988336
 20
44.642730
 30
0.0
 10
10.989936
 20
44.643490
 30
0.0
 10
10.991536
 20
44.644282
 30
0.0
 10
10.993136
 20
44.645082
 30
0.0
 10
10.994736
 20
44.645882
 30
0.0
 10
10.996336
 20
44.646682
 30
0.0
 10
10.997936
 20
44.647482
 30
0.0
 10
10.999536
 20
44.648282
 30
0.0
 10
11.001136
 20
44.649082
 30
0.0
 10
10.999536
 20
44.649082
 30
0.0
 10
10.997936
 20
44.649082
 30
0.0
 10
10.996336
 20
44.649082
 30
0.0
 10
10.994736
 20
44.649082
 30
0.0
 10
10.993136
 20
44.649082
 30
0.0
 10
10.991536
 20
44.649082
 30
0.0
 10
10.989936
 20
44.649082
 30
0.0
 10
10.988336
 20
44.649082
 30
0.0
 10
10.986736
 20
44.649082
 30
0.0
 10
10.985136
 20
44.649082
 30
0.0
 10
10.983536
 20
44.649082
 30
0.0
 10
10.981936
 20
44.649082
 30
0.0
 10
10.980336
 20
44.649082
 30
0.0
 10
10.978736
 20
44.649082
 30
0.0
 10
10.977136
 20
44.649082
 30
0.0
 10
10.975536
 20
44.649082
 30
0.0
 10
10.973936
 20
44.649082
 30
0.0
 10
10.972336
 20
44.649082
 30
0.0
 10
10.970736
 20
44.649082
 30
0.0
 10
10.969136
 20
44.649082
 30
0.0
 10
10.967536
 20
44.649082
 30
0.0
 10
10.965936
 20
44.649082
 30
0.0
 10
10.964336
 20
44.649082
 30
0.0
 10
10.962736
 20
44.649082
 30
0.0
 10
10.961136
 20
44.649082
 30
0.0
 10
10.959536
 20
44.649082
 30
0.0
 10
10.957936
 20
44.649082
 30
0.0
 10
10.956336
 20
44.649082
 30
0.0
 10
10.954736
 20
44.649082
 30
0.0
 10
10.953136
 20
44.649082
 30
0.0
 10
10.951536
 20
44.649082
 30
0.0
 10
10.949936
 20
44.649082
 30
0.0
 10
10.949936
 20
44.648306
 30
0.0
 10
10.949936
 20
44.647522
 30
0.0
 10
10.949936
 20
44.646746
 30
0.0
 10
10.949936
 20
44.645962
 30
0.0
 10
10.949936
 20
44.645186
 30
0.0
 10
10.949936
 20
44.644402
 30
0.0
 10
10.949936
 20
44.643618
 30
0.0
 10
10.949936
 20
44.642842
 30
0.0
 10
10.949936
 20
44.642066
 30
0.0
 10
10.949936
 20
44.641282
 30
0.0
 10
10.949936
 20
44.640506
 30
0.0
 10
10.949936
 20
44.639722
 30
0.0
 10
10.949936
 20
44.638938
 30
0.0
 10
10.949936
 20
44.638162
 30
0.0
 10
10.949936
 20
44.637386
 30
0.0
 10
10.949936
 20
44.636602
 30
0.0
 10
10.949936
 20
44.635826
 30
0.0
 10
10.949936
 20
44.635042
 30
0.0
 10
10.949936
 20
44.634258
 30
0.0
 10
10.949936
 20
44.633482
 30
0.0
 10
10.949936
 20
44.632706
 30
0.0
 10
10.949936
 20
44.631922
 30
0.0
 10
10.949936
 20
44.631146
 30
0.0
 10
10.949936
 20
44.630362
 30
0.0
 10
10.949936
 20
44.629578
 30
0.0
 10
10.949936
 20
44.628802
 30
0.0
 10
10.949936
 20
44.628026
 30
0.0
 10
10.949936
 20
44.627242
 30
0.0
 10
10.949936
 20
44.626466
 30
0.0
 10
10.949936
 20
44.625682
 30
0.0
 10
10.949936
 20
44.624898
 30
0.0
 10
10.949936
 20
44.625018
 30
0.0
  0
LWPOLYLINE
  5
102
100
AcDbEntity
  8
Layer_1
 62
7
100
AcDbPolyline
 90
321
 70
0
 10
41.574936
 20
44.649978
 30
0.0
 10
42.285096
 20
44.649978
 30
0.0
 10
42.995248
 20
44.649978
 30
0.0
 10
43.705408
 20
44.649978
 30
0.0
 10
44.415560
 20
44.649978
 30
0.0
 10
45.125720
 20
44.649978
 30
0.0
 10
45.835872
 20
44.649978
 30
0.0
 10
46.546032
 20
44.649978
 30
0.0
 10
47.256184
 20
44.649978
 30
0.0
 10
47.966344
 20
44.649978
 30
0.0
 10
48.676496
 20
44.649978
 30
0.0
 10
49.386656
 20
44.649978
 30
0.0
 10
50.096808
 20
44.649978
 30
0.0
 10
50.806968
 20
44.649978
 30
0.0
 10
51.517120
 20
44.649978
 30
0.0
 10
52.227280
 20
44.649978
 30
0.0
 10
52.937432
 20
44.649978
 30
0.0
 10
53.647592
 20
44.649978
 30
0.0
 10
54.357752
 20
44.649978
 30
0.0
 10
55.067904
 20
44.649978
 30
0.0
 10
55.778064
 20
44.649978
 30
0.0
 10
56.488216
 20
44.649978
 30
0.0
 10
57.198376
 20
44.649978
 30
0.0
 10
57.908528
 20
44.649978
 30
0.0
 10
58.618688
 20
44.649978
 30
0.0
 10
59.328840
 20
44.649978
 30
0.0
 10
60.039000
 20
44.649978
 30
0.0
 10
60.749152
 20
44.649978
 30
0.0
 10
61.459312
 20
44.649978
 30
0.0
 10
62.169464
 20
44.649978
 30
0.0
 10
62.879624
 20
44.649978
 30
0.0
 10
63.589776
 20
44.649978
 30
0.0
 10
64.299936
 20
44.649978
 30
0.0
 10
64.299936
 20
44.450762
 30
0.0
 10
64.299936
 20
44.251538
 30
0.0
 10
64.299936
 20
44.052322
 30
0.0
 10
64.299936
 20
43.853106
 30
0.0
 10
64.299936
 20
43.653882
 30
0.0
 10
64.299936
 20
43.454666
 30
0.0
 10
64.299936
 20
43.255450
 30
0.0
 10
64.299936
 20
43.056226
 30
0.0
 10
64.299936
 20
42.857010
 30
0.0
 10
64.299936
 20
42.657794
 30
0.0
 10
64.299936
 20
42.458570
 30
0.0
 10
64.299936
 20
42.259354
 30
0.0
 10
64.299936
 20
42.060138
 30
0.0
 10
64.299936
 20
41.860914
 30
0.0
 10
64.299936
 20
41.661698
 30
0.0
 10
64.299936
 20
41.462482
 30
0.0
 10
64.299936
 20
41.263258
 30
0.0
 10
64.299936
 20
41.064042
 30
0.0
 10
64.299936
 20
40.864818
 30
0.0
 10
64.299936
 20
40.665602
 30
0.0
 10
64.299936
 20
40.466386
 30
0.0
 10
64.299936
 20
40.267162
 30
0.0
 10
64.299936
 20
40.067946
 30
0.0
 10
64.299936
 20
39.868730
 30
0.0
 10
64.299936
 20
39.669506
 30
0.0
 10
64.299936
 20
39.470290
 30
0.0
 10
64.299936
 20
39.271074
 30
0.0
 10
64.299936
 20
39.071850
 30
0.0
 10
64.299936
 20
38.872634
 30
0.0
 10
64.299936
 20
38.673418
 30
0.0
 10
64.299936
 20
38.474194
 30
0.0
 10
64.299936
 20
38.274978
 30
0.0
 10
63.853064
 20
38.274978
 30
0.0
 10
63.406184
 20
38.274978
 30
0.0
 10
62.959312
 20
38.274978
 30
0.0
 10
62.512432
 20
38.274978
 30
0.0
 10
62.065560
 20
38.274978
 30
0.0
 10
61.618688
 20
38.274978
 30
0.0
 10
61.171808
 20
38.274978
 30
0.0
 10
60.724936
 20
38.274978
 30
0.0
 10
60.278064
 20
38.274978
 30
0.0
 10
59.831184
 20
38.274978
 30
0.0
 10
59.384312
 20
38.274978
 30
0.0
 10
58.937432
 20
38.274978
 30
0.0
 10
58.490560
 20
38.274978
 30
0.0
 10
58.043688
 20
38.274978
 30
0.0
 10
57.596808
 20
38.274978
 30
0.0
 10
57.149936
 20
38.274978
 30
0.0
 10
56.703064
 20
38.274978
 30
0.0
 10
56.256184
 20
38.274978
 30
0.0
 10
55.809312
 20
38.274978
 30
0.0
 10
55.362432
 20
38.274978
 30
0.0
 10
54.915560
 20
38.274978
 30
0.0
 10
54.468688
 20
38.274978
 30
0.0
 10
54.021808
 20
38.274978
 30
0.0
 10
53.574936
 20
38.274978
 30
0.0
 10
53.128064
 20
38.274978
 30
0.0
 10
52.681184
 20
38.274978
 30
0.0
 10
52.234312
 20
38.274978
 30
0.0
 10
51.787432
 20
38.274978
 30
0.0
 10
51.340560
 20
38.274978
 30
0.0
 10
50.893688
 20
38.274978
 30
0.0
 10
50.446808
 20
38.274978
 30
0.0
 10
49.999936
 20
38.274978
 30
0.0
 10
49.999936
 20
38.085138
 30
0.0
 10
49.999936
 20
37.895290
 30
0.0
 10
49.999936
 20
37.705450
 30
0.0
 10
49.999936
 20
37.515602
 30
0.0
 10
49.999936
 20
37.325762
 30
0.0
 10
49.999936
 20
37.135914
 30
0.0
 10
49.999936
 20
36.946074
 30
0.0
 10
49.999936
 20
36.756226
 30
0.0
 10
49.999936
 20
36.566386
 30
0.0
 10
49.999936
 20
36.376538
 30
0.0
 10
49.999936
 20
36.186698
 30
0.0
 10
49.999936
 20
35.996850
 30
0.0
 10
49.999936
 20
35.807010
 30
0.0
 10
49.999936
 20
35.617162
 30
0.0
 10
49.999936
 20
35.427322
 30
0.0
 10
49.999936
 20
35.237482
 30
0.0
 10
49.999936
 20
35.047634
 30
0.0
 10
49.999936
 20
34.857794
 30
0.0
 10
49.999936
 20
34.667946
 30
0.0
 10
49.999936
 20
34.478106
 30
0.0
 10
49.999936
 20
34.288258
 30
0.0
 10
49.999936
 20
34.098418
 30
0.0
 10
49.999936
 20
33.908570
 30
0.0
 10
49.999936
 20
33.718730
 30
0.0
 10
49.999936
 20
33.528882
 30
0.0
 10
49.999936
 20
33.339042
 30
0.0
 10
49.999936
 20
33.149194
 30
0.0
 10
49.999936
 20
32.959354
 30
0.0
 10
49.999936
 20
32.769506
 30
0.0
 10
49.999936
 20
32.579666
 30
0.0
 10
49.999936
 20
32.389818
 30
0.0
 10
49.999936
 20
32.199978
 30
0.0
 10
50.420248
 20
32.199978
 30
0.0
 10
50.840560
 20
32.199978
 30
0.0
 10
51.260872
 20
32.199978
 30
0.0
 10
51.681184
 20
32.199978
 30
0.0
 10
52.101496
 20
32.199978
 30
0.0
 10
52.521808
 20
32.199978
 30
0.0
 10
52.942120
 20
32.199978
 30
0.0
 10
53.362432
 20
32.199978
 30
0.0
 10
53.782752
 20
32.199978
 30
0.0
 10
54.203064
 20
32.199978
 30
0.0
 10
54.623376
 20
32.199978
 30
0.0
 10
55.043688
 20
32.199978
 30
0.0
 10
55.464000
 20
32.199978
 30
0.0
 10
55.884312
 20
32.199978
 30
0.0
 10
56.304624
 20
32.199978
 30
0.0
 10
56.724936
 20
32.199978
 30
0.0
 10
57.145248
 20
32.199978
 30
0.0
 10
57.565560
 20
32.199978
 30
0.0
 10
57.985872
 20
32.199978
 30
0.0
 10
58.406184
 20
32.199978
 30
0.0
 10
58.826496
 20
32.199978
 30
0.0
 10
59.246808
 20
32.199978
 30
0.0
 10
59.667120
 20
32.199978
 30
0.0
 10
60.087432
 20
32.199978
 30
0.0
 10
60.507752
 20
32.199978
 30
0.0
 10
60.928064
 20
32.199978
 30
0.0
 10
61.348376
 20
32.199978
 30
0.0
 10
61.768688
 20
32.199978
 30
0.0
 10
62.189000
 20
32.199978
 30
0.0
 10
62.609312
 20
32.199978
 30
0.0
 10
63.029624
 20
32.199978
 30
0.0
 10
63.449936
 20
32.199978
 30
0.0
 10
63.449936
 20
32.001538
 30
0.0
 10
63.449936
 20
31.803106
 30
0.0
 10
63.449936
 20
31.604666
 30
0.0
 10
63.449936
 20
31.406226
 30
0.0
 10
63.449936
 20
31.207794
 30
0.0
 10
63.449936
 20
31.009354
 30
0.0
 10
63.449936
 20
30.810914
 30
0.0
 10
63.449936
 20
30.612482
 30
0.0
 10
63.449936
 20
30.414042
 30
0.0
 10
63.449936
 20
30.215602
 30
0.0
 10
63.449936
 20
30.017162
 30
0.0
 10
63.449936
 20
29.818730
 30
0.0
 10
63.449936
 20
29.620290
 30
0.0
 10
63.449936
 20
29.421850
 30
0.0
 10
63.449936
 20
29.223418
 30
0.0
 10
63.449936
 20
29.024978
 30
0.0
 10
63.449936
 20
28.826538
 30
0.0
 10
63.449936
 20
28.628106
 30
0.0
 10
63.449936
 20
28.429666
 30
0.0
 10
63.449936
 20
28.231226
 30
0.0
 10
63.449936
 20
28.032794
 30
0.0
 10
63.449936
 20
27.834354
 30
0.0
 10
63.449936
 20
27.635914
 30
0.0
 10
63.449936
 20
27.437482
 30
0.0
 10
63.449936
 20
27.239042
 30
0.0
 10
63.449936
 20
27.040602
 30
0.0
 10
63.449936
 20
26.842162
 30
0.0
 10
63.449936
 20
26.643730
 30
0.0
 10
63.449936
 20
26.445290
 30
0.0
 10
63.449936
 20
26.246850
 30
0.0
 10
63.449936
 20
26.048418
 30
0.0
 10
63.449936
 20
25.849978
 30
0.0
 10
63.029624
 20
25.849978
 30
0.0
 10
62.609312
 20
25.849978
 30
0.0
 10
62.189000
 20
25.849978
 30
0.0
 10
61.768688
 20
25.849978
 30
0.0
 10
61.348376
 20
25.849978
 30
0.0
 10
60.928064
 20
25.849978
 30
0.0
 10
60.507752
 20
25.849978
 30
0.0
 10
60.087432
 20
25.849978
 30
0.0
 10
59.667120
 20
25.849978
 30
0.0
 10
59.246808
 20
25.849978
 30
0.0
 10
58.826496
 20
25.849978
 30
0.0
 10
58.406184
 20
25.849978
 30
0.0
 10
57.985872
 20
25.849978
 30
0.0
 10
57.565560
 20
25.849978
 30
0.0
 10
57.145248
 20
25.849978
 30
0.0
 10
56.724936
 20
25.849978
 30
0.0
 10
56.304624
 20
25.849978
 30
0.0
 10
55.884312
 20
25.849978
 30
0.0
 10
55.464000
 20
25.849978
 30
0.0
 10
55.043688
 20
25.849978
 30
0.0
 10
54.623376
 20
25.849978
 30
0.0
 10
54.203064
 20
25.849978
 30
0.0
 10
53.782752
 20
25.849978
 30
0.0
 10
53.362432
 20
25.849978
 30
0.0
 10
52.942120
 20
25.849978
 30
0.0
 10
52.521808
 20
25.849978
 30
0.0
 10
52.101496
 20
25.849978
 30
0.0
 10
51.681184
 20
25.849978
 30
0.0
 10
51.260872
 20
25.849978
 30
0.0
 10
50.840560
 20
25.849978
 30
0.0
 10
50.420248
 20
25.849978
 30
0.0
 10
49.999936
 20
25.849978
 30
0.0
 10
49.999936
 20
25.417162
 30
0.0
 10
49.999936
 20
24.984354
 30
0.0
 10
49.999936
 20
24.551538
 30
0.0
 10
49.999936
 20
24.118730
 30
0.0
 10
49.999936
 20
23.685914
 30
0.0
 10
49.999936
 20
23.253106
 30
0.0
 10
49.999936
 20
22.820290
 30
0.0
 10
49.999936
 20
22.387482
 30
0.0
 10
49.999936
 20
21.954666
 30
0.0
 10
49.999936
 20
21.521850
 30
0.0
 10
49.999936
 20
21.089042
 30
0.0
 10
49.999936
 20
20.656226
 30
0.0
 10
49.999936
 20
20.223418
 30
0.0
 10
49.999936
 20
19.790602
 30
0.0
 10
49.999936
 20
19.357794
 30
0.0
 10
49.999936
 20
18.924978
 30
0.0
 10
49.999936
 20
18.492162
 30
0.0
 10
49.999936
 20
18.059354
 30
0.0
 10
49.999936
 20
17.626538
 30
0.0
 10
49.999936
 20
17.193730
 30
0.0
 10
49.999936
 20
16.760914
 30
0.0
 10
49.999936
 20
16.328106
 30
0.0
 10
49.999936
 20
15.895290
 30
0.0
 10
49.999936
 20
15.462482
 30
0.0
 10
49.999936
 20
15.029666
 30
0.0
 10
49.999936
 20
14.596850
 30
0.0
 10
49.999936
 20
14.164042
 30
0.0
 10
49.999936
 20
13.731226
 30
0.0
 10
49.999936
 20
13.298418
 30
0.0
 10
49.999936
 20
12.865602
 30
0.0
 10
49.999936
 20
12.432794
 30
0.0
 10
49.999936
 20
11.999978
 30
0.0
 10
49.736656
 20
11.999978
 30
0.0
 10
49.473376
 20
11.999978
 30
0.0
 10
49.210096
 20
11.999978
 30
0.0
 10
48.946808
 20
11.999978
 30
0.0
 10
48.683528
 20
11.999978
 30
0.0
 10
48.420248
 20
11.999978
 30
0.0
 10
48.156968
 20
11.999978
 30
0.0
 10
47.893688
 20
11.999978
 30
0.0
 10
47.630408
 20
11.999978
 30
0.0
 10
47.367120
 20
11.999978
 30
0.0
 10
47.103840
 20
11.999978
 30
0.0
 10
46.840560
 20
11.999978
 30
0.0
 10
46.577280
 20
11.999978
 30
0.0
 10
46.314000
 20
11.999978
 30
0.0
 10
46.050720
 20
11.999978
 30
0.0
 10
45.787432
 20
11.999978
 30
0.0
 10
45.524152
 20
11.999978
 30
0.0
 10
45.260872
 20
11.999978
 30
0.0
 10
44.997592
 20
11.999978
 30
0.0
 10
44.734312
 20
11.999978
 30
0.0
 10
44.471032
 20
11.999978
 30
0.0
 10
44.207752
 20
11.999978
 30
0.0
 10
43.944464
 20
11.999978
 30
0.0
 10
43.681184
 20
11.999978
 30
0.0
 10
43.417904
 20
11.999978
 30
0.0
 10
43.154624
 20
11.999978
 30
0.0
 10
42.891344
 20
11.999978
 30
0.0
 10
42.628064
 20
11.999978
 30
0.0
 10
42.364776
 20
11.999978
 30
0.0
 10
42.101496
 20
11.999978
 30
0.0
 10
41.838216
 20
11.999978
 30
0.0
 10
41.574936
 20
11.999978
 30
0.0
 10
41.574936
 20
13.020290
 30
0.0
 10
41.574936
 20
14.040602
 30
0.0
 10
41.574936
 20
15.060914
 30
0.0
 10
41.574936
 20
16.081226
 30
0.0
 10
41.574936
 20
17.101538
 30
0.0
 10
41.574936
 20
18.121850
 30
0.0
 10
41.574936
 20
19.142162
 30
0.0
 10
41.574936
 20
20.162482
 30
0.0
 10
41.574936
 20
21.182794
 30
0.0
 10
41.574936
 20
22.203106
 30
0.0
 10
41.574936
 20
23.223418
 30
0.0
 10
41.574936
 20
24.243730
 30
0.0
 10
41.574936
 20
25.264042
 30
0.0
 10
41.574936
 20
26.284354
 30
0.0
 10
41.574936
 20
27.304666
 30
0.0
 10
41.574936
 20
28.324978
 30
0.0
 10
41.574936
 20
29.345290
 30
0.0
 10
41.574936
 20
30.365602
 30
0.0
 10
41.574936
 20
31.385914
 30
0.0
 10
41.574936
 20
32.406226
 30
0.0
 10
41.574936
 20
33.426538
 30
0.0
 10
41.574936
 20
34.446850
 30
0.0
 10
41.574936
 20
35.467162
 30
0.0
 10
41.574936
 20
36.487482
 30
0.0
 10
41.574936
 20
37.507794
 30
0.0
 10
41.574936
 20
38.528106
 30
0.0
 10
41.574936
 20
39.548418
 30
0.0
 10
41.574936
 20
40.568730
 30
0.0
 10
41.574936
 20
41.589042
 30
0.0
 10
41.574936
 20
42.609354
 30
0.0
 10
41.574936
 20
43.629666
 30
0.0
 10
41.574936
 20
44.649978
 30
0.0
  0
LWPOLYLINE
  5
103
100
AcDbEntity
  8
Layer_1
 62
7
100
AcDbPolyline
 90
321
 70
0
 10
72.199936
 20
44.649978
 30
0.0
 10
72.910096
 20
44.649978
 30
0.0
 10
73.620248
 20
44.649978
 30
0.0
 10
74.330408
 20
44.649978
 30
0.0
 10
75.040560
 20
44.649978
 30
0.0
 10
75.750720
 20
44.649978
 30
0.0
 10
76.460872
 20
44.649978
 30
0.0
 10
77.171032
 20
44.649978
 30
0.0
 10
77.881184
 20
44.649978
 30
0.0
 10
78.591344
 20
44.649978
 30
0.0
 10
79.301496
 20
44.649978
 30
0.0
 10
80.011656
 20
44.649978
 30
0.0
 10
80.721808
 20
44.649978
 30
0.0
 10
81.431968
 20
44.649978
 30
0.0
 10
82.142120
 20
44.649978
 30
0.0
 10
82.852280
 20
44.649978
 30
0.0
 10
83.562432
 20
44.649978
 30
0.0
 10
84.272592
 20
44.649978
 30
0.0
 10
84.982752
 20
44.649978
 30
0.0
 10
85.692904
 20
44.649978
 30
0.0
 10
86.403064
 20
44.649978
 30
0.0
 10
87.113216
 20
44.649978
 30
0.0
 10
87.823376
 20
44.649978
 30
0.0
 10
88.533528
 20
44.649978
 30
0.0
 10
89.243688
 20
44.649978
 30
0.0
 10
89.953840
 20
44.649978
 30
0.0
 10
90.664000
 20
44.649978
 30
0.0
 10
91.374152
 20
44.649978
 30
0.0
 10
92.084312
 20
44.649978
 30
0.0
 10
92.794464
 20
44.649978
 30
0.0
 10
93.504624
 20
44.649978
 30
0.0
 10
94.214776
 20
44.649978
 30
0.0
 10
94.924936
 20
44.649978
 30
0.0
 10
94.924936
 20
44.450762
 30
0.0
 10
94.924936
 20
44.251538
 30
0.0
 10
94.924936
 20
44.052322
 30
0.0
 10
94.924936
 20
43.853106
 30
0.0
 10
94.924936
 20
43.653882
 30
0.0
 10
94.924936
 20
43.454666
 30
0.0
 10
94.924936
 20
43.255450
 30
0.0
 10
94.924936
 20
43.056226
 30
0.0
 10
94.924936
 20
42.857010
 30
0.0
 10
94.924936
 20
42.657794
 30
0.0
 10
94.924936
 20
42.458570
 30
0.0
 10
94.924936
 20
42.259354
 30
0.0
 10
94.924936
 20
42.060138
 30
0.0
 10
94.924936
 20
41.860914
 30
0.0
 10
94.924936
 20
41.661698
 30
0.0
 10
94.924936
 20
41.462482
 30
0.0
 10
94.924936
 20
41.263258
 30
0.0
 10
94.924936
 20
41.064042
 30
0.0
 10
94.924936
 20
40.864818
 30
0.0
 10
94.924936
 20
40.665602
 30
0.0
 10
94.924936
 20
40.466386
 30
0.0
 10
94.924936
 20
40.267162
 30
0.0
 10
94.924936
 20
40.067946
 30
0.0
 10
94.924936
 20
39.868730
 30
0.0
 10
94.924936
 20
39.669506
 30
0.0
 10
94.924936
 20
39.470290
 30
0.0
 10
94.924936
 20
39.271074
 30
0.0
 10
94.924936
 20
39.071850
 30
0.0
 10
94.924936
 20
38.872634
 30
0.0
 10
94.924936
 20
38.673418
 30
0.0
 10
94.924936
 20
38.474194
 30
0.0
 10
94.924936
 20
38.274978
 30
0.0
 10
94.478064
 20
38.274978
 30
0.0
 10
94.031184
 20
38.274978
 30
0.0
 10
93.584312
 20
38.274978
 30
0.0
 10
93.137432
 20
38.274978
 30
0.0
 10
92.690560
 20
38.274978
 30
0.0
 10
92.243688
 20
38.274978
 30
0.0
 10
91.796808
 20
38.274978
 30
0.0
 10
91.349936
 20
38.274978
 30
0.0
 10
90.903064
 20
38.274978
 30
0.0
 10
90.456184
 20
38.274978
 30
0.0
 10
90.009312
 20
38.274978
 30
0.0
 10
89.562432
 20
38.274978
 30
0.0
 10
89.115560
 20
38.274978
 30
0.0
 10
88.668688
 20
38.274978
 30
0.0
 10
88.221808
 20
38.274978
 30
0.0
 10
87.774936
 20
38.274978
 30
0.0
 10
87.328064
 20
38.274978
 30
0.0
 10
86.881184
 20
38.274978
 30
0.0
 10
86.434312
 20
38.274978
 30
0.0
 10
85.987432
 20
38.274978
 30
0.0
 10
85.540560
 20
38.274978
 30
0.0
 10
85.093688
 20
38.274978
 30
0.0
 10
84.646808
 20
38.274978
 30
0.0
 10
84.199936
 20
38.274978
 30
0.0
 10
83.753064
 20
38.274978
 30
0.0
 10
83.306184
 20
38.274978
 30
0.0
 10
82.859312
 20
38.274978
 30
0.0
 10
82.412432
 20
38.274978
 30
0.0
 10
81.965560
 20
38.274978
 30
0.0
 10
81.518688
 20
38.274978
 30
0.0
 10
81.071808
 20
38.274978
 30
0.0
 10
80.624936
 20
38.274978
 30
0.0
 10
80.624936
 20
38.085138
 30
0.0
 10
80.624936
 20
37.895290
 30
0.0
 10
80.624936
 20
37.705450
 30
0.0
 10
80.624936
 20
37.515602
 30
0.0
 10
80.624936
 20
37.325762
 30
0.0
 10
80.624936
 20
37.135914
 30
0.0
 10
80.624936
 20
36.946074
 30
0.0
 10
80.624936
 20
36.756226
 30
0.0
 10
80.624936
 20
36.566386
 30
0.0
 10
80.624936
 20
36.376538
 30
0.0
 10
80.624936
 20
36.186698
 30
0.0
 10
80.624936
 20
35.996850
 30
0.0
 10
80.624936
 20
35.807010
 30
0.0
 10
80.624936
 20
35.617162
 30
0.0
 10
80.624936
 20
35.427322
 30
0.0
 10
80.624936
 20
35.237482
 30
0.0
 10
80.624936
 20
35.047634
 30
0.0
 10
80.624936
 20
34.857794
 30
0.0
 10
80.624936
 20
34.667946
 30
0.0
 10
80.624936
 20
34.478106
 30
0.0
 10
80.624936
 20
34.288258
 30
0.0
 10
80.624936
 20
34.098418
 30
0.0
 10
80.624936
 20
33.908570
 30
0.0
 10
80.624936
 20
33.718730
 30
0.0
 10
80.624936
 20
33.528882
 30
0.0
 10
80.624936
 20
33.339042
 30
0.0
 10
80.624936
 20
33.149194
 30
0.0
 10
80.624936
 20
32.959354
 30
0.0
 10
80.624936
 20
32.769506
 30
0.0
 10
80.624936
 20
32.579666
 30
0.0
 10
80.624936
 20
32.389818
 30
0.0
 10
80.624936
 20
32.199978
 30
0.0
 10
81.045248
 20
32.199978
 30
0.0
 10
81.465560
 20
32.199978
 30
0.0
 10
81.885872
 20
32.199978
 30
0.0
 10
82.306184
 20
32.199978
 30
0.0
 10
82.726496
 20
32.199978
 30
0.0
 10
83.146808
 20
32.199978
 30
0.0
 10
83.567120
 20
32.199978
 30
0.0
 10
83.987432
 20
32.199978
 30
0.0
 10
84.407752
 20
32.199978
 30
0.0
 10
84.828064
 20
32.199978
 30
0.0
 10
85.248376
 20
32.199978
 30
0.0
 10
85.668688
 20
32.199978
 30
0.0
 10
86.089000
 20
32.199978
 30
0.0
 10
86.509312
 20
32.199978
 30
0.0
 10
86.929624
 20
32.199978
 30
0.0
 10
87.349936
 20
32.199978
 30
0.0
 10
87.770248
 20
32.199978
 30
0.0
 10
88.190560
 20
32.199978
 30
0.0
 10
88.610872
 20
32.199978
 30
0.0
 10
89.031184
 20
32.199978
 30
0.0
 10
89.451496
 20
32.199978
 30
0.0
 10
89.871808
 20
32.199978
 30
0.0
 10
90.292120
 20
32.199978
 30
0.0
 10
90.712432
 20
32.199978
 30
0.0
 10
91.132752
 20
32.199978
 30
0.0
 10
91.553064
 20
32.199978
 30
0.0
 10
91.973376
 20
32.199978
 30
0.0
 10
92.393688
 20
32.199978
 30
0.0
 10
92.814000
 20
32.199978
 30
0.0
 10
93.234312
 20
32.199978
 30
0.0
 10
93.654624
 20
32.199978
 30
0.0
 10
94.074936
 20
32.199978
 30
0.0
 10
94.074936
 20
32.001538
 30
0.0
 10
94.074936
 20
31.803106
 30
0.0
 10
94.074936
 20
31.604666
 30
0.0
 10
94.074936
 20
31.406226
 30
0.0
 10
94.074936
 20
31.207794
 30
0.0
 10
94.074936
 20
31.009354
 30
0.0
 10
94.074936
 20
30.810914
 30
0.0
 10
94.074936
 20
30.612482
 30
0.0
 10
94.074936
 20
30.414042
 30
0.0
 10
94.074936
 20
30.215602
 30
0.0
 10
94.074936
 20
30.017162
 30
0.0
 10
94.074936
 20
29.818730
 30
0.0
 10
94.074936
 20
29.620290
 30
0.0
 10
94.074936
 20
29.421850
 30
0.0
 10
94.074936
 20
29.223418
 30
0.0
 10
94.074936
 20
29.024978
 30
0.0
 10
94.074936
 20
28.826538
 30
0.0
 10
94.074936
 20
28.628106
 30
0.0
 10
94.074936
 20
28.429666
 30
0.0
 10
94.074936
 20
28.231226
 30
0.0
 10
94.074936
 20
28.032794
 30
0.0
 10
94.074936
 20
27.834354
 30
0.0
 10
94.074936
 20
27.635914
 30
0.0
 10
94.074936
 20
27.437482
 30
0.0
 10
94.074936
 20
27.239042
 30
0.0
 10
94.074936
 20
27.040602
 30
0.0
 10
94.074936
 20
26.842162
 30
0.0
 10
94.074936
 20
26.643730
 30
0.0
 10
94.074936
 20
26.445290
 30
0.0
 10
94.074936
 20
26.246850
 30
0.0
 10
94.074936
 20
26.048418
 30
0.0
 10
94.074936
 20
25.849978
 30
0.0
 10
93.654624
 20
25.849978
 30
0.0
 10
93.234312
 20
25.849978
 30
0.0
 10
92.814000
 20
25.849978
 30
0.0
 10
92.393688
 20
25.849978
 30
0.0
 10
91.973376
 20
25.849978
 30
0.0
 10
91.553064
 20
25.849978
 30
0.0
 10
91.132752
 20
25.849978
 30
0.0
 10
90.712432
 20
25.849978
 30
0.0
 10
90.292120
 20
25.849978
 30
0.0
 10
89.871808
 20
25.849978
 30
0.0
 10
89.451496
 20
25.849978
 30
0.0
 10
89.031184
 20
25.849978
 30
0.0
 10
88.610872
 20
25.849978
 30
0.0
 10
88.190560
 20
25.849978
 30
0.0
 10
87.770248
 20
25.849978
 30
0.0
 10
87.349936
 20
25.849978
 30
0.0
 10
86.929624
 20
25.849978
 30
0.0
 10
86.509312
 20
25.849978
 30
0.0
 10
86.089000
 20
25.849978
 30
0.0
 10
85.668688
 20
25.849978
 30
0.0
 10
85.248376
 20
25.849978
 30
0.0
 10
84.828064
 20
25.849978
 30
0.0
 10
84.407752
 20
25.849978
 30
0.0
 10
83.987432
 20
25.849978
 30
0.0
 10
83.567120
 20
25.849978
 30
0.0
 10
83.146808
 20
25.849978
 30
0.0
 10
82.726496
 20
25.849978
 30
0.0
 10
82.306184
 20
25.849978
 30
0.0
 10
81.885872
 20
25.849978
 30
0.0
 10
81.465560
 20
25.849978
 30
0.0
 10
81.045248
 20
25.849978
 30
0.0
 10
80.624936
 20
25.849978
 30
0.0
 10
80.624936
 20
25.417162
 30
0.0
 10
80.624936
 20
24.984354
 30
0.0
 10
80.624936
 20
24.551538
 30
0.0
 10
80.624936
 20
24.118730
 30
0.0
 10
80.624936
 20
23.685914
 30
0.0
 10
80.624936
 20
23.253106
 30
0.0
 10
80.624936
 20
22.820290
 30
0.0
 10
80.624936
 20
22.387482
 30
0.0
 10
80.624936
 20
21.954666
 30
0.0
 10
80.624936
 20
21.521850
 30
0.0
 10
80.624936
 20
21.089042
 30
0.0
 10
80.624936
 20
20.656226
 30
0.0
 10
80.624936
 20
20.223418
 30
0.0
 10
80.624936
 20
19.790602
 30
0.0
 10
80.624936
 20
19.357794
 30
0.0
 10
80.624936
 20
18.924978
 30
0.0
 10
80.624936
 20
18.492162
 30
0.0
 10
80.624936
 20
18.059354
 30
0.0
 10
80.624936
 20
17.626538
 30
0.0
 10
80.624936
 20
17.193730
 30
0.0
 10
80.624936
 20
16.760914
 30
0.0
 10
80.624936
 20
16.328106
 30
0.0
 10
80.624936
 20
15.895290
 30
0.0
 10
80.624936
 20
15.462482
 30
0.0
 10
80.624936
 20
15.029666
 30
0.0
 10
80.624936
 20
14.596850
 30
0.0
 10
80.624936
 20
14.164042
 30
0.0
 10
80.624936
 20
13.731226
 30
0.0
 10
80.624936
 20
13.298418
 30
0.0
 10
80.624936
 20
12.865602
 30
0.0
 10
80.624936
 20
12.432794
 30
0.0
 10
80.624936
 20
11.999978
 30
0.0
 10
80.361656
 20
11.999978
 30
0.0
 10
80.098376
 20
11.999978
 30
0.0
 10
79.835096
 20
11.999978
 30
0.0
 10
79.571808
 20
11.999978
 30
0.0
 10
79.308528
 20
11.999978
 30
0.0
 10
79.045248
 20
11.999978
 30
0.0
 10
78.781968
 20
11.999978
 30
0.0
 10
78.518688
 20
11.999978
 30
0.0
 10
78.255408
 20
11.999978
 30
0.0
 10
77.992120
 20
11.999978
 30
0.0
 10
77.728840
 20
11.999978
 30
0.0
 10
77.465560
 20
11.999978
 30
0.0
 10
77.202280
 20
11.999978
 30
0.0
 10
76.939000
 20
11.999978
 30
0.0
 10
76.675720
 20
11.999978
 30
0.0
 10
76.412432
 20
11.999978
 30
0.0
 10
76.149152
 20
11.999978
 30
0.0
 10
75.885872
 20
11.999978
 30
0.0
 10
75.622592
 20
11.999978
 30
0.0
 10
75.359312
 20
11.999978
 30
0.0
 10
75.096032
 20
11.999978
 30
0.0
 10
74.832752
 20
11.999978
 30
0.0
 10
74.569464
 20
11.999978
 30
0.0
 10
74.306184
 20
11.999978
 30
0.0
 10
74.042904
 20
11.999978
 30
0.0
 10
73.779624
 20
11.999978
 30
0.0
 10
73.516344
 20
11.999978
 30
0.0
 10
73.253064
 20
11.999978
 30
0.0
 10
72.989776
 20
11.999978
 30
0.0
 10
72.726496
 20
11.999978
 30
0.0
 10
72.463216
 20
11.999978
 30
0.0
 10
72.199936
 20
11.999978
 30
0.0
 10
72.199936
 20
13.020290
 30
0.0
 10
72.199936
 20
14.040602
 30
0.0
 10
72.199936
 20
15.060914
 30
0.0
 10
72.199936
 20
16.081226
 30
0.0
 10
72.199936
 20
17.101538
 30
0.0
 10
72.199936
 20
18.121850
 30
0.0
 10
72.199936
 20
19.142162
 30
0.0
 10
72.199936
 20
20.162482
 30
0.0
 10
72.199936
 20
21.182794
 30
0.0
 10
72.199936
 20
22.203106
 30
0.0
 10
72.199936
 20
23.223418
 30
0.0
 10
72.199936
 20
24.243730
 30
0.0
 10
72.199936
 20
25.264042
 30
0.0
 10
72.199936
 20
26.284354
 30
0.0
 10
72.199936
 20
27.304666
 30
0.0
 10
72.199936
 20
28.324978
 30
0.0
 10
72.199936
 20
29.345290
 30
0.0
 10
72.199936
 20
30.365602
 30
0.0
 10
72.199936
 20
31.385914
 30
0.0
 10
72.199936
 20
32.406226
 30
0.0
 10
72.199936
 20
33.426538
 30
0.0
 10
72.199936
 20
34.446850
 30
0.0
 10
72.199936
 20
35.467162
 30
0.0
 10
72.199936
 20
36.487482
 30
0.0
 10
72.199936
 20
37.507794
 30
0.0
 10
72.199936
 20
38.528106
 30
0.0
 10
72.199936
 20
39.548418
 30
0.0
 10
72.199936
 20
40.568730
 30
0.0
 10
72.199936
 20
41.589042
 30
0.0
 10
72.199936
 20
42.609354
 30
0.0
 10
72.199936
 20
43.629666
 30
0.0
 10
72.199936
 20
44.649978
 30
0.0
  0
ENDSEC
  0
SECTION
  2
OBJECTS
  0
DICTIONARY
  5
C
330
0
100
AcDbDictionary
  3
ACAD_GROUP
350
D
  3
ACAD_MLINESTYLE
350
17
  0
DICTIONARY
  5
D
330
C
100
AcDbDictionary
  0
DICTIONARY
  5
1A
330
C
100
AcDbDictionary
  0
DICTIONARY
  5
17
330
C
100
AcDbDictionary
  3
STANDARD
350
18
  0
DICTIONARY
  5
19
330
C
100
AcDbDictionary
  0
ENDSEC
  0
EOF
