<?xml version="1.0" encoding="UTF-8" standalone="no"?>
<svg
   xmlns:dc="http://purl.org/dc/elements/1.1/"
   xmlns:cc="http://creativecommons.org/ns#"
   xmlns:rdf="http://www.w3.org/1999/02/22-rdf-syntax-ns#"
   xmlns:svg="http://www.w3.org/2000/svg"
   xmlns="http://www.w3.org/2000/svg"
   xmlns:sodipodi="http://sodipodi.sourceforge.net/DTD/sodipodi-0.dtd"
   xmlns:inkscape="http://www.inkscape.org/namespaces/inkscape"
   style="overflow: hidden; position: relative;"
   width="570"
   version="1.1"
   height="570"
   id="svg2"
   inkscape:version="0.48.2 r9819"
   sodipodi:docname="mySvg (1).svg">
  <metadata
     id="metadata56">
    <rdf:RDF>
      <cc:Work
         rdf:about="">
        <dc:format>image/svg+xml</dc:format>
        <dc:type
           rdf:resource="http://purl.org/dc/dcmitype/StillImage" />
        <dc:title></dc:title>
      </cc:Work>
    </rdf:RDF>
  </metadata>
  <defs
     id="defs54" />
  <sodipodi:namedview
     pagecolor="#ffffff"
     bordercolor="#666666"
     borderopacity="1"
     objecttolerance="10"
     gridtolerance="10"
     guidetolerance="10"
     inkscape:pageopacity="0"
     inkscape:pageshadow="2"
     inkscape:window-width="640"
     inkscape:window-height="480"
     id="namedview52"
     showgrid="false"
     inkscape:zoom="1.1710681"
     inkscape:cx="543.88285"
     inkscape:cy="243.10412"
     inkscape:current-layer="svg2" />
  <path
     d="m 225.5625,45.09375 c -20.74436,0 -39.74374,7.435738 -54.5,19.78125 -0.30307,-0.0032 -0.60243,0 -0.90625,0 -33.0572,0 -61.69253,18.880749 -75.75,46.4375 -22.200105,15.3356 -36.75,40.94515 -36.75,69.96875 0,4.15298 0.299522,8.22509 0.875,12.21875 -8.298406,13.1261 -13.125,28.66617 -13.125,45.34375 0,22.10072 8.455325,42.22657 22.28125,57.34375 1.092981,33.1809 21.202603,61.55617 49.78125,74.5625 15.52375,20.43491 40.0764,33.65625 67.71875,33.65625 5.42962,0 10.72832,-0.4957 15.875,-1.46875 12.42577,7.11204 26.81321,11.1875 42.15625,11.1875 17.5238,0 33.81424,-5.31762 47.34375,-14.40625 32.7116,-3.06804 60.0217,-24.68872 71.34375,-54.21875 26.44225,-14.40999 44.375,-42.45371 44.375,-74.6875 0,-1.05819 -0.0242,-2.10742 -0.0625,-3.15625 C 411.8391,256.30425 415,243.52519 415,230 c 0,-19.41378 -6.51478,-37.28314 -17.46875,-51.59375 0.0833,-1.54219 0.15625,-3.09328 0.15625,-4.65625 0,-37.5833 -24.40188,-69.46535 -58.21875,-80.6875 C 324.57592,68.461035 297.57591,52 266.71875,52 c -2.32804,0 -4.62549,0.09762 -6.90625,0.28125 -10.47944,-4.620125 -22.06177,-7.1875 -34.25,-7.1875 z"
     id="path3145"
     style="fill:none;stroke:#ff0000" />
  <path
     d="m 225.5625,55.09375 c 4.79729,0 9.48434,0.482915 14.03125,1.34375 -11.38226,3.832347 -21.69094,10.022024 -30.34375,17.96875 -7.19832,-3.73635 -15.00006,-6.508638 -23.21875,-8.0625 11.48042,-7.137386 25.01829,-11.25 39.53125,-11.25 z"
     id="path3143"
     style="fill:none;stroke:#000000" />
  <path
     d="m 258.0625,62.5 c 13.32374,6.420033 24.4766,16.669773 32,29.3125 -16.2036,4.462363 -30.4344,13.60213 -41.21875,25.875 -6.32101,-15.43754 -17.04992,-28.58209 -30.625,-37.90625 C 229.21944,70.448741 242.97208,64.237807 258.0625,62.5 z"
     id="path3141"
     style="fill:none;stroke:#000000" />
  <path
     d="m 277.4375,62.78125 c 19.05062,2.73112 35.79138,12.607327 47.40625,26.84375 -3.97419,-0.569719 -8.02447,-0.875 -12.15625,-0.875 -4.19539,0 -8.31116,0.287921 -12.34375,0.875 C 294.66238,79.146107 286.81049,70.017851 277.4375,62.78125 z"
     id="path3139"
     style="fill:none;stroke:#000000" />
  <path
     d="m 174.65625,75 c 9.72871,0.574628 18.92989,3.033704 27.3125,6.96875 -6.6141,7.774315 -11.85544,16.752379 -15.34375,26.5625 -8.66746,-5.25074 -18.35556,-8.997142 -28.6875,-10.875 C 162.0592,89.081818 167.74819,81.386594 174.65625,75 z"
     id="path3137"
     style="fill:none;stroke:#000000" />
  <path
     d="M 160.40625,75.53125 C 155.15152,81.798988 150.7864,88.824653 147.5,96.4375 c -1.60399,-0.09016 -3.21721,-0.15625 -4.84375,-0.15625 -10.57639,0 -20.69074,1.938975 -30.03125,5.46875 11.78617,-14.077246 28.66323,-23.73132 47.78125,-26.21875 z"
     id="path3135"
     style="fill:none;stroke:#000000" />
  <path
     d="m 210.875,86.90625 c 14.42746,9.350245 25.43653,23.50622 30.75,40.21875 -8.79984,13.3875 -13.9375,29.4069 -13.9375,46.625 0,7.22497 0.92848,14.23993 2.625,20.9375 -1.3619,1.82547 -2.79367,3.58929 -4.3125,5.28125 -0.12045,-0.0781 -0.25503,-0.14002 -0.375,-0.21875 1.319,-5.94949 2.03125,-12.12229 2.03125,-18.46875 0,-27.11603 -12.72674,-51.24888 -32.5,-66.8125 3.24777,-10.32991 8.65787,-19.696788 15.71875,-27.5625 z"
     id="path3133"
     style="fill:none;stroke:#000000" />
  <path
     d="m 312.6875,98.75 c 6.96013,0 13.6986,0.975925 20.09375,2.75 5.69073,10.56911 8.9375,22.65501 8.9375,35.5 0,2.96684 -0.19617,5.87308 -0.53125,8.75 C 337.52174,145.26737 333.79754,145 330,145 c -7.33503,0 -14.46024,0.94057 -21.25,2.6875 1.19543,-5.67814 1.8125,-11.56 1.8125,-17.59375 0,-10.91858 -2.06213,-21.34757 -5.8125,-30.9375 2.61268,-0.275303 5.25187,-0.40625 7.9375,-0.40625 z"
     id="path3131"
     style="fill:none;stroke:#000000" />
  <path
     d="m 294.6875,100.96875 c 3.77814,8.95578 5.875,18.79427 5.875,29.125 0,7.42711 -1.11421,14.60055 -3.125,21.375 -21.91908,9.09726 -39.2025,27.10327 -47.34375,49.5 -2.13622,0.73927 -4.31236,1.35958 -6.53125,1.90625 -0.87781,-2.08077 -1.65335,-4.20346 -2.34375,-6.375 8.79984,-13.3875 13.9375,-29.4069 13.9375,-46.625 0,-7.22497 -0.92848,-14.23993 -2.625,-20.9375 10.2279,-13.70937 25.03864,-23.75144 42.15625,-27.96875 z"
     id="path3129"
     style="fill:none;stroke:#000000" />
  <path
     d="m 142.65625,106.28125 c 0.42799,0 0.85496,0.0241 1.28125,0.0312 -2.19375,7.54483 -3.375,15.52856 -3.375,23.78125 0,8.6526 1.28442,17.00896 3.6875,24.875 -4.50967,-0.73946 -9.12483,-1.125 -13.84375,-1.125 -12.24861,0 -23.88596,2.58654 -34.40625,7.25 -0.550495,-3.66481 -0.84375,-7.4005 -0.84375,-11.21875 0,-11.35608 2.54505,-22.10324 7.0625,-31.75 11.67154,-7.49032 25.53935,-11.84375 40.4375,-11.84375 z"
     id="path3127"
     style="fill:none;stroke:#000000" />
  <path
     d="m 346.125,106.625 c 22.81955,11.39176 39.02339,34.06416 41.28125,60.71875 -10.15856,-9.31021 -22.57086,-16.2091 -36.34375,-19.71875 0.43502,-3.48456 0.65625,-7.02257 0.65625,-10.625 0,-10.7055 -1.98144,-20.93991 -5.59375,-30.375 z"
     id="path3125"
     style="fill:none;stroke:#000000" />
  <path
     d="m 154.15625,107.15625 c 10.79222,1.66261 20.83615,5.62776 29.59375,11.375 -1.319,5.94949 -2.03125,12.12229 -2.03125,18.46875 0,27.11604 12.72674,51.24888 32.5,66.8125 -0.0437,0.13912 -0.11172,0.26748 -0.15625,0.40625 -2.23671,-0.34458 -4.45809,-0.80613 -6.625,-1.34375 -10.02691,-21.42889 -28.7333,-37.99557 -51.59375,-45.15625 -3.39221,-8.55279 -5.28125,-17.86455 -5.28125,-27.625 0,-8.00028 1.27391,-15.70779 3.59375,-22.9375 z"
     id="path3123"
     style="fill:none;stroke:#000000" />
  <path
     d="m 192.625,125.34375 c 15.36332,13.73395 25.03125,33.70872 25.03125,55.9375 0,3.96951 -0.31214,7.85345 -0.90625,11.65625 C 201.38668,179.20355 191.71875,159.22878 191.71875,137 c 0,-3.96951 0.31214,-7.85345 0.90625,-11.65625 z"
     id="path3121"
     style="fill:none;stroke:#000000" />
  <path
     d="m 87.375,130.59375 c -1.438323,6.19801 -2.21875,12.64569 -2.21875,19.28125 0,5.50757 0.530723,10.87797 1.53125,16.09375 -7.079705,4.25708 -13.489947,9.49737 -19.03125,15.5625 -2.72e-4,-0.0834 0,-0.16654 0,-0.25 0,-19.54328 7.471897,-37.33905 19.71875,-50.6875 z"
     id="path3119"
     style="fill:none;stroke:#000000" />
  <path
     d="m 244.75,142 c 0.27103,2.59268 0.40625,5.21056 0.40625,7.875 0,11.35608 -2.54505,22.10324 -7.0625,31.75 -0.27103,-2.59268 -0.40625,-5.21056 -0.40625,-7.875 0,-11.35608 2.54505,-22.10324 7.0625,-31.75 z"
     id="path3117"
     style="fill:none;stroke:#000000" />
  <path
     d="m 330,155 c 3.18164,0 6.29757,0.20918 9.375,0.59375 -2.89186,11.33995 -8.35394,21.64029 -15.75,30.25 -0.78068,-0.0212 -1.55795,-0.0312 -2.34375,-0.0312 -23.96653,0 -45.57933,9.94949 -61.03125,25.90625 -0.97779,-0.0837 -1.93953,-0.1917 -2.90625,-0.3125 0.23871,-0.93608 0.50769,-1.85963 0.78125,-2.78125 21.91908,-9.09726 39.2025,-27.10327 47.34375,-49.5 C 313.15721,156.46431 321.40663,155 330,155 z"
     id="path3115"
     style="fill:none;stroke:#000000" />
  <path
     d="m 349.21875,157.5 c 15.07771,3.98454 28.28259,12.53086 38.0625,24.09375 -1.005,9.65247 -3.87433,18.75806 -8.1875,26.96875 -11.89256,-11.04774 -26.94072,-18.78911 -43.65625,-21.59375 6.35656,-8.72473 11.10819,-18.67395 13.78125,-29.46875 z"
     id="path3113"
     style="fill:none;stroke:#000000" />
  <path
     d="m 130.40625,163.84375 c 6.24806,0 12.32216,0.77904 18.125,2.21875 10.02691,21.42889 28.7333,37.99557 51.59375,45.15625 0.83129,2.09593 1.57591,4.22253 2.21875,6.40625 -2.05679,0.97922 -4.15766,1.86401 -6.3125,2.65625 -12.70933,-7.56795 -27.54031,-11.9375 -43.40625,-11.9375 -0.7335,0 -1.4897,-0.0185 -2.21875,0 -7.7608,0.19662 -15.26661,1.44959 -22.375,3.59375 -14.17902,-9.64124 -24.85686,-24.00948 -29.8125,-40.84375 9.75664,-4.64508 20.66202,-7.25 32.1875,-7.25 z"
     id="path3111"
     style="fill:none;stroke:#000000" />
  <path
     d="m 291.65625,165.53125 c -6.45052,12.00696 -16.0722,22.06723 -27.75,29.03125 6.45052,-12.00696 16.0722,-22.06723 27.75,-29.03125 z"
     id="path3109"
     style="fill:none;stroke:#000000" />
  <path
     d="m 162.84375,171.21875 c 12.34112,5.93233 22.81696,15.14012 30.28125,26.5 -12.34112,-5.93233 -22.81696,-15.14012 -30.28125,-26.5 z"
     id="path3107"
     style="fill:none;stroke:#000000" />
  <path
     d="m 89.28125,176.125 c 5.165113,15.92155 14.92826,29.77704 27.6875,40.03125 -9.99399,4.62751 -18.93832,11.12053 -26.375,19.0625 -10.834176,-10.46024 -18.533953,-24.12793 -21.53125,-39.5 5.446143,-7.7337 12.304359,-14.3934 20.21875,-19.59375 z"
     id="path3105"
     style="fill:none;stroke:#000000" />
  <path
     d="M 395.40625,193.3125 C 401.50528,204.16139 405,216.66806 405,230 c 0,5.93689 -0.7274,11.71112 -2.03125,17.25 -3.33255,-11.57833 -9.07354,-22.11467 -16.625,-31.09375 4.06289,-7.04142 7.14704,-14.71497 9.0625,-22.84375 z"
     id="path3103"
     style="fill:none;stroke:#000000" />
  <path
     d="m 327.75,196.09375 c 17.85493,1.5274 33.91793,9.31915 46,21.15625 -9.95327,13.94848 -24.5335,24.33437 -41.53125,28.90625 -13.97881,-10.09479 -31.12732,-16.0625 -49.6875,-16.0625 -5.92327,0 -11.69959,0.59685 -17.28125,1.75 -1.75159,-1.43169 -3.41679,-2.94953 -5.03125,-4.53125 1.31331,-1.84047 2.68597,-3.6322 4.15625,-5.34375 0.78068,0.0212 1.55795,0.0312 2.34375,0.0312 23.96653,0 45.57933,-9.94949 61.03125,-25.90625 z"
     id="path3101"
     style="fill:none;stroke:#000000" />
  <path
     d="m 312.5625,196.3125 c -10.51058,8.13449 -23.23792,13.57664 -37.125,15.1875 10.51058,-8.13449 23.23792,-13.57664 37.125,-15.1875 z"
     id="path3099"
     style="fill:none;stroke:#000000" />
  <path
     d="m 62,208.15625 c 4.461116,13.39037 12.174835,25.28443 22.1875,34.78125 -8.123387,11.01712 -13.653349,24.04321 -15.6875,38.21875 -8.247849,-12.04566 -13.09375,-26.61134 -13.09375,-42.3125 0,-10.9427 2.381268,-21.31401 6.59375,-30.6875 z"
     id="path3097"
     style="fill:none;stroke:#000000" />
  <path
     d="m 232.46875,214.8125 c 2.43094,1.07174 4.92476,2.03078 7.46875,2.875 1.60561,2.65231 3.34168,5.20399 5.21875,7.65625 C 245.07296,226.88594 245,228.43703 245,230 c 0,1.05819 0.0242,2.10742 0.0625,3.15625 -1.16578,2.35465 -2.20849,4.77806 -3.15625,7.25 -2.3079,1.25772 -4.54663,2.6346 -6.71875,4.09375 -2.65393,0.24891 -5.26643,0.60647 -7.84375,1.09375 -2.26697,-1.29753 -4.60822,-2.50523 -7,-3.59375 -1.57182,-2.06909 -3.24906,-4.08554 -5,-6 -0.10455,-3.17395 -0.36916,-6.29835 -0.8125,-9.375 1.38853,-2.19633 2.68831,-4.455 3.875,-6.78125 2.15989,-1.49203 4.24135,-3.06951 6.25,-4.75 0.30307,0.003 0.60243,0 0.90625,0 2.32804,0 4.62549,-0.0976 6.90625,-0.28125 z"
     id="path3095"
     style="fill:none;stroke:#000000" />
  <path
     d="m 152.625,218.34375 c 10.15227,0 19.82518,2.03211 28.65625,5.6875 -3.63572,0.54153 -7.33855,0.84375 -11.125,0.84375 -10.15227,0 -19.82518,-2.03211 -28.65625,-5.6875 3.63572,-0.54153 7.33855,-0.84375 11.125,-0.84375 z"
     id="path3093"
     style="fill:none;stroke:#000000" />
  <path
     d="m 126.75,222.9375 c 12.70933,7.56795 27.54031,11.9375 43.40625,11.9375 8.5379,0 16.78809,-1.25161 24.5625,-3.59375 0.78006,0.53003 1.55385,1.06672 2.3125,1.625 -0.66406,0.69917 -1.34092,1.38933 -2.03125,2.0625 -3.22268,-0.37082 -6.49046,-0.5625 -9.8125,-0.5625 -21.25159,0 -40.66001,7.82671 -55.5625,20.71875 -11.58814,-2.03195 -22.27097,-6.70672 -31.375,-13.40625 7.85963,-8.27516 17.57912,-14.76612 28.5,-18.78125 z"
     id="path3091"
     style="fill:none;stroke:#000000" />
  <path
     d="m 380.5625,224.90625 c 8.81645,11.37038 14.45912,25.33351 15.53125,40.5625 -6.98666,12.99338 -17.68691,23.68128 -30.6875,30.65625 -3.75104,-16.45088 -12.30011,-31.0593 -24.0625,-42.34375 15.73111,-5.63518 29.3324,-15.78359 39.21875,-28.875 z"
     id="path3089"
     style="fill:none;stroke:#000000" />
  <path
     d="m 282.53125,240.09375 c 12.51761,0 24.31266,3.07708 34.6875,8.5 -1.49704,0.0891 -3.01183,0.15625 -4.53125,0.15625 -12.51761,0 -24.31266,-3.07708 -34.6875,-8.5 1.49704,-0.0891 3.01183,-0.15625 4.53125,-0.15625 z"
     id="path3087"
     style="fill:none;stroke:#000000" />
  <path
     d="m 263,242.6875 c 13.97881,10.09479 31.12732,16.0625 49.6875,16.0625 5.92327,0 11.69959,-0.59685 17.28125,-1.75 13.19377,10.78417 22.62719,25.96261 26.09375,43.3125 C 347.94077,303.32444 339.16962,305 330,305 c -1.78618,0 -3.55755,-0.0647 -5.3125,-0.1875 -9.22575,-30.96668 -35.63038,-54.53626 -68.15625,-59.65625 -0.0252,-0.12289 -0.0379,-0.25189 -0.0625,-0.375 2.13789,-0.79284 4.3065,-1.49536 6.53125,-2.09375 z"
     id="path3085"
     style="fill:none;stroke:#000000" />
  <path
     d="m 183.0625,244.46875 c -11.10767,7.1195 -24.20296,11.35875 -38.28125,11.75 11.10767,-7.1195 24.20296,-11.35875 38.28125,-11.75 z"
     id="path3083"
     style="fill:none;stroke:#000000" />
  <path
     d="m 198.21875,245.5625 c 2.28277,0.40028 4.54328,0.89825 6.75,1.5 -0.24612,2.25403 -0.62115,4.49802 -1.0625,6.6875 -20.89573,10.92018 -36.67553,30.26132 -42.84375,53.53125 -9.36363,4.20179 -19.72827,6.5625 -30.65625,6.5625 -6.84601,0 -13.47991,-0.93794 -19.78125,-2.65625 1.93854,-17.75379 10.09618,-33.64743 22.21875,-45.46875 3.22268,0.37082 6.49046,0.5625 9.8125,0.5625 21.25159,0 40.66001,-7.82671 55.5625,-20.71875 z"
     id="path3081"
     style="fill:none;stroke:#000000" />
  <path
     d="m 91.84375,249.4375 c 8.65195,6.46347 18.55959,11.29205 29.3125,14.09375 -10.64695,12.19205 -17.89012,27.45395 -20.1875,44.28125 -8.74614,-3.73818 -16.65032,-9.06384 -23.3125,-15.65625 0.247598,-15.94552 5.472045,-30.67306 14.1875,-42.71875 z"
     id="path3079"
     style="fill:none;stroke:#000000" />
  <path
     d="m 248.125,254.28125 c 0.13686,0.009 0.26959,0.0217 0.40625,0.0312 9.22575,30.96668 35.63038,54.53625 68.15625,59.65625 1.00305,4.89159 1.53125,9.96799 1.53125,15.15625 0,5.67865 -0.64785,11.21372 -1.84375,16.53125 -17.91392,-1.15586 -34.10323,-8.60716 -46.40625,-20.15625 0.14293,-2.01518 0.21875,-4.04218 0.21875,-6.09375 0,-22.61109 -8.85171,-43.14728 -23.25,-58.375 0.29701,-2.2754 0.69125,-4.54346 1.1875,-6.75 z"
     id="path3077"
     style="fill:none;stroke:#000000" />
  <path
     d="m 259.625,255.96875 c 24.97429,5.57377 45.24734,23.5628 53.96875,47.1875 -24.97429,-5.57377 -45.24734,-23.5628 -53.96875,-47.1875 z"
     id="path3075"
     style="fill:none;stroke:#000000" />
  <path
     d="m 218.875,258.1875 c 0.0696,0.13095 0.11862,0.27484 0.1875,0.40625 -13.37755,15.01952 -21.53125,34.80431 -21.53125,56.5 0,11.61788 2.34295,22.69427 6.5625,32.78125 -7.6884,7.25968 -16.90536,12.90007 -27.125,16.40625 -5.57644,-10.48729 -8.75,-22.45015 -8.75,-35.15625 0,-5.10197 0.52922,-10.09035 1.5,-14.90625 20.89573,-10.92018 36.67553,-30.26132 42.84375,-53.53125 2.0602,-0.92448 4.15873,-1.76108 6.3125,-2.5 z"
     id="path3073"
     style="fill:none;stroke:#000000" />
  <path
     d="m 231.34375,260.3125 c 1.78547,1.39632 3.5058,2.85694 5.15625,4.40625 -0.14293,2.01518 -0.21875,4.04218 -0.21875,6.09375 0,22.61109 8.85171,43.14728 23.25,58.375 -2.30681,17.67278 -10.76449,33.41537 -23.15625,45 -8.38024,-6.55373 -15.30484,-14.84904 -20.28125,-24.34375 13.37755,-15.01952 21.53125,-34.80431 21.53125,-56.5 0,-11.61788 -2.34295,-22.69427 -6.5625,-32.78125 0.0911,-0.086 0.18975,-0.16446 0.28125,-0.25 z"
     id="path3071"
     style="fill:none;stroke:#000000" />
  <path
     d="m 199.375,268.28125 c -5.39553,12.62381 -14.12926,23.46987 -25.125,31.40625 5.39553,-12.62381 14.12926,-23.46987 25.125,-31.40625 z"
     id="path3069"
     style="fill:none;stroke:#000000" />
  <path
     d="m 223.5,268.84375 c 2.65451,7.68049 4.125,15.91707 4.125,24.5 0,17.45103 -5.97303,33.50766 -15.96875,46.25 -2.65451,-7.68049 -4.125,-15.91707 -4.125,-24.5 0,-17.45103 5.97303,-33.50766 15.96875,-46.25 z"
     id="path3067"
     style="fill:none;stroke:#000000" />
  <path
     d="M 246.5,276.21875 C 254.14115,287.04829 258.97048,299.99262 259.96875,314 252.3276,303.17046 247.49827,290.22613 246.5,276.21875 z"
     id="path3065"
     style="fill:none;stroke:#000000" />
  <path
     d="m 394.9375,284.8125 c -3.55402,18.81437 -14.09884,35.14025 -28.875,46.15625 0.97305,-5.14668 1.46875,-10.44538 1.46875,-15.875 0,-2.90236 -0.15346,-5.76623 -0.4375,-8.59375 10.74344,-5.22038 20.21383,-12.65793 27.84375,-21.6875 z"
     id="path3063"
     style="fill:none;stroke:#000000" />
  <path
     d="m 78.78125,306.34375 c 6.479533,4.96499 13.6787,9.01901 21.4375,11.96875 -0.005,0.36573 -0.0312,0.72692 -0.0312,1.09375 0,11.88186 2.44078,23.19866 6.84375,33.46875 -14.605474,-11.20124 -24.94698,-27.64878 -28.25,-46.53125 z"
     id="path3061"
     style="fill:none;stroke:#000000" />
  <path
     d="m 357.375,310.5 c 0.0916,1.51767 0.15625,3.05306 0.15625,4.59375 0,8.12939 -1.32652,15.95059 -3.71875,23.28125 -8.32933,4.01925 -17.49328,6.56752 -27.1875,7.25 1.05124,-5.34061 1.59375,-10.85118 1.59375,-16.5 0,-4.83969 -0.41051,-9.56871 -1.1875,-14.1875 0.98717,0.0339 1.97331,0.0625 2.96875,0.0625 9.58067,0 18.78269,-1.57779 27.375,-4.5 z"
     id="path3059"
     style="fill:none;stroke:#000000" />
  <path
     d="m 158.84375,318.96875 c -0.39758,3.33454 -0.625,6.71467 -0.625,10.15625 0,13.58965 3.2043,26.42016 8.875,37.8125 -4.68092,0.91469 -9.52005,1.40625 -14.46875,1.40625 -10.17687,0 -19.87041,-2.04654 -28.71875,-5.71875 -8.27268,-11.71017 -13.25523,-25.88755 -13.65625,-41.21875 6.46342,1.57239 13.20896,2.4375 20.15625,2.4375 9.97699,0 19.54345,-1.71715 28.4375,-4.875 z"
     id="path3057"
     style="fill:none;stroke:#000000" />
  <path
     d="m 268.3125,337.25 c 12.61303,10.07177 28.13495,16.63135 45.125,18.1875 -5.23192,13.95398 -14.48931,25.91692 -26.375,34.5 -1.49704,0.0891 -3.01183,0.15625 -4.53125,0.15625 -13.74482,0 -26.61015,-3.70185 -37.6875,-10.15625 11.59883,-11.43178 19.93844,-26.16904 23.46875,-42.6875 z"
     id="path3055"
     style="fill:none;stroke:#000000" />
  <path
     d="m 348.09375,351.5 c -9.06328,16.2864 -24.00387,28.83112 -41.96875,34.78125 7.92034,-8.71431 14.07262,-19.09072 17.84375,-30.53125 8.40655,-0.26172 16.50494,-1.71829 24.125,-4.25 z"
     id="path3053"
     style="fill:none;stroke:#000000" />
  <path
     d="m 208.6875,357.1875 c 5.12523,8.97168 11.83227,16.92762 19.75,23.46875 -7.61769,5.38816 -16.27584,9.37297 -25.625,11.625 -7.95845,-5.1035 -14.88244,-11.66323 -20.40625,-19.3125 9.73559,-3.64391 18.61515,-9.04493 26.28125,-15.78125 z"
     id="path3051"
     style="fill:none;stroke:#000000" />
  <path
     d="m 172.34375,376.03125 c 4.5472,6.85867 10.05433,13.01384 16.34375,18.28125 -1.15615,0.0529 -2.33078,0.0937 -3.5,0.0937 -18.31374,0 -35.10179,-6.56507 -48.125,-17.46875 5.04927,0.93504 10.24248,1.40625 15.5625,1.40625 6.79015,0 13.38878,-0.80839 19.71875,-2.3125 z"
     id="path3049"
     style="fill:none;stroke:#000000" />
  <path
     d="m 236.9375,386.8125 c 9.82427,6.2585 21.01504,10.59378 33.03125,12.375 -8.312,3.17584 -17.32187,4.9375 -26.75,4.9375 -9.78506,0 -19.11705,-1.90402 -27.6875,-5.3125 7.7484,-2.96348 14.93862,-7.02536 21.40625,-12 z"
     id="ellipse10"
     style="fill:none;stroke:#000000" />
</svg>
