  0
SECTION
  2
HEADER
  9
$ACADVER
  1
AC1014
  9
$HANDSEED
  5
FFFF
  9
$MEASUREMENT
 70
     1
  0
ENDSEC
  0
SECTION
  2
TABLES
  0
TABLE
  2
VPORT
  5
8
330
0
100
AcDbSymbolTable
 70
     4
  0
VPORT
  5
2E
330
8
100
AcDbSymbolTableRecord
100
AcDbViewportTableRecord
  2
*ACTIVE
 70
     0
 10
0.0
 20
0.0
 11
1.0
 21
1.0
 12
210.0
 22
148.5
 13
0.0
 23
0.0
 14
10.0
 24
10.0
 15
10.0
 25
10.0
 16
0.0
 26
0.0
 36
1.0
 17
0.0
 27
0.0
 37
0.0
 40
341.0
 41
1.24
 42
50.0
 43
0.0
 44
0.0
 50
0.0
 51
0.0
 71
     0
 72
   100
 73
     1
 74
     3
 75
     0
 76
     0
 77
     0
 78
     0
  0
ENDTAB
  0
TABLE
  2
LTYPE
  5
5
330
0
100
AcDbSymbolTable
 70
     1
  0
LTYPE
  5
14
330
5
100
AcDbSymbolTableRecord
100
AcDbLinetypeTableRecord
  2
BYBLOCK
 70
     0
  3

 72
    65
 73
     0
 40
0.0
  0
LTYPE
  5
15
330
5
100
AcDbSymbolTableRecord
100
AcDbLinetypeTableRecord
  2
BYLAYER
 70
     0
  3

 72
    65
 73
     0
 40
0.0
  0
LTYPE
  5
16
330
5
100
AcDbSymbolTableRecord
100
AcDbLinetypeTableRecord
  2
CONTINUOUS
 70
     0
  3
Solid line
 72
    65
 73
     0
 40
0.0
  0
ENDTAB
  0
TABLE
  2
LAYER
  5
2
100
AcDbSymbolTable
 70
1
  0
LAYER
  5
50
100
AcDbSymbolTableRecord
100
AcDbLayerTableRecord
  2
0
 70
0
  6
CONTINUOUS
  0
ENDTAB
  0
TABLE
  2
STYLE
  5
3
330
0
100
AcDbSymbolTable
 70
     1
  0
STYLE
  5
11
330
3
100
AcDbSymbolTableRecord
100
AcDbTextStyleTableRecord
  2
STANDARD
 70
     0
 40
0.0
 41
1.0
 50
0.0
 71
     0
 42
2.5
  3
txt
  4

  0
ENDTAB
  0
TABLE
  2
VIEW
  5
6
330
0
100
AcDbSymbolTable
 70
     0
  0
ENDTAB
  0
TABLE
  2
UCS
  5
7
330
0
100
AcDbSymbolTable
 70
     0
  0
ENDTAB
  0
TABLE
  2
APPID
  5
9
330
0
100
AcDbSymbolTable
 70
     2
  0
APPID
  5
12
330
9
100
AcDbSymbolTableRecord
100
AcDbRegAppTableRecord
  2
ACAD
 70
     0
  0
ENDTAB
  0
TABLE
  2
DIMSTYLE
  5
A
330
0
100
AcDbSymbolTable
 70
     1
  0
DIMSTYLE
105
27
330
A
100
AcDbSymbolTableRecord
100
AcDbDimStyleTableRecord
  2
ISO-25
 70
     0
  3

  4

  5

  6

  7

 40
1.0
 41
2.5
 42
0.625
 43
3.75
 44
1.25
 45
0.0
 46
0.0
 47
0.0
 48
0.0
140
2.5
141
2.5
142
0.0
143
0.03937007874016
144
1.0
145
0.0
146
1.0
147
0.625
 71
     0
 72
     0
 73
     0
 74
     0
 75
     0
 76
     0
 77
     1
 78
     8
170
     0
171
     3
172
     1
173
     0
174
     0
175
     0
176
     0
177
     0
178
     0
270
     2
271
     2
272
     2
273
     2
274
     3
340
11
275
     0
280
     0
281
     0
282
     0
283
     0
284
     8
285
     0
286
     0
287
     3
288
     0
  0
ENDTAB
  0
TABLE
  2
BLOCK_RECORD
  5
1
330
0
100
AcDbSymbolTable
 70
     1
  0
BLOCK_RECORD
  5
1F
330
1
100
AcDbSymbolTableRecord
100
AcDbBlockTableRecord
  2
*MODEL_SPACE
  0
BLOCK_RECORD
  5
1B
330
1
100
AcDbSymbolTableRecord
100
AcDbBlockTableRecord
  2
*PAPER_SPACE
  0
ENDTAB
  0
ENDSEC
  0
SECTION
  2
BLOCKS
  0
BLOCK
  5
20
330
1F
100
AcDbEntity
  8
0
100
AcDbBlockBegin
  2
*MODEL_SPACE
 70
     0
 10
0.0
 20
0.0
 30
0.0
  3
*MODEL_SPACE
  1

  0
ENDBLK
  5
21
330
1F
100
AcDbEntity
  8
0
100
AcDbBlockEnd
  0
BLOCK
  5
1C
330
1B
100
AcDbEntity
 67
     1
  8
0
100
AcDbBlockBegin
  2
*PAPER_SPACE
  1

  0
ENDBLK
  5
1D
330
1B
100
AcDbEntity
 67
     1
  8
0
100
AcDbBlockEnd
  0
ENDSEC
  0
SECTION
  2
ENTITIES
  0
LWPOLYLINE
  5
100
100
AcDbEntity
  8
0
 62
1
100
AcDbPolyline
 90
177
 70
0
 10
180.450000
 20
419.925000
 30
0.0
 10
174.296032
 20
419.650106
 30
0.0
 10
168.296360
 20
418.841214
 30
0.0
 10
162.474400
 20
417.522002
 30
0.0
 10
156.853568
 20
415.716154
 30
0.0
 10
151.457296
 20
413.447348
 30
0.0
 10
146.309000
 20
410.739266
 30
0.0
 10
141.432088
 20
407.615590
 30
0.0
 10
136.850000
 20
404.100000
 30
0.0
 10
136.759208
 20
404.100735
 30
0.0
 10
136.668616
 20
404.101080
 30
0.0
 10
136.578144
 20
404.101125
 30
0.0
 10
136.487728
 20
404.100960
 30
0.0
 10
136.397280
 20
404.100675
 30
0.0
 10
136.306728
 20
404.100360
 30
0.0
 10
136.215992
 20
404.100105
 30
0.0
 10
136.125000
 20
404.100000
 30
0.0
 10
126.389528
 20
403.407917
 30
0.0
 10
117.080912
 20
401.395447
 30
0.0
 10
108.294360
 20
398.158260
 30
0.0
 10
100.125080
 20
393.792026
 30
0.0
 10
92.668296
 20
388.392413
 30
0.0
 10
86.019208
 20
382.055091
 30
0.0
 10
80.273040
 20
374.875728
 30
0.0
 10
75.525000
 20
366.950000
 30
0.0
 10
69.162632
 20
361.974768
 30
0.0
 10
63.438714
 20
356.293296
 30
0.0
 10
58.417932
 20
349.969904
 30
0.0
 10
54.164969
 20
343.068904
 30
0.0
 10
50.744509
 20
335.654600
 30
0.0
 10
48.221238
 20
327.791304
 30
0.0
 10
46.659840
 20
319.543336
 30
0.0
 10
46.125000
 20
310.975000
 30
0.0
 10
46.136192
 20
309.732136
 30
0.0
 10
46.169632
 20
308.495312
 30
0.0
 10
46.225096
 20
307.264512
 30
0.0
 10
46.302360
 20
306.039704
 30
0.0
 10
46.401202
 20
304.820872
 30
0.0
 10
46.521404
 20
303.607992
 30
0.0
 10
46.662745
 20
302.401040
 30
0.0
 10
46.825003
 20
301.200000
 30
0.0
 10
44.467791
 20
297.173640
 30
0.0
 10
42.383666
 20
292.978200
 30
0.0
 10
40.585330
 20
288.625648
 30
0.0
 10
39.085482
 20
284.127944
 30
0.0
 10
37.896824
 20
279.497064
 30
0.0
 10
37.032058
 20
274.744968
 30
0.0
 10
36.503884
 20
269.883624
 30
0.0
 10
36.325003
 20
264.925000
 30
0.0
 10
36.637258
 20
258.373584
 30
0.0
 10
37.554743
 20
251.998720
 30
0.0
 10
39.048538
 20
245.828856
 30
0.0
 10
41.089726
 20
239.892440
 30
0.0
 10
43.649385
 20
234.217896
 30
0.0
 10
46.698598
 20
228.833688
 30
0.0
 10
50.208443
 20
223.768240
 30
0.0
 10
54.150003
 20
219.050000
 30
0.0
 10
55.174541
 20
209.292448
 30
0.0
 10
57.526442
 20
199.994344
 30
0.0
 10
61.106825
 20
191.254728
 30
0.0
 10
65.816803
 20
183.172632
 30
0.0
 10
71.557494
 20
175.847072
 30
0.0
 10
78.230014
 20
169.377096
 30
0.0
 10
85.735475
 20
163.861728
 30
0.0
 10
93.975003
 20
159.400000
 30
0.0
 10
98.961435
 20
153.549424
 30
0.0
 10
104.569347
 20
148.296184
 30
0.0
 10
110.743075
 20
143.696616
 30
0.0
 10
117.426923
 20
139.807024
 30
0.0
 10
124.565219
 20
136.683752
 30
0.0
 10
132.102291
 20
134.383104
 30
0.0
 10
139.982443
 20
132.961416
 30
0.0
 10
148.150003
 20
132.475000
 30
0.0
 10
149.773947
 20
132.493560
 30
0.0
 10
151.387875
 20
132.549160
 30
0.0
 10
152.991587
 20
132.641560
 30
0.0
 10
154.584883
 20
132.770616
 30
0.0
 10
156.167571
 20
132.936168
 30
0.0
 10
157.739459
 20
133.138032
 30
0.0
 10
159.300331
 20
133.376048
 30
0.0
 10
160.850003
 20
133.650032
 30
0.0
 10
164.649723
 20
131.631912
 30
0.0
 10
168.587139
 20
129.851280
 30
0.0
 10
172.652819
 20
128.317872
 30
0.0
 10
176.837323
 20
127.041424
 30
0.0
 10
181.131227
 20
126.031672
 30
0.0
 10
185.525091
 20
125.298368
 30
0.0
 10
190.009499
 20
124.851240
 30
0.0
 10
194.575003
 20
124.700032
 30
0.0
 10
199.783507
 20
124.897024
 30
0.0
 10
204.885187
 20
125.478344
 30
0.0
 10
209.865723
 20
126.429480
 30
0.0
 10
214.710787
 20
127.735944
 30
0.0
 10
219.406075
 20
129.383232
 30
0.0
 10
223.937251
 20
131.356840
 30
0.0
 10
228.290003
 20
133.642272
 30
0.0
 10
232.450003
 20
136.225032
 30
0.0
 10
242.044387
 20
137.824536
 30
0.0
 10
251.134403
 20
140.715712
 30
0.0
 10
259.620819
 20
144.798768
 30
0.0
 10
267.404371
 20
149.973936
 30
0.0
 10
274.385811
 20
156.141424
 30
0.0
 10
280.465899
 20
163.201456
 30
0.0
 10
285.545379
 20
171.054256
 30
0.0
 10
289.525003
 20
179.600032
 30
0.0
 10
297.123851
 20
184.419536
 30
0.0
 10
303.996139
 20
190.173040
 30
0.0
 10
310.053531
 20
196.772000
 30
0.0
 10
315.207675
 20
204.127896
 30
0.0
 10
319.370243
 20
212.152176
 30
0.0
 10
322.452883
 20
220.756312
 30
0.0
 10
324.367251
 20
229.851776
 30
0.0
 10
325.025003
 20
239.350032
 30
0.0
 10
325.024203
 20
239.667168
 30
0.0
 10
325.021803
 20
239.983712
 30
0.0
 10
325.017803
 20
240.299744
 30
0.0
 10
325.012203
 20
240.615344
 30
0.0
 10
325.005003
 20
240.930592
 30
0.0
 10
324.996443
 20
241.245568
 30
0.0
 10
324.986683
 20
241.560352
 30
0.0
 10
324.975723
 20
241.875032
 30
0.0
 10
326.568499
 20
245.333080
 30
0.0
 10
327.970251
 20
248.891776
 30
0.0
 10
329.174379
 20
252.544736
 30
0.0
 10
330.174331
 20
256.285576
 30
0.0
 10
330.963515
 20
260.107904
 30
0.0
 10
331.535355
 20
264.005352
 30
0.0
 10
331.883283
 20
267.971520
 30
0.0
 10
332.000000
 20
272.000000
 30
0.0
 10
331.758936
 20
277.763072
 30
0.0
 10
331.048728
 20
283.391424
 30
0.0
 10
329.888824
 20
288.866184
 30
0.0
 10
328.298688
 20
294.168448
 30
0.0
 10
326.297784
 20
299.279352
 30
0.0
 10
323.905560
 20
304.180000
 30
0.0
 10
321.141480
 20
308.851512
 30
0.0
 10
318.025000
 20
313.275000
 30
0.0
 10
318.049480
 20
313.737992
 30
0.0
 10
318.072600
 20
314.201688
 30
0.0
 10
318.093800
 20
314.666104
 30
0.0
 10
318.112440
 20
315.131264
 30
0.0
 10
318.127960
 20
315.597208
 30
0.0
 10
318.139800
 20
316.063960
 30
0.0
 10
318.147000
 20
316.531552
 30
0.0
 10
318.149400
 20
317.000000
 30
0.0
 10
317.257744
 20
328.037824
 30
0.0
 10
314.676456
 20
338.507808
 30
0.0
 10
310.546024
 20
348.269728
 30
0.0
 10
305.006960
 20
357.183344
 30
0.0
 10
298.199768
 20
365.108416
 30
0.0
 10
290.264936
 20
371.904712
 30
0.0
 10
281.342984
 20
377.431982
 30
0.0
 10
271.574400
 20
381.550000
 30
0.0
 10
266.665424
 20
388.612173
 30
0.0
 10
260.925752
 20
394.985807
 30
0.0
 10
254.432728
 20
400.592898
 30
0.0
 10
247.263696
 20
405.355439
 30
0.0
 10
239.496008
 20
409.195426
 30
0.0
 10
231.207600
 20
412.034852
 30
0.0
 10
222.474616
 20
413.795712
 30
0.0
 10
213.375000
 20
414.400000
 30
0.0
 10
212.677712
 20
414.396320
 30
0.0
 10
211.982592
 20
414.385464
 30
0.0
 10
211.289504
 20
414.367504
 30
0.0
 10
210.598312
 20
414.342552
 30
0.0
 10
209.908904
 20
414.310712
 30
0.0
 10
209.221136
 20
414.272096
 30
0.0
 10
208.534872
 20
414.226808
 30
0.0
 10
207.850000
 20
414.174960
 30
0.0
 10
204.665584
 20
415.483215
 30
0.0
 10
201.403112
 20
416.632690
 30
0.0
 10
198.067248
 20
417.618558
 30
0.0
 10
194.662640
 20
418.435998
 30
0.0
 10
191.193952
 20
419.080182
 30
0.0
 10
187.665840
 20
419.546286
 30
0.0
 10
184.082968
 20
419.829487
 30
0.0
 10
180.450000
 20
419.925000
 30
0.0
  0
LWPOLYLINE
  5
101
100
AcDbEntity
  8
0
 62
7
100
AcDbPolyline
 90
33
 70
0
 10
180.450000
 20
411.925000
 30
0.0
 10
181.885008
 20
411.907056
 30
0.0
 10
183.311464
 20
411.853880
 30
0.0
 10
184.729096
 20
411.766450
 30
0.0
 10
186.137616
 20
411.645755
 30
0.0
 10
187.536744
 20
411.492779
 30
0.0
 10
188.926208
 20
411.308506
 30
0.0
 10
190.305720
 20
411.093919
 30
0.0
 10
191.675000
 20
410.850005
 30
0.0
 10
188.301488
 20
409.612838
 30
0.0
 10
185.013960
 20
408.204501
 30
0.0
 10
181.817864
 20
406.630618
 30
0.0
 10
178.718664
 20
404.896818
 30
0.0
 10
175.721816
 20
403.008730
 30
0.0
 10
172.832784
 20
400.971979
 30
0.0
 10
170.057032
 20
398.792195
 30
0.0
 10
167.400000
 20
396.475005
 30
0.0
 10
165.218168
 20
397.559360
 30
0.0
 10
162.992824
 20
398.569026
 30
0.0
 10
160.725728
 20
399.501618
 30
0.0
 10
158.418608
 20
400.354751
 30
0.0
 10
156.073232
 20
401.126042
 30
0.0
 10
153.691344
 20
401.813103
 30
0.0
 10
151.274680
 20
402.413553
 30
0.0
 10
148.825000
 20
402.925005
 30
0.0
 10
152.344592
 20
404.951092
 30
0.0
 10
156.008336
 20
406.740122
 30
0.0
 10
159.806104
 20
408.281898
 30
0.0
 10
163.727736
 20
409.566221
 30
0.0
 10
167.763088
 20
410.582891
 30
0.0
 10
171.902016
 20
411.321710
 30
0.0
 10
176.134368
 20
411.772482
 30
0.0
 10
180.450000
 20
411.925000
 30
0.0
  0
LWPOLYLINE
  5
102
100
AcDbEntity
  8
0
 62
7
100
AcDbPolyline
 90
33
 70
0
 10
206.450000
 20
406.000000
 30
0.0
 10
210.363432
 20
403.932621
 30
0.0
 10
214.100376
 20
401.591483
 30
0.0
 10
217.647160
 20
398.990056
 30
0.0
 10
220.990104
 20
396.141808
 30
0.0
 10
224.115528
 20
393.060210
 30
0.0
 10
227.009776
 20
389.758729
 30
0.0
 10
229.659152
 20
386.250836
 30
0.0
 10
232.050000
 20
382.550000
 30
0.0
 10
227.265200
 20
381.038302
 30
0.0
 10
222.642184
 20
379.190275
 30
0.0
 10
218.194752
 20
377.020400
 30
0.0
 10
213.936728
 20
374.543152
 30
0.0
 10
209.881920
 20
371.773008
 30
0.0
 10
206.044160
 20
368.724456
 30
0.0
 10
202.437248
 20
365.411960
 30
0.0
 10
199.075000
 20
361.850000
 30
0.0
 10
197.015840
 20
366.392888
 30
0.0
 10
194.640728
 20
370.749480
 30
0.0
 10
191.964312
 20
374.905464
 30
0.0
 10
189.001224
 20
378.846514
 30
0.0
 10
185.766104
 20
382.558311
 30
0.0
 10
182.273600
 20
386.026538
 30
0.0
 10
178.538352
 20
389.236874
 30
0.0
 10
174.575000
 20
392.175000
 30
0.0
 10
177.976192
 20
394.855582
 30
0.0
 10
181.570528
 20
397.289374
 30
0.0
 10
185.344744
 20
399.463708
 30
0.0
 10
189.285584
 20
401.365910
 30
0.0
 10
193.379784
 20
402.983312
 30
0.0
 10
197.614096
 20
404.303241
 30
0.0
 10
201.975248
 20
405.313027
 30
0.0
 10
206.450000
 20
406.000000
 30
0.0
  0
LWPOLYLINE
  5
103
100
AcDbEntity
  8
0
 62
7
100
AcDbPolyline
 90
33
 70
0
 10
221.950000
 20
405.775000
 30
0.0
 10
227.574168
 20
404.692074
 30
0.0
 10
232.998696
 20
403.099376
 30
0.0
 10
238.197176
 20
401.023012
 30
0.0
 10
243.143224
 20
398.489091
 30
0.0
 10
247.810432
 20
395.523721
 30
0.0
 10
252.172392
 20
392.153010
 30
0.0
 10
256.202720
 20
388.403067
 30
0.0
 10
259.875000
 20
384.300000
 30
0.0
 10
258.679880
 20
384.460935
 30
0.0
 10
257.479008
 20
384.601655
 30
0.0
 10
256.272320
 20
384.721776
 30
0.0
 10
255.059776
 20
384.820916
 30
0.0
 10
253.841320
 20
384.898692
 30
0.0
 10
252.616912
 20
384.954724
 30
0.0
 10
251.386488
 20
384.988620
 30
0.0
 10
250.150000
 20
385.000004
 30
0.0
 10
248.894376
 20
384.989188
 30
0.0
 10
247.644752
 20
384.956676
 30
0.0
 10
246.401168
 20
384.902356
 30
0.0
 10
245.163664
 20
384.826124
 30
0.0
 10
243.932256
 20
384.727879
 30
0.0
 10
242.706984
 20
384.607514
 30
0.0
 10
241.487888
 20
384.464923
 30
0.0
 10
240.275000
 20
384.300000
 30
0.0
 10
238.490208
 20
387.392174
 30
0.0
 10
236.548720
 20
390.377978
 30
0.0
 10
234.456616
 20
393.252339
 30
0.0
 10
232.219984
 20
396.010187
 30
0.0
 10
229.844920
 20
398.646450
 30
0.0
 10
227.337512
 20
401.156054
 30
0.0
 10
224.703840
 20
403.533928
 30
0.0
 10
221.950000
 20
405.775000
 30
0.0
  0
LWPOLYLINE
  5
104
100
AcDbEntity
  8
0
 62
7
100
AcDbPolyline
 90
33
 70
0
 10
139.725000
 20
396.000000
 30
0.0
 10
142.623376
 20
395.757583
 30
0.0
 10
145.479456
 20
395.377662
 30
0.0
 10
148.290520
 20
394.864066
 30
0.0
 10
151.053832
 20
394.220626
 30
0.0
 10
153.766664
 20
393.451169
 30
0.0
 10
156.426288
 20
392.559526
 30
0.0
 10
159.029976
 20
391.549526
 30
0.0
 10
161.575000
 20
390.425000
 30
0.0
 10
159.642840
 20
388.048146
 30
0.0
 10
157.817208
 20
385.584494
 30
0.0
 10
156.101656
 20
383.037532
 30
0.0
 10
154.499760
 20
380.410742
 30
0.0
 10
153.015080
 20
377.707609
 30
0.0
 10
151.651184
 20
374.931616
 30
0.0
 10
150.411640
 20
372.086256
 30
0.0
 10
149.300000
 20
369.175000
 30
0.0
 10
146.662080
 20
370.693240
 30
0.0
 10
143.951136
 20
372.095240
 30
0.0
 10
141.170720
 20
373.377584
 30
0.0
 10
138.324344
 20
374.536864
 30
0.0
 10
135.415552
 20
375.569656
 30
0.0
 10
132.447880
 20
376.472556
 30
0.0
 10
129.424848
 20
377.242142
 30
0.0
 10
126.350000
 20
377.875000
 30
0.0
 10
127.644736
 20
380.413688
 30
0.0
 10
129.053760
 20
382.882410
 30
0.0
 10
130.573800
 20
385.277140
 30
0.0
 10
132.201592
 20
387.593851
 30
0.0
 10
133.933872
 20
389.828519
 30
0.0
 10
135.767376
 20
391.977117
 30
0.0
 10
137.698840
 20
394.035619
 30
0.0
 10
139.725000
 20
396.000000
 30
0.0
  0
LWPOLYLINE
  5
105
100
AcDbEntity
  8
0
 62
7
100
AcDbPolyline
 90
33
 70
0
 10
128.325000
 20
395.575000
 30
0.0
 10
126.782240
 20
393.666523
 30
0.0
 10
125.307968
 20
391.702802
 30
0.0
 10
123.903968
 20
389.685438
 30
0.0
 10
122.572000
 20
387.616033
 30
0.0
 10
121.313848
 20
385.496185
 30
0.0
 10
120.131288
 20
383.327497
 30
0.0
 10
119.026080
 20
381.111568
 30
0.0
 10
118.000000
 20
378.850000
 30
0.0
 10
117.518448
 20
378.876080
 30
0.0
 10
117.036168
 20
378.899960
 30
0.0
 10
116.553120
 20
378.921248
 30
0.0
 10
116.069264
 20
378.939544
 30
0.0
 10
115.584560
 20
378.954464
 30
0.0
 10
115.098976
 20
378.965608
 30
0.0
 10
114.612472
 20
378.972568
 30
0.0
 10
114.125000
 20
378.974968
 30
0.0
 10
110.969896
 20
378.902800
 30
0.0
 10
107.852368
 20
378.688473
 30
0.0
 10
104.775344
 20
378.335252
 30
0.0
 10
101.741736
 20
377.846400
 30
0.0
 10
98.754472
 20
377.225181
 30
0.0
 10
95.816488
 20
376.474860
 30
0.0
 10
92.930688
 20
375.598703
 30
0.0
 10
90.100000
 20
374.599967
 30
0.0
 10
93.822304
 20
378.652986
 30
0.0
 10
97.899712
 20
382.348546
 30
0.0
 10
102.305496
 20
385.660928
 30
0.0
 10
107.012944
 20
388.564412
 30
0.0
 10
111.995336
 20
391.033278
 30
0.0
 10
117.225960
 20
393.041806
 30
0.0
 10
122.678080
 20
394.564276
 30
0.0
 10
128.325000
 20
395.575000
 30
0.0
  0
LWPOLYLINE
  5
106
100
AcDbEntity
  8
0
 62
7
100
AcDbPolyline
 90
65
 70
0
 10
168.700000
 20
386.475000
 30
0.0
 10
172.896488
 20
383.493226
 30
0.0
 10
176.815256
 20
380.172108
 30
0.0
 10
180.434936
 20
376.532733
 30
0.0
 10
183.734200
 20
372.596184
 30
0.0
 10
186.691680
 20
368.383552
 30
0.0
 10
189.286040
 20
363.915920
 30
0.0
 10
191.495936
 20
359.214376
 30
0.0
 10
193.300000
 20
354.300000
 30
0.0
 10
190.799688
 20
350.187296
 30
0.0
 10
188.587864
 20
345.890632
 30
0.0
 10
186.678376
 20
341.423448
 30
0.0
 10
185.085048
 20
336.799176
 30
0.0
 10
183.821712
 20
332.031264
 30
0.0
 10
182.902208
 20
327.133144
 30
0.0
 10
182.340360
 20
322.118240
 30
0.0
 10
182.150000
 20
317.000000
 30
0.0
 10
182.184560
 20
314.840552
 30
0.0
 10
182.287256
 20
312.697864
 30
0.0
 10
182.456584
 20
310.572936
 30
0.0
 10
182.691040
 20
308.466784
 30
0.0
 10
182.989104
 20
306.380400
 30
0.0
 10
183.349288
 20
304.314808
 30
0.0
 10
183.770088
 20
302.271008
 30
0.0
 10
184.249992
 20
300.250000
 30
0.0
 10
183.838776
 20
299.704688
 30
0.0
 10
183.422160
 20
299.164096
 30
0.0
 10
182.999976
 20
298.628312
 30
0.0
 10
182.572072
 20
298.097448
 30
0.0
 10
182.138280
 20
297.571584
 30
0.0
 10
181.698448
 20
297.050824
 30
0.0
 10
181.252400
 20
296.535264
 30
0.0
 10
180.799992
 20
296.025000
 30
0.0
 10
180.763352
 20
296.047880
 30
0.0
 10
180.725912
 20
296.069880
 30
0.0
 10
180.687992
 20
296.091240
 30
0.0
 10
180.649832
 20
296.112360
 30
0.0
 10
180.611672
 20
296.133480
 30
0.0
 10
180.573832
 20
296.154920
 30
0.0
 10
180.536552
 20
296.177000
 30
0.0
 10
180.500072
 20
296.200040
 30
0.0
 10
180.872856
 20
297.993184
 30
0.0
 10
181.199144
 20
299.802608
 30
0.0
 10
181.477944
 20
301.627856
 30
0.0
 10
181.708272
 20
303.468448
 30
0.0
 10
181.889136
 20
305.323928
 30
0.0
 10
182.019552
 20
307.193832
 30
0.0
 10
182.098512
 20
309.077688
 30
0.0
 10
182.125072
 20
310.975040
 30
0.0
 10
181.656696
 20
318.989248
 30
0.0
 10
180.287064
 20
326.727352
 30
0.0
 10
178.069432
 20
334.136984
 30
0.0
 10
175.057048
 20
341.165760
 30
0.0
 10
171.303168
 20
347.761328
 30
0.0
 10
166.861048
 20
353.871312
 30
0.0
 10
161.783928
 20
359.443336
 30
0.0
 10
156.125072
 20
364.425040
 30
0.0
 10
157.179688
 20
367.487056
 30
0.0
 10
158.391688
 20
370.471808
 30
0.0
 10
159.756272
 20
373.374232
 30
0.0
 10
161.268640
 20
376.189299
 30
0.0
 10
162.924000
 20
378.911958
 30
0.0
 10
164.717552
 20
381.537165
 30
0.0
 10
166.644512
 20
384.059874
 30
0.0
 10
168.700000
 20
386.475000
 30
0.0
  0
LWPOLYLINE
  5
107
100
AcDbEntity
  8
0
 62
7
100
AcDbPolyline
 90
65
 70
0
 10
250.150000
 20
377.000000
 30
0.0
 10
252.229536
 20
376.963680
 30
0.0
 10
254.291312
 20
376.855833
 30
0.0
 10
256.334176
 20
376.678124
 30
0.0
 10
258.356992
 20
376.432222
 30
0.0
 10
260.358624
 20
376.119791
 30
0.0
 10
262.337936
 20
375.742503
 30
0.0
 10
264.293768
 20
375.302015
 30
0.0
 10
266.225000
 20
374.799999
 30
0.0
 10
267.839320
 20
371.573567
 30
0.0
 10
269.262808
 20
368.240487
 30
0.0
 10
270.487952
 20
364.807847
 30
0.0
 10
271.507216
 20
361.282759
 30
0.0
 10
272.313080
 20
357.672335
 30
0.0
 10
272.898016
 20
353.983655
 30
0.0
 10
273.254504
 20
350.223847
 30
0.0
 10
273.375000
 20
346.399999
 30
0.0
 10
273.367800
 20
345.512167
 30
0.0
 10
273.346360
 20
344.628591
 30
0.0
 10
273.311240
 20
343.748975
 30
0.0
 10
273.263080
 20
342.873023
 30
0.0
 10
273.202360
 20
342.000439
 30
0.0
 10
273.129560
 20
341.130943
 30
0.0
 10
273.045288
 20
340.264223
 30
0.0
 10
272.950064
 20
339.399999
 30
0.0
 10
271.848120
 20
339.536631
 30
0.0
 10
270.741656
 20
339.656639
 30
0.0
 10
269.630528
 20
339.759519
 30
0.0
 10
268.514600
 20
339.844791
 30
0.0
 10
267.393728
 20
339.911991
 30
0.0
 10
266.267776
 20
339.960551
 30
0.0
 10
265.136600
 20
339.990071
 30
0.0
 10
264.000000
 20
340.000000
 30
0.0
 10
261.807552
 20
339.964960
 30
0.0
 10
259.632024
 20
339.860616
 30
0.0
 10
257.474584
 20
339.688240
 30
0.0
 10
255.336416
 20
339.449104
 30
0.0
 10
253.218696
 20
339.144456
 30
0.0
 10
251.122600
 20
338.775552
 30
0.0
 10
249.049312
 20
338.343656
 30
0.0
 10
247.000000
 20
337.850024
 30
0.0
 10
247.336880
 20
339.561024
 30
0.0
 10
247.630024
 20
341.286816
 30
0.0
 10
247.879056
 20
343.026920
 30
0.0
 10
248.083632
 20
344.780840
 30
0.0
 10
248.243368
 20
346.548096
 30
0.0
 10
248.357920
 20
348.328208
 30
0.0
 10
248.426960
 20
350.120672
 30
0.0
 10
248.450000
 20
351.925024
 30
0.0
 10
248.373280
 20
355.181696
 30
0.0
 10
248.145376
 20
358.398368
 30
0.0
 10
247.769832
 20
361.571768
 30
0.0
 10
247.250136
 20
364.698616
 30
0.0
 10
246.589800
 20
367.775648
 30
0.0
 10
245.792336
 20
370.799576
 30
0.0
 10
244.861240
 20
373.767128
 30
0.0
 10
243.800024
 20
376.675024
 30
0.0
 10
244.584856
 20
376.752224
 30
0.0
 10
245.371856
 20
376.818720
 30
0.0
 10
246.161224
 20
376.874640
 30
0.0
 10
246.953136
 20
376.920112
 30
0.0
 10
247.747792
 20
376.955264
 30
0.0
 10
248.545360
 20
376.980216
 30
0.0
 10
249.346048
 20
376.995096
 30
0.0
 10
250.150000
 20
377.000000
 30
0.0
  0
LWPOLYLINE
  5
108
100
AcDbEntity
  8
0
 62
7
100
AcDbPolyline
 90
65
 70
0
 10
235.750000
 20
375.225000
 30
0.0
 10
236.819744
 20
372.505776
 30
0.0
 10
237.759496
 20
369.724008
 30
0.0
 10
238.565360
 20
366.883360
 30
0.0
 10
239.233440
 20
363.987488
 30
0.0
 10
239.759840
 20
361.040056
 30
0.0
 10
240.140664
 20
358.044720
 30
0.0
 10
240.372016
 20
355.005152
 30
0.0
 10
240.450016
 20
351.925000
 30
0.0
 10
240.408576
 20
349.706608
 30
0.0
 10
240.285608
 20
347.508600
 30
0.0
 10
240.083152
 20
345.332344
 30
0.0
 10
239.803256
 20
343.179200
 30
0.0
 10
239.447952
 20
341.050536
 30
0.0
 10
239.019280
 20
338.947704
 30
0.0
 10
238.519288
 20
336.872072
 30
0.0
 10
237.950016
 20
334.825000
 30
0.0
 10
231.555168
 20
331.768800
 30
0.0
 10
225.550248
 20
328.086808
 30
0.0
 10
219.977496
 20
323.821368
 30
0.0
 10
214.879168
 20
319.014840
 30
0.0
 10
210.297504
 20
313.709584
 30
0.0
 10
206.274760
 20
307.947952
 30
0.0
 10
202.853184
 20
301.772304
 30
0.0
 10
200.075016
 20
295.225000
 30
0.0
 10
199.432648
 20
295.007608
 30
0.0
 10
198.787264
 20
294.798712
 30
0.0
 10
198.138824
 20
294.597896
 30
0.0
 10
197.487320
 20
294.404720
 30
0.0
 10
196.832712
 20
294.218768
 30
0.0
 10
196.174976
 20
294.039616
 30
0.0
 10
195.514088
 20
293.866832
 30
0.0
 10
194.850016
 20
293.700000
 30
0.0
 10
194.590480
 20
294.325816
 30
0.0
 10
194.338456
 20
294.954840
 30
0.0
 10
194.093784
 20
295.587136
 30
0.0
 10
193.856296
 20
296.222768
 30
0.0
 10
193.625832
 20
296.861808
 30
0.0
 10
193.402240
 20
297.504320
 30
0.0
 10
193.185352
 20
298.150360
 30
0.0
 10
192.975016
 20
298.800000
 30
0.0
 10
195.475328
 20
302.912704
 30
0.0
 10
197.687152
 20
307.209368
 30
0.0
 10
199.596640
 20
311.676552
 30
0.0
 10
201.189968
 20
316.300824
 30
0.0
 10
202.453304
 20
321.068736
 30
0.0
 10
203.372808
 20
325.966864
 30
0.0
 10
203.934656
 20
330.981760
 30
0.0
 10
204.125016
 20
336.100000
 30
0.0
 10
204.090456
 20
338.259448
 30
0.0
 10
203.987760
 20
340.402136
 30
0.0
 10
203.818432
 20
342.527064
 30
0.0
 10
203.583976
 20
344.633216
 30
0.0
 10
203.285912
 20
346.719600
 30
0.0
 10
202.925728
 20
348.785192
 30
0.0
 10
202.504928
 20
350.828992
 30
0.0
 10
202.025024
 20
352.850000
 30
0.0
 10
205.261696
 20
356.821920
 30
0.0
 10
208.820744
 20
360.498560
 30
0.0
 10
212.680824
 20
363.859704
 30
0.0
 10
216.820608
 20
366.885120
 30
0.0
 10
221.218760
 20
369.554584
 30
0.0
 10
225.853936
 20
371.847872
 30
0.0
 10
230.704808
 20
373.744752
 30
0.0
 10
235.750000
 20
375.225000
 30
0.0
  0
LWPOLYLINE
  5
109
100
AcDbEntity
  8
0
 62
7
100
AcDbPolyline
 90
73
 70
0
 10
114.125000
 20
370.975000
 30
0.0
 10
114.253360
 20
370.974200
 30
0.0
 10
114.381648
 20
370.971800
 30
0.0
 10
114.509864
 20
370.968600
 30
0.0
 10
114.638008
 20
370.964600
 30
0.0
 10
114.766096
 20
370.960600
 30
0.0
 10
114.894120
 20
370.956600
 30
0.0
 10
115.022088
 20
370.953400
 30
0.0
 10
115.150000
 20
370.951000
 30
0.0
 10
114.530104
 20
368.671360
 30
0.0
 10
113.987736
 20
366.360392
 30
0.0
 10
113.524464
 20
364.019696
 30
0.0
 10
113.141872
 20
361.650856
 30
0.0
 10
112.841552
 20
359.255480
 30
0.0
 10
112.625080
 20
356.835144
 30
0.0
 10
112.494032
 20
354.391456
 30
0.0
 10
112.450032
 20
351.926000
 30
0.0
 10
112.497952
 20
349.341632
 30
0.0
 10
112.640640
 20
346.781304
 30
0.0
 10
112.876544
 20
344.246832
 30
0.0
 10
113.204120
 20
341.740032
 30
0.0
 10
113.621816
 20
339.262728
 30
0.0
 10
114.128072
 20
336.816744
 30
0.0
 10
114.721336
 20
334.403896
 30
0.0
 10
115.400048
 20
332.026000
 30
0.0
 10
114.043192
 20
332.234520
 30
0.0
 10
112.678448
 20
332.416192
 30
0.0
 10
111.305816
 20
332.570736
 30
0.0
 10
109.925320
 20
332.697840
 30
0.0
 10
108.536984
 20
332.797216
 30
0.0
 10
107.140816
 20
332.868576
 30
0.0
 10
105.736832
 20
332.911616
 30
0.0
 10
104.325048
 20
332.926016
 30
0.0
 10
100.674176
 20
332.829816
 30
0.0
 10
97.073896
 20
332.544408
 30
0.0
 10
93.528936
 20
332.074560
 30
0.0
 10
90.044048
 20
331.425056
 30
0.0
 10
86.623976
 20
330.600672
 30
0.0
 10
83.273456
 20
329.606184
 30
0.0
 10
79.997234
 20
328.446376
 30
0.0
 10
76.800000
 20
327.125040
 30
0.0
 10
76.644554
 20
328.227160
 30
0.0
 10
76.508739
 20
329.334704
 30
0.0
 10
76.392892
 20
330.447784
 30
0.0
 10
76.297351
 20
331.566504
 30
0.0
 10
76.222455
 20
332.690984
 30
0.0
 10
76.168535
 20
333.821328
 30
0.0
 10
76.135935
 20
334.957640
 30
0.0
 10
76.124991
 20
336.100040
 30
0.0
 10
76.219536
 20
339.483264
 30
0.0
 10
76.499590
 20
342.816208
 30
0.0
 10
76.959787
 20
346.094264
 30
0.0
 10
77.594756
 20
349.312832
 30
0.0
 10
78.399130
 20
352.467304
 30
0.0
 10
79.367539
 20
355.553064
 30
0.0
 10
80.494615
 20
358.565512
 30
0.0
 10
81.774991
 20
361.500040
 30
0.0
 10
85.356991
 20
363.627600
 30
0.0
 10
89.092783
 20
365.508488
 30
0.0
 10
92.971431
 20
367.131304
 30
0.0
 10
96.982007
 20
368.484632
 30
0.0
 10
101.113583
 20
369.557080
 30
0.0
 10
105.355223
 20
370.337232
 30
0.0
 10
109.696007
 20
370.813688
 30
0.0
 10
114.124991
 20
370.975040
 30
0.0
 10
114.124991
 20
370.975032
 30
0.0
 10
114.124991
 20
370.975032
 30
0.0
 10
114.124991
 20
370.975024
 30
0.0
 10
114.124991
 20
370.975016
 30
0.0
 10
114.124991
 20
370.975016
 30
0.0
 10
114.124991
 20
370.975008
 30
0.0
 10
114.124991
 20
370.975008
 30
0.0
 10
114.125000
 20
370.975000
 30
0.0
  0
LWPOLYLINE
  5
10a
100
AcDbEntity
  8
0
 62
7
100
AcDbPolyline
 90
33
 70
0
 10
276.900000
 20
370.700000
 30
0.0
 10
283.486320
 20
366.870848
 30
0.0
 10
289.507744
 20
362.264080
 30
0.0
 10
294.895544
 20
356.948104
 30
0.0
 10
299.581008
 20
350.991352
 30
0.0
 10
303.495400
 20
344.462240
 30
0.0
 10
306.570016
 20
337.429192
 30
0.0
 10
308.736120
 20
329.960640
 30
0.0
 10
309.925000
 20
322.125000
 30
0.0
 10
306.794312
 20
324.826112
 30
0.0
 10
303.502968
 20
327.337200
 30
0.0
 10
300.059336
 20
329.649112
 30
0.0
 10
296.471800
 20
331.752672
 30
0.0
 10
292.748720
 20
333.638704
 30
0.0
 10
288.898480
 20
335.298048
 30
0.0
 10
284.929448
 20
336.721536
 30
0.0
 10
280.850000
 20
337.900000
 30
0.0
 10
280.972480
 20
338.947392
 30
0.0
 10
281.078848
 20
339.998888
 30
0.0
 10
281.169048
 20
341.054608
 30
0.0
 10
281.242968
 20
342.114640
 30
0.0
 10
281.300568
 20
343.179088
 30
0.0
 10
281.341848
 20
344.248064
 30
0.0
 10
281.366648
 20
345.321672
 30
0.0
 10
281.374968
 20
346.400000
 30
0.0
 10
281.301208
 20
349.593472
 30
0.0
 10
281.082136
 20
352.748536
 30
0.0
 10
280.721024
 20
355.862112
 30
0.0
 10
280.221160
 20
358.931120
 30
0.0
 10
279.585840
 20
361.952496
 30
0.0
 10
278.818344
 20
364.923152
 30
0.0
 10
277.921952
 20
367.840008
 30
0.0
 10
276.900000
 20
370.700000
 30
0.0
  0
LWPOLYLINE
  5
10b
100
AcDbEntity
  8
0
 62
7
100
AcDbPolyline
 90
65
 70
0
 10
123.325000
 20
370.275000
 30
0.0
 10
126.533768
 20
369.690688
 30
0.0
 10
129.681360
 20
368.938560
 30
0.0
 10
132.762752
 20
368.023504
 30
0.0
 10
135.772888
 20
366.950392
 30
0.0
 10
138.706720
 20
365.724104
 30
0.0
 10
141.559216
 20
364.349528
 30
0.0
 10
144.325320
 20
362.831528
 30
0.0
 10
147.000000
 20
361.175000
 30
0.0
 10
146.627216
 20
359.381856
 30
0.0
 10
146.300928
 20
357.572432
 30
0.0
 10
146.022128
 20
355.747184
 30
0.0
 10
145.791800
 20
353.906592
 30
0.0
 10
145.610936
 20
352.051112
 30
0.0
 10
145.480520
 20
350.181208
 30
0.0
 10
145.401560
 20
348.297352
 30
0.0
 10
145.375000
 20
346.400000
 30
0.0
 10
145.843376
 20
338.385784
 30
0.0
 10
147.213008
 20
330.647680
 30
0.0
 10
149.430640
 20
323.238056
 30
0.0
 10
152.443024
 20
316.209272
 30
0.0
 10
156.196904
 20
309.613712
 30
0.0
 10
160.639024
 20
303.503728
 30
0.0
 10
165.716144
 20
297.931704
 30
0.0
 10
171.375000
 20
292.950000
 30
0.0
 10
171.361080
 20
292.908640
 30
0.0
 10
171.345720
 20
292.867920
 30
0.0
 10
171.329480
 20
292.827600
 30
0.0
 10
171.312760
 20
292.787440
 30
0.0
 10
171.295960
 20
292.747280
 30
0.0
 10
171.279640
 20
292.706960
 30
0.0
 10
171.264200
 20
292.666240
 30
0.0
 10
171.250040
 20
292.624960
 30
0.0
 10
170.579664
 20
292.732656
 30
0.0
 10
169.910800
 20
292.848744
 30
0.0
 10
169.243824
 20
292.972832
 30
0.0
 10
168.579096
 20
293.104544
 30
0.0
 10
167.916992
 20
293.243504
 30
0.0
 10
167.257864
 20
293.389312
 30
0.0
 10
166.602096
 20
293.541592
 30
0.0
 10
165.950040
 20
293.699960
 30
0.0
 10
162.623560
 20
299.939192
 30
0.0
 10
158.688536
 20
305.771168
 30
0.0
 10
154.187416
 20
311.153272
 30
0.0
 10
149.162600
 20
316.042920
 30
0.0
 10
143.656536
 20
320.397512
 30
0.0
 10
137.711632
 20
324.174448
 30
0.0
 10
131.370328
 20
327.331128
 30
0.0
 10
124.675040
 20
329.824960
 30
0.0
 10
123.714352
 20
332.418776
 30
0.0
 10
122.870016
 20
335.066600
 30
0.0
 10
122.145648
 20
337.765536
 30
0.0
 10
121.544880
 20
340.512664
 30
0.0
 10
121.071312
 20
343.305080
 30
0.0
 10
120.728576
 20
346.139872
 30
0.0
 10
120.520280
 20
349.014136
 30
0.0
 10
120.450040
 20
351.924960
 30
0.0
 10
120.497480
 20
354.313776
 30
0.0
 10
120.638304
 20
356.678896
 30
0.0
 10
120.870392
 20
359.018600
 30
0.0
 10
121.191616
 20
361.331128
 30
0.0
 10
121.599824
 20
363.614768
 30
0.0
 10
122.092896
 20
365.867776
 30
0.0
 10
122.668688
 20
368.088416
 30
0.0
 10
123.325000
 20
370.275000
 30
0.0
  0
LWPOLYLINE
  5
10c
100
AcDbEntity
  8
0
 62
7
100
AcDbPolyline
 90
33
 70
0
 10
154.100000
 20
355.725000
 30
0.0
 10
158.489208
 20
351.377016
 30
0.0
 10
162.414024
 20
346.598344
 30
0.0
 10
165.837200
 20
341.426360
 30
0.0
 10
168.721496
 20
335.898448
 30
0.0
 10
171.029664
 20
330.051984
 30
0.0
 10
172.724464
 20
323.924328
 30
0.0
 10
173.768656
 20
317.552880
 30
0.0
 10
174.125000
 20
310.975000
 30
0.0
 10
174.113320
 20
309.787352
 30
0.0
 10
174.078520
 20
308.606072
 30
0.0
 10
174.020920
 20
307.431136
 30
0.0
 10
173.940728
 20
306.262488
 30
0.0
 10
173.838256
 20
305.100088
 30
0.0
 10
173.713784
 20
303.943904
 30
0.0
 10
173.567600
 20
302.793888
 30
0.0
 10
173.399992
 20
301.650000
 30
0.0
 10
169.010784
 20
305.997984
 30
0.0
 10
165.085968
 20
310.776656
 30
0.0
 10
161.662792
 20
315.948640
 30
0.0
 10
158.778496
 20
321.476552
 30
0.0
 10
156.470328
 20
327.323016
 30
0.0
 10
154.775528
 20
333.450672
 30
0.0
 10
153.731336
 20
339.822120
 30
0.0
 10
153.374992
 20
346.400000
 30
0.0
 10
153.386672
 20
347.587648
 30
0.0
 10
153.421472
 20
348.768928
 30
0.0
 10
153.479072
 20
349.943864
 30
0.0
 10
153.559264
 20
351.112512
 30
0.0
 10
153.661736
 20
352.274912
 30
0.0
 10
153.786208
 20
353.431096
 30
0.0
 10
153.932392
 20
354.581112
 30
0.0
 10
154.100000
 20
355.725000
 30
0.0
  0
LWPOLYLINE
  5
10d
100
AcDbEntity
  8
0
 62
7
100
AcDbPolyline
 90
41
 70
0
 10
69.900000
 20
351.525000
 30
0.0
 10
69.493366
 20
349.656328
 30
0.0
 10
69.137222
 20
347.769512
 30
0.0
 10
68.832718
 20
345.865136
 30
0.0
 10
68.581003
 20
343.943768
 30
0.0
 10
68.383225
 20
342.005984
 30
0.0
 10
68.240533
 20
340.052384
 30
0.0
 10
68.154074
 20
338.083528
 30
0.0
 10
68.125002
 20
336.100000
 30
0.0
 10
68.144810
 20
334.452904
 30
0.0
 10
68.203850
 20
332.816248
 30
0.0
 10
68.301552
 20
331.190216
 30
0.0
 10
68.437345
 20
329.574960
 30
0.0
 10
68.610658
 20
327.970648
 30
0.0
 10
68.820919
 20
326.377440
 30
0.0
 10
69.067558
 20
324.795504
 30
0.0
 10
69.350003
 20
323.225000
 30
0.0
 10
67.251508
 20
321.911256
 30
0.0
 10
65.205093
 20
320.525248
 30
0.0
 10
63.212628
 20
319.068472
 30
0.0
 10
61.275982
 20
317.542416
 30
0.0
 10
59.397027
 20
315.948552
 30
0.0
 10
57.577633
 20
314.288376
 30
0.0
 10
55.819668
 20
312.563360
 30
0.0
 10
54.125003
 20
310.775000
 30
0.0
 10
54.124941
 20
310.800040
 30
0.0
 10
54.124911
 20
310.825000
 30
0.0
 10
54.124907
 20
310.849960
 30
0.0
 10
54.124922
 20
310.874920
 30
0.0
 10
54.124946
 20
310.899880
 30
0.0
 10
54.124973
 20
310.924840
 30
0.0
 10
54.124994
 20
310.949880
 30
0.0
 10
54.125003
 20
310.974920
 30
0.0
 10
54.400986
 20
316.768152
 30
0.0
 10
55.212076
 20
322.405016
 30
0.0
 10
56.532991
 20
327.860192
 30
0.0
 10
58.338447
 20
333.108368
 30
0.0
 10
60.603160
 20
338.124240
 30
0.0
 10
63.301846
 20
342.882496
 30
0.0
 10
66.409222
 20
347.357832
 30
0.0
 10
69.900000
 20
351.525000
 30
0.0
  0
LWPOLYLINE
  5
10e
100
AcDbEntity
  8
0
 62
7
100
AcDbPolyline
 90
33
 70
0
 10
195.800000
 20
342.400000
 30
0.0
 10
195.876240
 20
341.621216
 30
0.0
 10
195.942240
 20
340.840344
 30
0.0
 10
195.998080
 20
340.057184
 30
0.0
 10
196.043760
 20
339.271528
 30
0.0
 10
196.079280
 20
338.483184
 30
0.0
 10
196.104640
 20
337.691944
 30
0.0
 10
196.119840
 20
336.897616
 30
0.0
 10
196.124640
 20
336.100000
 30
0.0
 10
196.030096
 20
332.716776
 30
0.0
 10
195.750040
 20
329.383832
 30
0.0
 10
195.289848
 20
326.105776
 30
0.0
 10
194.654872
 20
322.887208
 30
0.0
 10
193.850504
 20
319.732736
 30
0.0
 10
192.882088
 20
316.646976
 30
0.0
 10
191.755016
 20
313.634528
 30
0.0
 10
190.474640
 20
310.700000
 30
0.0
 10
190.398400
 20
311.478784
 30
0.0
 10
190.332400
 20
312.259656
 30
0.0
 10
190.276560
 20
313.042816
 30
0.0
 10
190.230880
 20
313.828472
 30
0.0
 10
190.195360
 20
314.616816
 30
0.0
 10
190.170000
 20
315.408056
 30
0.0
 10
190.154800
 20
316.202384
 30
0.0
 10
190.150000
 20
317.000000
 30
0.0
 10
190.244544
 20
320.383224
 30
0.0
 10
190.524600
 20
323.716168
 30
0.0
 10
190.984792
 20
326.994224
 30
0.0
 10
191.619768
 20
330.212792
 30
0.0
 10
192.424136
 20
333.367264
 30
0.0
 10
193.392552
 20
336.453024
 30
0.0
 10
194.519624
 20
339.465472
 30
0.0
 10
195.800000
 20
342.400000
 30
0.0
  0
LWPOLYLINE
  5
10f
100
AcDbEntity
  8
0
 62
7
100
AcDbPolyline
 90
65
 70
0
 10
264.000000
 20
332.000000
 30
0.0
 10
264.952072
 20
331.992000
 30
0.0
 10
265.899464
 20
331.968800
 30
0.0
 10
266.842448
 20
331.930560
 30
0.0
 10
267.781264
 20
331.877600
 30
0.0
 10
268.716168
 20
331.810240
 30
0.0
 10
269.647424
 20
331.728752
 30
0.0
 10
270.575288
 20
331.633488
 30
0.0
 10
271.500000
 20
331.524744
 30
0.0
 10
270.537056
 20
328.162760
 30
0.0
 10
269.387304
 20
324.884856
 30
0.0
 10
268.056720
 20
321.697120
 30
0.0
 10
266.551256
 20
318.605672
 30
0.0
 10
264.876896
 20
315.616608
 30
0.0
 10
263.039584
 20
312.736024
 30
0.0
 10
261.045296
 20
309.970040
 30
0.0
 10
258.900000
 20
307.324744
 30
0.0
 10
258.665904
 20
307.330344
 30
0.0
 10
258.431952
 20
307.335144
 30
0.0
 10
258.198032
 20
307.339144
 30
0.0
 10
257.964032
 20
307.342344
 30
0.0
 10
257.729848
 20
307.344744
 30
0.0
 10
257.495352
 20
307.346344
 30
0.0
 10
257.260440
 20
307.347144
 30
0.0
 10
257.025000
 20
307.347520
 30
0.0
 10
249.929256
 20
306.980576
 30
0.0
 10
243.045728
 20
305.904376
 30
0.0
 10
236.410120
 20
304.155880
 30
0.0
 10
230.058120
 20
301.772048
 30
0.0
 10
224.025408
 20
298.789840
 30
0.0
 10
218.347696
 20
295.246208
 30
0.0
 10
213.060664
 20
291.178112
 30
0.0
 10
208.200000
 20
286.622520
 30
0.0
 10
207.907232
 20
286.648520
 30
0.0
 10
207.615472
 20
286.676200
 30
0.0
 10
207.324520
 20
286.705560
 30
0.0
 10
207.034176
 20
286.736360
 30
0.0
 10
206.744256
 20
286.768600
 30
0.0
 10
206.454544
 20
286.802120
 30
0.0
 10
206.164864
 20
286.836760
 30
0.0
 10
205.875000
 20
286.872520
 30
0.0
 10
205.947720
 20
287.152888
 30
0.0
 10
206.022440
 20
287.432424
 30
0.0
 10
206.099000
 20
287.711208
 30
0.0
 10
206.177080
 20
287.989360
 30
0.0
 10
206.256440
 20
288.266960
 30
0.0
 10
206.336888
 20
288.544128
 30
0.0
 10
206.418160
 20
288.820944
 30
0.0
 10
206.500016
 20
289.097520
 30
0.0
 10
212.894864
 20
292.153720
 30
0.0
 10
218.899784
 20
295.835712
 30
0.0
 10
224.472536
 20
300.101152
 30
0.0
 10
229.570864
 20
304.907680
 30
0.0
 10
234.152528
 20
310.212936
 30
0.0
 10
238.175272
 20
315.974568
 30
0.0
 10
241.596848
 20
322.150216
 30
0.0
 10
244.375016
 20
328.697520
 30
0.0
 10
246.702248
 20
329.450456
 30
0.0
 10
249.069520
 20
330.111152
 30
0.0
 10
251.474800
 20
330.677088
 30
0.0
 10
253.916040
 20
331.145760
 30
0.0
 10
256.391224
 20
331.514656
 30
0.0
 10
258.898296
 20
331.781264
 30
0.0
 10
261.435240
 20
331.943064
 30
0.0
 10
264.000000
 20
332.000000
 30
0.0
  0
LWPOLYLINE
  5
110
100
AcDbEntity
  8
0
 62
7
100
AcDbPolyline
 90
33
 70
0
 10
279.375000
 20
330.000000
 30
0.0
 10
283.825656
 20
328.635984
 30
0.0
 10
288.121296
 20
326.944328
 30
0.0
 10
292.247376
 20
324.939504
 30
0.0
 10
296.189336
 20
322.636008
 30
0.0
 10
299.932632
 20
320.048320
 30
0.0
 10
303.462712
 20
317.190936
 30
0.0
 10
306.765016
 20
314.078328
 30
0.0
 10
309.825000
 20
310.725000
 30
0.0
 10
309.454248
 20
307.850312
 30
0.0
 10
308.947608
 20
305.019904
 30
0.0
 10
308.309032
 20
302.237032
 30
0.0
 10
307.542448
 20
299.504968
 30
0.0
 10
306.651816
 20
296.826968
 30
0.0
 10
305.641072
 20
294.206296
 30
0.0
 10
304.514152
 20
291.646224
 30
0.0
 10
303.275000
 20
289.150000
 30
0.0
 10
299.591224
 20
292.337784
 30
0.0
 10
295.684728
 20
295.262312
 30
0.0
 10
291.569464
 20
297.908288
 30
0.0
 10
287.259392
 20
300.260432
 30
0.0
 10
282.768456
 20
302.303456
 30
0.0
 10
278.110608
 20
304.022088
 30
0.0
 10
273.299808
 20
305.401032
 30
0.0
 10
268.350000
 20
306.425000
 30
0.0
 10
270.196040
 20
309.087744
 30
0.0
 10
271.917272
 20
311.838776
 30
0.0
 10
273.509256
 20
314.674536
 30
0.0
 10
274.967552
 20
317.591480
 30
0.0
 10
276.287712
 20
320.586048
 30
0.0
 10
277.465296
 20
323.654696
 30
0.0
 10
278.495872
 20
326.793864
 30
0.0
 10
279.375000
 20
330.000000
 30
0.0
  0
LWPOLYLINE
  5
111
100
AcDbEntity
  8
0
 62
7
100
AcDbPolyline
 90
73
 70
0
 10
104.325000
 20
324.925000
 30
0.0
 10
106.192744
 20
324.895960
 30
0.0
 10
108.046528
 20
324.809616
 30
0.0
 10
109.885440
 20
324.667056
 30
0.0
 10
111.708568
 20
324.469408
 30
0.0
 10
113.515000
 20
324.217760
 30
0.0
 10
115.303824
 20
323.913240
 30
0.0
 10
117.074128
 20
323.556944
 30
0.0
 10
118.825000
 20
323.149992
 30
0.0
 10
122.151480
 20
316.910760
 30
0.0
 10
126.086504
 20
311.078784
 30
0.0
 10
130.587624
 20
305.696680
 30
0.0
 10
135.612440
 20
300.807032
 30
0.0
 10
141.118504
 20
296.452440
 30
0.0
 10
147.063408
 20
292.675504
 30
0.0
 10
153.404712
 20
289.518824
 30
0.0
 10
160.100000
 20
287.024992
 30
0.0
 10
160.346112
 20
286.395024
 30
0.0
 10
160.585584
 20
285.762504
 30
0.0
 10
160.818272
 20
285.127192
 30
0.0
 10
161.044032
 20
284.488832
 30
0.0
 10
161.262728
 20
283.847176
 30
0.0
 10
161.474216
 20
283.201984
 30
0.0
 10
161.678352
 20
282.553008
 30
0.0
 10
161.875000
 20
281.899992
 30
0.0
 10
161.256296
 20
281.609768
 30
0.0
 10
160.634192
 20
281.326600
 30
0.0
 10
160.008592
 20
281.050488
 30
0.0
 10
159.379416
 20
280.781400
 30
0.0
 10
158.746560
 20
280.519320
 30
0.0
 10
158.109936
 20
280.264240
 30
0.0
 10
157.469440
 20
280.016136
 30
0.0
 10
156.825000
 20
279.774992
 30
0.0
 10
152.934336
 20
281.923608
 30
0.0
 10
148.894736
 20
283.821360
 30
0.0
 10
144.716392
 20
285.457280
 30
0.0
 10
140.409480
 20
286.820376
 30
0.0
 10
135.984200
 20
287.899680
 30
0.0
 10
131.450736
 20
288.684200
 30
0.0
 10
126.819272
 20
289.162960
 30
0.0
 10
122.100000
 20
289.324992
 30
0.0
 10
121.879176
 20
289.325600
 30
0.0
 10
121.657120
 20
289.327200
 30
0.0
 10
121.434288
 20
289.328800
 30
0.0
 10
121.211168
 20
289.330400
 30
0.0
 10
120.988208
 20
289.331200
 30
0.0
 10
120.765880
 20
289.330936
 30
0.0
 10
120.544656
 20
289.329336
 30
0.0
 10
120.325000
 20
289.325336
 30
0.0
 10
118.006544
 20
289.226992
 30
0.0
 10
115.708552
 20
289.050976
 30
0.0
 10
113.432344
 20
288.798824
 30
0.0
 10
111.179280
 20
288.472096
 30
0.0
 10
108.950672
 20
288.072336
 30
0.0
 10
106.747864
 20
287.601088
 30
0.0
 10
104.572200
 20
287.059904
 30
0.0
 10
102.425000
 20
286.450336
 30
0.0
 10
98.306056
 20
289.516440
 30
0.0
 10
94.470528
 20
292.915864
 30
0.0
 10
90.939232
 20
296.627432
 30
0.0
 10
87.732984
 20
300.629928
 30
0.0
 10
84.872616
 20
304.902160
 30
0.0
 10
82.378952
 20
309.422944
 30
0.0
 10
80.272808
 20
314.171064
 30
0.0
 10
78.575000
 20
319.125336
 30
0.0
 10
81.544240
 20
320.441472
 30
0.0
 10
84.594688
 20
321.599304
 30
0.0
 10
87.721376
 20
322.593528
 30
0.0
 10
90.919344
 20
323.418856
 30
0.0
 10
94.183656
 20
324.070000
 30
0.0
 10
97.509336
 20
324.541656
 30
0.0
 10
100.891432
 20
324.828536
 30
0.0
 10
104.325000
 20
324.925000
 30
0.0
  0
LWPOLYLINE
  5
112
100
AcDbEntity
  8
0
 62
7
100
AcDbPolyline
 90
17
 70
0
 10
233.325000
 20
323.575000
 30
0.0
 10
231.272664
 20
320.047712
 30
0.0
 10
228.992952
 20
316.677200
 30
0.0
 10
226.496304
 20
313.474240
 30
0.0
 10
223.793184
 20
310.449616
 30
0.0
 10
220.894040
 20
307.614104
 30
0.0
 10
217.809328
 20
304.978480
 30
0.0
 10
214.549496
 20
302.553520
 30
0.0
 10
211.125000
 20
300.350000
 30
0.0
 10
213.177336
 20
303.877288
 30
0.0
 10
215.457048
 20
307.247800
 30
0.0
 10
217.953696
 20
310.450760
 30
0.0
 10
220.656816
 20
313.475384
 30
0.0
 10
223.555960
 20
316.310896
 30
0.0
 10
226.640672
 20
318.946520
 30
0.0
 10
229.900504
 20
321.371480
 30
0.0
 10
233.325000
 20
323.575000
 30
0.0
  0
LWPOLYLINE
  5
113
100
AcDbEntity
  8
0
 62
7
100
AcDbPolyline
 90
17
 70
0
 10
130.275000
 20
319.025000
 30
0.0
 10
133.905600
 20
317.124224
 30
0.0
 10
137.385552
 20
314.988328
 30
0.0
 10
140.704120
 20
312.627824
 30
0.0
 10
143.850552
 20
310.053264
 30
0.0
 10
146.814096
 20
307.275168
 30
0.0
 10
149.584024
 20
304.304072
 30
0.0
 10
152.149568
 20
301.150504
 30
0.0
 10
154.500000
 20
297.825000
 30
0.0
 10
150.869400
 20
299.725776
 30
0.0
 10
147.389448
 20
301.861672
 30
0.0
 10
144.070880
 20
304.222176
 30
0.0
 10
140.924448
 20
306.796736
 30
0.0
 10
137.960904
 20
309.574832
 30
0.0
 10
135.190976
 20
312.545928
 30
0.0
 10
132.625432
 20
315.699496
 30
0.0
 10
130.275000
 20
319.025000
 30
0.0
  0
LWPOLYLINE
  5
114
100
AcDbEntity
  8
0
 62
7
100
AcDbPolyline
 90
33
 70
0
 10
71.425000
 20
315.100000
 30
0.0
 10
73.144457
 20
310.403408
 30
0.0
 10
75.193749
 20
305.876168
 30
0.0
 10
77.557856
 20
301.532664
 30
0.0
 10
80.221760
 20
297.387296
 30
0.0
 10
83.170448
 20
293.454456
 30
0.0
 10
86.388896
 20
289.748528
 30
0.0
 10
89.862088
 20
286.283912
 30
0.0
 10
93.575000
 20
283.075000
 30
0.0
 10
90.616880
 20
281.617440
 30
0.0
 10
87.741776
 20
280.023872
 30
0.0
 10
84.953992
 20
278.298208
 30
0.0
 10
82.257808
 20
276.444336
 30
0.0
 10
79.657522
 20
274.466176
 30
0.0
 10
77.157430
 20
272.367632
 30
0.0
 10
74.761826
 20
270.152608
 30
0.0
 10
72.475000
 20
267.825000
 30
0.0
 10
69.344738
 20
271.081000
 30
0.0
 10
66.464255
 20
274.563472
 30
0.0
 10
63.848254
 20
278.258320
 30
0.0
 10
61.511436
 20
282.151448
 30
0.0
 10
59.468501
 20
286.228776
 30
0.0
 10
57.734149
 20
290.476200
 30
0.0
 10
56.323082
 20
294.879640
 30
0.0
 10
55.250000
 20
299.425000
 30
0.0
 10
56.936239
 20
301.704232
 30
0.0
 10
58.725048
 20
303.899304
 30
0.0
 10
60.613089
 20
306.006600
 30
0.0
 10
62.597026
 20
308.022504
 30
0.0
 10
64.673522
 20
309.943408
 30
0.0
 10
66.839240
 20
311.765704
 30
0.0
 10
69.090846
 20
313.485768
 30
0.0
 10
71.425000
 20
315.100000
 30
0.0
  0
LWPOLYLINE
  5
115
100
AcDbEntity
  8
0
 62
7
100
AcDbPolyline
 90
33
 70
0
 10
316.325000
 20
301.350000
 30
0.0
 10
318.055656
 20
298.034464
 30
0.0
 10
319.582640
 20
294.602408
 30
0.0
 10
320.897608
 20
291.061616
 30
0.0
 10
321.992208
 20
287.419912
 30
0.0
 10
322.858096
 20
283.685096
 30
0.0
 10
323.486920
 20
279.864968
 30
0.0
 10
323.870336
 20
275.967336
 30
0.0
 10
324.000000
 20
272.000000
 30
0.0
 10
323.972960
 20
270.225144
 30
0.0
 10
323.892776
 20
268.463176
 30
0.0
 10
323.760872
 20
266.714760
 30
0.0
 10
323.578656
 20
264.980600
 30
0.0
 10
323.347544
 20
263.261360
 30
0.0
 10
323.068952
 20
261.557720
 30
0.0
 10
322.744304
 20
259.870376
 30
0.0
 10
322.375000
 20
258.200000
 30
0.0
 10
321.285856
 20
261.633616
 30
0.0
 10
320.021680
 20
264.984256
 30
0.0
 10
318.588080
 20
268.247088
 30
0.0
 10
316.990672
 20
271.417272
 30
0.0
 10
315.235056
 20
274.489992
 30
0.0
 10
313.326832
 20
277.460400
 30
0.0
 10
311.271608
 20
280.323680
 30
0.0
 10
309.075000
 20
283.075000
 30
0.0
 10
310.256864
 20
285.210856
 30
0.0
 10
311.363552
 20
287.392464
 30
0.0
 10
312.393264
 20
289.618160
 30
0.0
 10
313.344232
 20
291.886296
 30
0.0
 10
314.214664
 20
294.195200
 30
0.0
 10
315.002792
 20
296.543224
 30
0.0
 10
315.706832
 20
298.928712
 30
0.0
 10
316.325000
 20
301.350000
 30
0.0
  0
LWPOLYLINE
  5
116
100
AcDbEntity
  8
0
 62
7
100
AcDbPolyline
 90
73
 70
0
 10
262.200000
 20
299.125000
 30
0.0
 10
267.485864
 20
298.435336
 30
0.0
 10
272.616808
 20
297.296648
 30
0.0
 10
277.572312
 20
295.729736
 30
0.0
 10
282.331856
 20
293.755408
 30
0.0
 10
286.874920
 20
291.394472
 30
0.0
 10
291.180984
 20
288.667720
 30
0.0
 10
295.229512
 20
285.595960
 30
0.0
 10
299.000000
 20
282.200000
 30
0.0
 10
295.843960
 20
278.152568
 30
0.0
 10
292.361616
 20
274.393440
 30
0.0
 10
288.573672
 20
270.943720
 30
0.0
 10
284.500840
 20
267.824520
 30
0.0
 10
280.163848
 20
265.056936
 30
0.0
 10
275.583400
 20
262.662088
 30
0.0
 10
270.780216
 20
260.661072
 30
0.0
 10
265.775000
 20
259.075000
 30
0.0
 10
261.465240
 20
261.945792
 30
0.0
 10
256.934232
 20
264.489808
 30
0.0
 10
252.198464
 20
266.689768
 30
0.0
 10
247.274408
 20
268.528440
 30
0.0
 10
242.178560
 20
269.988552
 30
0.0
 10
236.927384
 20
271.052848
 30
0.0
 10
231.537368
 20
271.704088
 30
0.0
 10
226.025000
 20
271.925000
 30
0.0
 10
224.253608
 20
271.902680
 30
0.0
 10
222.493680
 20
271.835960
 30
0.0
 10
220.745664
 20
271.725256
 30
0.0
 10
219.010016
 20
271.570928
 30
0.0
 10
217.287176
 20
271.373360
 30
0.0
 10
215.577600
 20
271.132920
 30
0.0
 10
213.881720
 20
270.850008
 30
0.0
 10
212.200000
 20
270.524984
 30
0.0
 10
211.677704
 20
270.957688
 30
0.0
 10
211.161560
 20
271.396640
 30
0.0
 10
210.651224
 20
271.841640
 30
0.0
 10
210.146360
 20
272.292472
 30
0.0
 10
209.646640
 20
272.748936
 30
0.0
 10
209.151736
 20
273.210816
 30
0.0
 10
208.661296
 20
273.677896
 30
0.0
 10
208.175000
 20
274.149984
 30
0.0
 10
208.571280
 20
274.700248
 30
0.0
 10
208.972368
 20
275.246560
 30
0.0
 10
209.378624
 20
275.788632
 30
0.0
 10
209.790408
 20
276.326160
 30
0.0
 10
210.208080
 20
276.858856
 30
0.0
 10
210.632000
 20
277.386424
 30
0.0
 10
211.062520
 20
277.908560
 30
0.0
 10
211.500000
 20
278.424984
 30
0.0
 10
211.734096
 20
278.419384
 30
0.0
 10
211.968048
 20
278.414584
 30
0.0
 10
212.201968
 20
278.410584
 30
0.0
 10
212.435968
 20
278.407384
 30
0.0
 10
212.670152
 20
278.404984
 30
0.0
 10
212.904648
 20
278.403384
 30
0.0
 10
213.139560
 20
278.402584
 30
0.0
 10
213.375000
 20
278.402208
 30
0.0
 10
220.470744
 20
278.769152
 30
0.0
 10
227.354272
 20
279.845352
 30
0.0
 10
233.989880
 20
281.593848
 30
0.0
 10
240.341880
 20
283.977680
 30
0.0
 10
246.374592
 20
286.959888
 30
0.0
 10
252.052304
 20
290.503520
 30
0.0
 10
257.339336
 20
294.571616
 30
0.0
 10
262.200000
 20
299.127208
 30
0.0
 10
262.200000
 20
299.127200
 30
0.0
 10
262.200000
 20
299.127200
 30
0.0
 10
262.200000
 20
299.127192
 30
0.0
 10
262.200000
 20
299.127192
 30
0.0
 10
262.200000
 20
299.127184
 30
0.0
 10
262.200000
 20
299.127176
 30
0.0
 10
262.200000
 20
299.127176
 30
0.0
 10
262.200000
 20
299.125000
 30
0.0
  0
LWPOLYLINE
  5
117
100
AcDbEntity
  8
0
 62
7
100
AcDbPolyline
 90
17
 70
0
 10
250.050000
 20
298.950000
 30
0.0
 10
246.815352
 20
296.612392
 30
0.0
 10
243.424352
 20
294.487392
 30
0.0
 10
239.886912
 20
292.585672
 30
0.0
 10
236.212952
 20
290.917912
 30
0.0
 10
232.412368
 20
289.494784
 30
0.0
 10
228.495072
 20
288.326976
 30
0.0
 10
224.470984
 20
287.425152
 30
0.0
 10
220.350000
 20
286.800000
 30
0.0
 10
223.584648
 20
289.137608
 30
0.0
 10
226.975648
 20
291.262608
 30
0.0
 10
230.513088
 20
293.164328
 30
0.0
 10
234.187048
 20
294.832088
 30
0.0
 10
237.987632
 20
296.255216
 30
0.0
 10
241.904928
 20
297.423024
 30
0.0
 10
245.929016
 20
298.324848
 30
0.0
 10
250.050000
 20
298.950000
 30
0.0
  0
LWPOLYLINE
  5
118
100
AcDbEntity
  8
0
 62
7
100
AcDbPolyline
 90
33
 70
0
 10
49.600000
 20
289.475000
 30
0.0
 10
51.058818
 20
285.515408
 30
0.0
 10
52.752639
 20
281.676488
 30
0.0
 10
54.672526
 20
277.966680
 30
0.0
 10
56.809535
 20
274.394432
 30
0.0
 10
59.154728
 20
270.968200
 30
0.0
 10
61.699164
 20
267.696416
 30
0.0
 10
64.433901
 20
264.587536
 30
0.0
 10
67.350000
 20
261.650000
 30
0.0
 10
65.011647
 20
258.270872
 30
0.0
 10
62.876262
 20
254.749128
 30
0.0
 10
60.952302
 20
251.092824
 30
0.0
 10
59.248230
 20
247.310024
 30
0.0
 10
57.772502
 20
243.408784
 30
0.0
 10
56.533582
 20
239.397160
 30
0.0
 10
55.539928
 20
235.283216
 30
0.0
 10
54.800000
 20
231.075000
 30
0.0
 10
52.455474
 20
234.781032
 30
0.0
 10
50.379632
 20
238.663096
 30
0.0
 10
48.586010
 20
242.708192
 30
0.0
 10
47.088146
 20
246.903352
 30
0.0
 10
45.899575
 20
251.235592
 30
0.0
 10
45.033836
 20
255.691936
 30
0.0
 10
44.504465
 20
260.259392
 30
0.0
 10
44.325000
 20
264.925000
 30
0.0
 10
44.413438
 20
268.185720
 30
0.0
 10
44.675314
 20
271.399584
 30
0.0
 10
45.105473
 20
274.562592
 30
0.0
 10
45.698755
 20
277.670760
 30
0.0
 10
46.450006
 20
280.720088
 30
0.0
 10
47.354069
 20
283.706560
 30
0.0
 10
48.405786
 20
286.626200
 30
0.0
 10
49.600000
 20
289.475000
 30
0.0
  0
LWPOLYLINE
  5
119
100
AcDbEntity
  8
0
 62
7
100
AcDbPolyline
 90
113
 70
0
 10
185.975000
 20
284.150000
 30
0.0
 10
186.706624
 20
283.832704
 30
0.0
 10
187.442840
 20
283.523888
 30
0.0
 10
188.183528
 20
283.223560
 30
0.0
 10
188.928584
 20
282.931744
 30
0.0
 10
189.677880
 20
282.648464
 30
0.0
 10
190.431288
 20
282.373728
 30
0.0
 10
191.188704
 20
282.107568
 30
0.0
 10
191.950000
 20
281.850000
 30
0.0
 10
192.436592
 20
281.058080
 30
0.0
 10
192.933064
 20
280.273696
 30
0.0
 10
193.439520
 20
279.496832
 30
0.0
 10
193.956064
 20
278.727488
 30
0.0
 10
194.482776
 20
277.965640
 30
0.0
 10
195.019776
 20
277.211288
 30
0.0
 10
195.567152
 20
276.464408
 30
0.0
 10
196.125000
 20
275.725000
 30
0.0
 10
196.100520
 20
275.262008
 30
0.0
 10
196.077400
 20
274.798312
 30
0.0
 10
196.056200
 20
274.333896
 30
0.0
 10
196.037560
 20
273.868736
 30
0.0
 10
196.022040
 20
273.402792
 30
0.0
 10
196.010200
 20
272.936040
 30
0.0
 10
196.003000
 20
272.468448
 30
0.0
 10
196.000000
 20
272.000000
 30
0.0
 10
196.000800
 20
271.682864
 30
0.0
 10
196.003200
 20
271.366320
 30
0.0
 10
196.007200
 20
271.050288
 30
0.0
 10
196.012800
 20
270.734696
 30
0.0
 10
196.020000
 20
270.419440
 30
0.0
 10
196.028560
 20
270.104464
 30
0.0
 10
196.038320
 20
269.789680
 30
0.0
 10
196.049280
 20
269.475000
 30
0.0
 10
195.704120
 20
268.766056
 30
0.0
 10
195.367920
 20
268.052152
 30
0.0
 10
195.040424
 20
267.333464
 30
0.0
 10
194.721376
 20
266.610184
 30
0.0
 10
194.410496
 20
265.882512
 30
0.0
 10
194.107528
 20
265.150632
 30
0.0
 10
193.812216
 20
264.414728
 30
0.0
 10
193.524280
 20
263.675000
 30
0.0
 10
192.834496
 20
263.293272
 30
0.0
 10
192.149880
 20
262.902952
 30
0.0
 10
191.470408
 20
262.504392
 30
0.0
 10
190.796048
 20
262.097928
 30
0.0
 10
190.126776
 20
261.683912
 30
0.0
 10
189.462576
 20
261.262688
 30
0.0
 10
188.803416
 20
260.834600
 30
0.0
 10
188.149280
 20
260.400000
 30
0.0
 10
187.354648
 20
260.321200
 30
0.0
 10
186.563056
 20
260.234080
 30
0.0
 10
185.774464
 20
260.138408
 30
0.0
 10
184.988800
 20
260.033992
 30
0.0
 10
184.206008
 20
259.920648
 30
0.0
 10
183.426024
 20
259.798160
 30
0.0
 10
182.648808
 20
259.666336
 30
0.0
 10
181.874280
 20
259.524984
 30
0.0
 10
181.191440
 20
259.910832
 30
0.0
 10
180.503256
 20
260.289664
 30
0.0
 10
179.809936
 20
260.661208
 30
0.0
 10
179.111720
 20
261.025184
 30
0.0
 10
178.408824
 20
261.381328
 30
0.0
 10
177.701472
 20
261.729360
 30
0.0
 10
176.989880
 20
262.069008
 30
0.0
 10
176.274280
 20
262.399984
 30
0.0
 10
175.798832
 20
263.018656
 30
0.0
 10
175.315768
 20
263.632928
 30
0.0
 10
174.825400
 20
264.242320
 30
0.0
 10
174.328016
 20
264.846376
 30
0.0
 10
173.823912
 20
265.444632
 30
0.0
 10
173.313392
 20
266.036624
 30
0.0
 10
172.796752
 20
266.621896
 30
0.0
 10
172.274280
 20
267.199984
 30
0.0
 10
172.236840
 20
268.150312
 30
0.0
 10
172.187240
 20
269.096944
 30
0.0
 10
172.125320
 20
270.039888
 30
0.0
 10
172.050840
 20
270.979176
 30
0.0
 10
171.963672
 20
271.914808
 30
0.0
 10
171.863624
 20
272.846808
 30
0.0
 10
171.750528
 20
273.775192
 30
0.0
 10
171.624200
 20
274.699984
 30
0.0
 10
172.037392
 20
275.361232
 30
0.0
 10
172.443704
 20
276.027200
 30
0.0
 10
172.842896
 20
276.697944
 30
0.0
 10
173.234752
 20
277.373512
 30
0.0
 10
173.619040
 20
278.053944
 30
0.0
 10
173.995528
 20
278.739304
 30
0.0
 10
174.363992
 20
279.429632
 30
0.0
 10
174.724200
 20
280.124984
 30
0.0
 10
175.369232
 20
280.575824
 30
0.0
 10
176.008440
 20
281.033240
 30
0.0
 10
176.641864
 20
281.497392
 30
0.0
 10
177.269568
 20
281.968448
 30
0.0
 10
177.891608
 20
282.446568
 30
0.0
 10
178.508016
 20
282.931920
 30
0.0
 10
179.118864
 20
283.424672
 30
0.0
 10
179.724200
 20
283.924984
 30
0.0
 10
179.814992
 20
283.924296
 30
0.0
 10
179.905584
 20
283.923968
 30
0.0
 10
179.996056
 20
283.923928
 30
0.0
 10
180.086472
 20
283.924088
 30
0.0
 10
180.176920
 20
283.924352
 30
0.0
 10
180.267472
 20
283.924648
 30
0.0
 10
180.358208
 20
283.924888
 30
0.0
 10
180.449200
 20
283.924984
 30
0.0
 10
181.146488
 20
283.928984
 30
0.0
 10
181.841608
 20
283.939864
 30
0.0
 10
182.534696
 20
283.957784
 30
0.0
 10
183.225880
 20
283.982744
 30
0.0
 10
183.915296
 20
284.014584
 30
0.0
 10
184.603064
 20
284.053224
 30
0.0
 10
185.289328
 20
284.098504
 30
0.0
 10
185.975000
 20
284.150000
 30
0.0
  0
LWPOLYLINE
  5
11a
100
AcDbEntity
  8
0
 62
7
100
AcDbPolyline
 90
33
 70
0
 10
122.100000
 20
281.325000
 30
0.0
 10
125.127136
 20
281.249400
 30
0.0
 10
128.114928
 20
281.025264
 30
0.0
 10
131.059968
 20
280.656376
 30
0.0
 10
133.958856
 20
280.146584
 30
0.0
 10
136.808208
 20
279.499712
 30
0.0
 10
139.604616
 20
278.719600
 30
0.0
 10
142.344680
 20
277.810072
 30
0.0
 10
145.025000
 20
276.774968
 30
0.0
 10
143.931744
 20
276.621584
 30
0.0
 10
142.833296
 20
276.486736
 30
0.0
 10
141.729504
 20
276.371016
 30
0.0
 10
140.620216
 20
276.275008
 30
0.0
 10
139.505280
 20
276.199328
 30
0.0
 10
138.384536
 20
276.144528
 30
0.0
 10
137.257824
 20
276.111248
 30
0.0
 10
136.125000
 20
276.100048
 30
0.0
 10
133.097864
 20
276.175648
 30
0.0
 10
130.110072
 20
276.399784
 30
0.0
 10
127.165032
 20
276.768672
 30
0.0
 10
124.266144
 20
277.278464
 30
0.0
 10
121.416792
 20
277.925336
 30
0.0
 10
118.620384
 20
278.705448
 30
0.0
 10
115.880320
 20
279.614976
 30
0.0
 10
113.200000
 20
280.650080
 30
0.0
 10
114.293256
 20
280.803464
 30
0.0
 10
115.391704
 20
280.938312
 30
0.0
 10
116.495496
 20
281.054032
 30
0.0
 10
117.604784
 20
281.150040
 30
0.0
 10
118.719720
 20
281.225720
 30
0.0
 10
119.840464
 20
281.280520
 30
0.0
 10
120.967176
 20
281.313800
 30
0.0
 10
122.100000
 20
281.325000
 30
0.0
  0
LWPOLYLINE
  5
11b
100
AcDbEntity
  8
0
 62
7
100
AcDbPolyline
 90
65
 70
0
 10
101.400000
 20
277.650000
 30
0.0
 10
105.290664
 20
275.501384
 30
0.0
 10
109.330264
 20
273.603632
 30
0.0
 10
113.508608
 20
271.967712
 30
0.0
 10
117.815520
 20
270.604616
 30
0.0
 10
122.240800
 20
269.525312
 30
0.0
 10
126.774264
 20
268.740792
 30
0.0
 10
131.405728
 20
268.262032
 30
0.0
 10
136.125000
 20
268.100000
 30
0.0
 10
138.675288
 20
268.146640
 30
0.0
 10
141.202232
 20
268.285688
 30
0.0
 10
143.704072
 20
268.515584
 30
0.0
 10
146.179048
 20
268.834816
 30
0.0
 10
148.625392
 20
269.241880
 30
0.0
 10
151.041336
 20
269.735272
 30
0.0
 10
153.425128
 20
270.313464
 30
0.0
 10
155.775000
 20
270.974960
 30
0.0
 10
156.008768
 20
270.815680
 30
0.0
 10
156.241984
 20
270.655760
 30
0.0
 10
156.474560
 20
270.495056
 30
0.0
 10
156.706424
 20
270.333432
 30
0.0
 10
156.937480
 20
270.170752
 30
0.0
 10
157.167648
 20
270.006880
 30
0.0
 10
157.396848
 20
269.841656
 30
0.0
 10
157.625000
 20
269.674960
 30
0.0
 10
157.425304
 20
269.465560
 30
0.0
 10
157.224632
 20
269.256912
 30
0.0
 10
157.023000
 20
269.049088
 30
0.0
 10
156.820384
 20
268.842160
 30
0.0
 10
156.616776
 20
268.636208
 30
0.0
 10
156.412184
 20
268.431312
 30
0.0
 10
156.206592
 20
268.227536
 30
0.0
 10
156.000000
 20
268.024960
 30
0.0
 10
155.031488
 20
268.129472
 30
0.0
 10
154.059512
 20
268.220424
 30
0.0
 10
153.083984
 20
268.297704
 30
0.0
 10
152.104808
 20
268.361224
 30
0.0
 10
151.121912
 20
268.410824
 30
0.0
 10
150.135200
 20
268.446424
 30
0.0
 10
149.144592
 20
268.467864
 30
0.0
 10
148.150000
 20
268.475064
 30
0.0
 10
141.847800
 20
268.185880
 30
0.0
 10
135.708808
 20
267.335576
 30
0.0
 10
129.757976
 20
265.950048
 30
0.0
 10
124.020272
 20
264.055176
 30
0.0
 10
118.520656
 20
261.676856
 30
0.0
 10
113.284096
 20
258.840968
 30
0.0
 10
108.335560
 20
255.573408
 30
0.0
 10
103.700000
 20
251.900064
 30
0.0
 10
100.258560
 20
252.607792
 30
0.0
 10
96.891328
 20
253.507928
 30
0.0
 10
93.604632
 20
254.594696
 30
0.0
 10
90.404768
 20
255.862288
 30
0.0
 10
87.298056
 20
257.304920
 30
0.0
 10
84.290816
 20
258.916784
 30
0.0
 10
81.389360
 20
260.692096
 30
0.0
 10
78.600000
 20
262.625064
 30
0.0
 10
81.026608
 20
265.039624
 30
0.0
 10
83.586528
 20
267.313888
 30
0.0
 10
86.273592
 20
269.441360
 30
0.0
 10
89.081624
 20
271.415576
 30
0.0
 10
92.004456
 20
273.230032
 30
0.0
 10
95.035912
 20
274.878256
 30
0.0
 10
98.169816
 20
276.353760
 30
0.0
 10
101.400000
 20
277.650000
 30
0.0
  0
LWPOLYLINE
  5
11c
100
AcDbEntity
  8
0
 62
7
100
AcDbPolyline
 90
33
 70
0
 10
304.450000
 20
276.075000
 30
0.0
 10
306.973736
 20
272.568728
 30
0.0
 10
309.246344
 20
268.880448
 30
0.0
 10
311.254728
 20
265.022584
 30
0.0
 10
312.985800
 20
261.007584
 30
0.0
 10
314.426448
 20
256.847888
 30
0.0
 10
315.563600
 20
252.555928
 30
0.0
 10
316.384152
 20
248.144152
 30
0.0
 10
316.875000
 20
243.625000
 30
0.0
 10
314.641952
 20
239.815640
 30
0.0
 10
312.143632
 20
236.192384
 30
0.0
 10
309.393288
 20
232.768432
 30
0.0
 10
306.404176
 20
229.556976
 30
0.0
 10
303.189544
 20
226.571208
 30
0.0
 10
299.762640
 20
223.824328
 30
0.0
 10
296.136704
 20
221.329528
 30
0.0
 10
292.325000
 20
219.100000
 30
0.0
 10
291.022240
 20
223.963856
 30
0.0
 10
289.374480
 20
228.675640
 30
0.0
 10
287.396584
 20
233.221464
 30
0.0
 10
285.103408
 20
237.587432
 30
0.0
 10
282.509800
 20
241.759656
 30
0.0
 10
279.630624
 20
245.724256
 30
0.0
 10
276.480744
 20
249.467328
 30
0.0
 10
273.075000
 20
252.975000
 30
0.0
 10
277.711984
 20
254.832344
 30
0.0
 10
282.174376
 20
257.013464
 30
0.0
 10
286.447312
 20
259.503632
 30
0.0
 10
290.515928
 20
262.288128
 30
0.0
 10
294.365368
 20
265.352240
 30
0.0
 10
297.980760
 20
268.681232
 30
0.0
 10
301.347264
 20
272.260392
 30
0.0
 10
304.450000
 20
276.075000
 30
0.0
  0
LWPOLYLINE
  5
11d
100
AcDbEntity
  8
0
 62
7
100
AcDbPolyline
 90
33
 70
0
 10
226.025000
 20
263.925000
 30
0.0
 10
229.752096
 20
263.810752
 30
0.0
 10
233.418464
 20
263.472576
 30
0.0
 10
237.017552
 20
262.917336
 30
0.0
 10
240.542832
 20
262.151880
 30
0.0
 10
243.987752
 20
261.183056
 30
0.0
 10
247.345784
 20
260.017736
 30
0.0
 10
250.610384
 20
258.662768
 30
0.0
 10
253.775000
 20
257.125000
 30
0.0
 10
253.325240
 20
257.099160
 30
0.0
 10
252.874280
 20
257.075400
 30
0.0
 10
252.422224
 20
257.054120
 30
0.0
 10
251.969216
 20
257.035800
 30
0.0
 10
251.515360
 20
257.020760
 30
0.0
 10
251.060792
 20
257.009480
 30
0.0
 10
250.605632
 20
257.002280
 30
0.0
 10
250.150000
 20
256.999880
 30
0.0
 10
246.422904
 20
257.114128
 30
0.0
 10
242.756536
 20
257.452304
 30
0.0
 10
239.157448
 20
258.007544
 30
0.0
 10
235.632168
 20
258.773008
 30
0.0
 10
232.187248
 20
259.741824
 30
0.0
 10
228.829216
 20
260.907144
 30
0.0
 10
225.564616
 20
262.262112
 30
0.0
 10
222.400000
 20
263.800000
 30
0.0
 10
222.849760
 20
263.825840
 30
0.0
 10
223.300720
 20
263.849600
 30
0.0
 10
223.752776
 20
263.870880
 30
0.0
 10
224.205784
 20
263.889200
 30
0.0
 10
224.659640
 20
263.904240
 30
0.0
 10
225.114208
 20
263.915520
 30
0.0
 10
225.569368
 20
263.922720
 30
0.0
 10
226.025000
 20
263.925000
 30
0.0
  0
LWPOLYLINE
  5
11e
100
AcDbEntity
  8
0
 62
7
100
AcDbPolyline
 90
65
 70
0
 10
210.400000
 20
261.850000
 30
0.0
 10
214.709760
 20
258.979208
 30
0.0
 10
219.240768
 20
256.435192
 30
0.0
 10
223.976536
 20
254.235232
 30
0.0
 10
228.900592
 20
252.396560
 30
0.0
 10
233.996440
 20
250.936448
 30
0.0
 10
239.247616
 20
249.872152
 30
0.0
 10
244.637632
 20
249.220912
 30
0.0
 10
250.150000
 20
249.000000
 30
0.0
 10
251.921392
 20
249.022320
 30
0.0
 10
253.681320
 20
249.089040
 30
0.0
 10
255.429336
 20
249.199744
 30
0.0
 10
257.164984
 20
249.354072
 30
0.0
 10
258.887824
 20
249.551640
 30
0.0
 10
260.597400
 20
249.792080
 30
0.0
 10
262.293280
 20
250.074992
 30
0.0
 10
263.975000
 20
250.400016
 30
0.0
 10
267.788672
 20
247.003456
 30
0.0
 10
271.299632
 20
243.298160
 30
0.0
 10
274.487184
 20
239.304976
 30
0.0
 10
277.330664
 20
235.044736
 30
0.0
 10
279.809368
 20
230.538280
 30
0.0
 10
281.902616
 20
225.806448
 30
0.0
 10
283.589720
 20
220.870080
 30
0.0
 10
284.850000
 20
215.750016
 30
0.0
 10
282.389520
 20
214.897080
 30
0.0
 10
279.882688
 20
214.147552
 30
0.0
 10
277.331848
 20
213.504608
 30
0.0
 10
274.739368
 20
212.971432
 30
0.0
 10
272.107584
 20
212.551208
 30
0.0
 10
269.438864
 20
212.247112
 30
0.0
 10
266.735552
 20
212.062320
 30
0.0
 10
264.000000
 20
212.000000
 30
0.0
 10
263.464704
 20
212.002400
 30
0.0
 10
262.930536
 20
212.009600
 30
0.0
 10
262.397504
 20
212.021520
 30
0.0
 10
261.865632
 20
212.038160
 30
0.0
 10
261.334928
 20
212.059360
 30
0.0
 10
260.805416
 20
212.085120
 30
0.0
 10
260.277096
 20
212.115360
 30
0.0
 10
259.750000
 20
212.150000
 30
0.0
 10
256.355344
 20
221.145344
 30
0.0
 10
251.775936
 20
229.482288
 30
0.0
 10
246.115448
 20
237.057216
 30
0.0
 10
239.477536
 20
243.766504
 30
0.0
 10
231.965872
 20
249.506552
 30
0.0
 10
223.684112
 20
254.173720
 30
0.0
 10
214.735936
 20
257.664416
 30
0.0
 10
205.225000
 20
259.875000
 30
0.0
 10
205.217800
 20
259.912040
 30
0.0
 10
205.211400
 20
259.949480
 30
0.0
 10
205.205800
 20
259.987160
 30
0.0
 10
205.200200
 20
260.024920
 30
0.0
 10
205.194600
 20
260.062680
 30
0.0
 10
205.189000
 20
260.100360
 30
0.0
 10
205.182600
 20
260.137800
 30
0.0
 10
205.175400
 20
260.174920
 30
0.0
 10
205.817960
 20
260.409360
 30
0.0
 10
206.463056
 20
260.636904
 30
0.0
 10
207.110944
 20
260.857408
 30
0.0
 10
207.761840
 20
261.070752
 30
0.0
 10
208.416000
 20
261.276808
 30
0.0
 10
209.073656
 20
261.475440
 30
0.0
 10
209.735040
 20
261.666520
 30
0.0
 10
210.400000
 20
261.850000
 30
0.0
  0
LWPOLYLINE
  5
11f
100
AcDbEntity
  8
0
 62
7
100
AcDbPolyline
 90
17
 70
0
 10
146.450000
 20
260.425000
 30
0.0
 10
143.044736
 20
258.398672
 30
0.0
 10
139.499816
 20
256.597432
 30
0.0
 10
135.824656
 20
255.030360
 30
0.0
 10
132.028688
 20
253.706528
 30
0.0
 10
128.121320
 20
252.635000
 30
0.0
 10
124.111968
 20
251.824856
 30
0.0
 10
120.010056
 20
251.285160
 30
0.0
 10
115.825000
 20
251.025000
 30
0.0
 10
119.230264
 20
253.051328
 30
0.0
 10
122.775184
 20
254.852568
 30
0.0
 10
126.450344
 20
256.419640
 30
0.0
 10
130.246312
 20
257.743472
 30
0.0
 10
134.153680
 20
258.815000
 30
0.0
 10
138.163032
 20
259.625144
 30
0.0
 10
142.264944
 20
260.164840
 30
0.0
 10
146.450000
 20
260.425000
 30
0.0
  0
LWPOLYLINE
  5
120
100
AcDbEntity
  8
0
 62
7
100
AcDbPolyline
 90
65
 70
0
 10
158.575000
 20
259.550000
 30
0.0
 10
159.258944
 20
259.426240
 30
0.0
 10
159.940928
 20
259.295104
 30
0.0
 10
160.620648
 20
259.156520
 30
0.0
 10
161.297816
 20
259.010440
 30
0.0
 10
161.972128
 20
258.856808
 30
0.0
 10
162.643296
 20
258.695560
 30
0.0
 10
163.311016
 20
258.526640
 30
0.0
 10
163.975000
 20
258.350000
 30
0.0
 10
163.896440
 20
257.674240
 30
0.0
 10
163.808792
 20
256.999640
 30
0.0
 10
163.712640
 20
256.326640
 30
0.0
 10
163.608584
 20
255.655632
 30
0.0
 10
163.497208
 20
254.987056
 30
0.0
 10
163.379096
 20
254.321312
 30
0.0
 10
163.254840
 20
253.658816
 30
0.0
 10
163.125016
 20
253.000000
 30
0.0
 10
157.055168
 20
249.415176
 30
0.0
 10
151.411160
 20
245.240904
 30
0.0
 10
146.235144
 20
240.519280
 30
0.0
 10
141.569264
 20
235.292424
 30
0.0
 10
137.455664
 20
229.602456
 30
0.0
 10
133.936488
 20
223.491488
 30
0.0
 10
131.053888
 20
217.001632
 30
0.0
 10
128.850016
 20
210.175000
 30
0.0
 10
126.004072
 20
208.984312
 30
0.0
 10
123.087160
 20
207.936584
 30
0.0
 10
120.103376
 20
207.036672
 30
0.0
 10
117.056824
 20
206.289464
 30
0.0
 10
113.951608
 20
205.699816
 30
0.0
 10
110.791832
 20
205.272608
 30
0.0
 10
107.581600
 20
205.012712
 30
0.0
 10
104.325016
 20
204.925000
 30
0.0
 10
102.279352
 20
204.959960
 30
0.0
 10
100.250736
 20
205.063752
 30
0.0
 10
98.240272
 20
205.234936
 30
0.0
 10
96.249112
 20
205.472040
 30
0.0
 10
94.278376
 20
205.773576
 30
0.0
 10
92.329200
 20
206.138072
 30
0.0
 10
90.402704
 20
206.564048
 30
0.0
 10
88.500016
 20
207.050032
 30
0.0
 10
89.311272
 20
212.302960
 30
0.0
 10
90.567824
 20
217.395632
 30
0.0
 10
92.248552
 20
222.307320
 30
0.0
 10
94.332304
 20
227.017272
 30
0.0
 10
96.797968
 20
231.504760
 30
0.0
 10
99.624392
 20
235.749048
 30
0.0
 10
102.790456
 20
239.729384
 30
0.0
 10
106.275016
 20
243.425032
 30
0.0
 10
107.243528
 20
243.320520
 30
0.0
 10
108.215504
 20
243.229568
 30
0.0
 10
109.191032
 20
243.152288
 30
0.0
 10
110.170208
 20
243.088768
 30
0.0
 10
111.153104
 20
243.039168
 30
0.0
 10
112.139816
 20
243.003568
 30
0.0
 10
113.130424
 20
242.982128
 30
0.0
 10
114.125016
 20
242.974928
 30
0.0
 10
120.427216
 20
243.264112
 30
0.0
 10
126.566208
 20
244.114416
 30
0.0
 10
132.517040
 20
245.499944
 30
0.0
 10
138.254744
 20
247.394816
 30
0.0
 10
143.754360
 20
249.773136
 30
0.0
 10
148.990920
 20
252.609024
 30
0.0
 10
153.939456
 20
255.876584
 30
0.0
 10
158.575000
 20
259.550000
 30
0.0
  0
LWPOLYLINE
  5
121
100
AcDbEntity
  8
0
 62
7
100
AcDbPolyline
 90
33
 70
0
 10
73.475000
 20
256.450000
 30
0.0
 10
76.117032
 20
254.572880
 30
0.0
 10
78.849394
 20
252.822048
 30
0.0
 10
81.668232
 20
251.201192
 30
0.0
 10
84.569712
 20
249.713968
 30
0.0
 10
87.549976
 20
248.364064
 30
0.0
 10
90.605176
 20
247.155152
 30
0.0
 10
93.731464
 20
246.090904
 30
0.0
 10
96.925000
 20
245.175000
 30
0.0
 10
93.860968
 20
241.404616
 30
0.0
 10
91.066672
 20
237.418096
 30
0.0
 10
88.556576
 20
233.229552
 30
0.0
 10
86.345128
 20
228.853072
 30
0.0
 10
84.446792
 20
224.302776
 30
0.0
 10
82.876024
 20
219.592768
 30
0.0
 10
81.647272
 20
214.737136
 30
0.0
 10
80.775000
 20
209.750000
 30
0.0
 10
78.183357
 20
210.930480
 30
0.0
 10
75.658610
 20
212.227024
 30
0.0
 10
73.204512
 20
213.636608
 30
0.0
 10
70.824812
 20
215.156232
 30
0.0
 10
68.523260
 20
216.782888
 30
0.0
 10
66.303607
 20
218.513576
 30
0.0
 10
64.169604
 20
220.345280
 30
0.0
 10
62.125000
 20
222.275000
 30
0.0
 10
62.383590
 20
227.010696
 30
0.0
 10
63.001513
 20
231.641320
 30
0.0
 10
63.964841
 20
236.153144
 30
0.0
 10
65.259643
 20
240.532448
 30
0.0
 10
66.871990
 20
244.765512
 30
0.0
 10
68.787951
 20
248.838608
 30
0.0
 10
70.993598
 20
252.738008
 30
0.0
 10
73.475000
 20
256.450000
 30
0.0
  0
LWPOLYLINE
  5
122
100
AcDbEntity
  8
0
 62
7
100
AcDbPolyline
 90
73
 70
0
 10
198.500000
 20
252.575000
 30
0.0
 10
198.540880
 20
252.571800
 30
0.0
 10
198.581600
 20
252.568600
 30
0.0
 10
198.622080
 20
252.565400
 30
0.0
 10
198.662560
 20
252.562200
 30
0.0
 10
198.702960
 20
252.559000
 30
0.0
 10
198.743440
 20
252.555800
 30
0.0
 10
198.784080
 20
252.552600
 30
0.0
 10
198.824960
 20
252.549400
 30
0.0
 10
202.219616
 20
243.554056
 30
0.0
 10
206.799024
 20
235.217112
 30
0.0
 10
212.459512
 20
227.642192
 30
0.0
 10
219.097424
 20
220.932896
 30
0.0
 10
226.609088
 20
215.192856
 30
0.0
 10
234.890848
 20
210.525680
 30
0.0
 10
243.839024
 20
207.034992
 30
0.0
 10
253.349960
 20
204.824400
 30
0.0
 10
253.632984
 20
203.350104
 30
0.0
 10
253.879896
 20
201.862640
 30
0.0
 10
254.090192
 20
200.362672
 30
0.0
 10
254.263376
 20
198.850904
 30
0.0
 10
254.398944
 20
197.328000
 30
0.0
 10
254.496400
 20
195.794664
 30
0.0
 10
254.555200
 20
194.251568
 30
0.0
 10
254.574960
 20
192.699400
 30
0.0
 10
254.550800
 20
191.001304
 30
0.0
 10
254.479040
 20
189.314672
 30
0.0
 10
254.360528
 20
187.640192
 30
0.0
 10
254.196240
 20
185.978560
 30
0.0
 10
253.987104
 20
184.330480
 30
0.0
 10
253.734056
 20
182.696624
 30
0.0
 10
253.438032
 20
181.077704
 30
0.0
 10
253.099968
 20
179.474400
 30
0.0
 10
247.793840
 20
180.053800
 30
0.0
 10
242.637328
 20
181.084760
 30
0.0
 10
237.650688
 20
182.546672
 30
0.0
 10
232.854200
 20
184.418928
 30
0.0
 10
228.268112
 20
186.680936
 30
0.0
 10
223.912704
 20
189.312088
 30
0.0
 10
219.808232
 20
192.291776
 30
0.0
 10
215.974968
 20
195.599400
 30
0.0
 10
216.015288
 20
196.204416
 30
0.0
 10
216.050488
 20
196.810440
 30
0.0
 10
216.080488
 20
197.417592
 30
0.0
 10
216.105208
 20
198.025984
 30
0.0
 10
216.124648
 20
198.635744
 30
0.0
 10
216.138568
 20
199.246984
 30
0.0
 10
216.146968
 20
199.859832
 30
0.0
 10
216.150168
 20
200.474400
 30
0.0
 10
215.823392
 20
207.174864
 30
0.0
 10
214.863728
 20
213.689400
 30
0.0
 10
213.302152
 20
219.987688
 30
0.0
 10
211.169656
 20
226.039408
 30
0.0
 10
208.497224
 20
231.814256
 30
0.0
 10
205.315840
 20
237.281920
 30
0.0
 10
201.656496
 20
242.412072
 30
0.0
 10
197.550168
 20
247.174400
 30
0.0
 10
197.642928
 20
247.856664
 30
0.0
 10
197.743016
 20
248.537864
 30
0.0
 10
197.850496
 20
249.217496
 30
0.0
 10
197.965392
 20
249.895056
 30
0.0
 10
198.087768
 20
250.570040
 30
0.0
 10
198.217656
 20
251.241928
 30
0.0
 10
198.355112
 20
251.910216
 30
0.0
 10
198.500168
 20
252.574400
 30
0.0
 10
198.500168
 20
252.574392
 30
0.0
 10
198.500168
 20
252.574392
 30
0.0
 10
198.500168
 20
252.574384
 30
0.0
 10
198.500168
 20
252.574384
 30
0.0
 10
198.500168
 20
252.574376
 30
0.0
 10
198.500168
 20
252.574368
 30
0.0
 10
198.500168
 20
252.574368
 30
0.0
 10
198.500000
 20
252.575000
 30
0.0
  0
LWPOLYLINE
  5
123
100
AcDbEntity
  8
0
 62
7
100
AcDbPolyline
 90
17
 70
0
 10
207.700000
 20
251.225000
 30
0.0
 10
215.005288
 20
249.097888
 30
0.0
 10
221.893760
 20
246.103192
 30
0.0
 10
228.301192
 20
242.304472
 30
0.0
 10
234.163360
 20
237.765280
 30
0.0
 10
239.416056
 20
232.549176
 30
0.0
 10
243.995040
 20
226.719728
 30
0.0
 10
247.836096
 20
220.340480
 30
0.0
 10
250.875000
 20
213.475000
 30
0.0
 10
243.569712
 20
215.602112
 30
0.0
 10
236.681240
 20
218.596808
 30
0.0
 10
230.273808
 20
222.395528
 30
0.0
 10
224.411632
 20
226.934720
 30
0.0
 10
219.158944
 20
232.150824
 30
0.0
 10
214.579960
 20
237.980272
 30
0.0
 10
210.738904
 20
244.359520
 30
0.0
 10
207.700000
 20
251.225000
 30
0.0
  0
LWPOLYLINE
  5
124
100
AcDbEntity
  8
0
 62
7
100
AcDbPolyline
 90
65
 70
0
 10
175.100000
 20
249.450000
 30
0.0
 10
175.120160
 20
249.410240
 30
0.0
 10
175.139200
 20
249.369760
 30
0.0
 10
175.157440
 20
249.328800
 30
0.0
 10
175.175280
 20
249.287600
 30
0.0
 10
175.193040
 20
249.246400
 30
0.0
 10
175.211200
 20
249.205360
 30
0.0
 10
175.230080
 20
249.164800
 30
0.0
 10
175.250080
 20
249.124960
 30
0.0
 10
171.437288
 20
244.444864
 30
0.0
 10
168.043752
 20
239.434136
 30
0.0
 10
165.096936
 20
234.119536
 30
0.0
 10
162.624312
 20
228.527808
 30
0.0
 10
160.653352
 20
222.685736
 30
0.0
 10
159.211512
 20
216.620056
 30
0.0
 10
158.326264
 20
210.357552
 30
0.0
 10
158.025080
 20
203.924960
 30
0.0
 10
158.112208
 20
200.460600
 30
0.0
 10
158.370696
 20
197.041056
 30
0.0
 10
158.796152
 20
193.670520
 30
0.0
 10
159.384216
 20
190.353192
 30
0.0
 10
160.130512
 20
187.093272
 30
0.0
 10
161.030672
 20
183.894960
 30
0.0
 10
162.080320
 20
180.762456
 30
0.0
 10
163.275080
 20
177.699960
 30
0.0
 10
160.912064
 20
175.583584
 30
0.0
 10
158.439328
 20
173.593480
 30
0.0
 10
155.861816
 20
171.734480
 30
0.0
 10
153.184448
 20
170.011408
 30
0.0
 10
150.412168
 20
168.429096
 30
0.0
 10
147.549888
 20
166.992360
 30
0.0
 10
144.602552
 20
165.706040
 30
0.0
 10
141.575080
 20
164.574960
 30
0.0
 10
139.993464
 20
167.775336
 30
0.0
 10
138.599280
 20
171.079512
 30
0.0
 10
137.399768
 20
174.480632
 30
0.0
 10
136.402144
 20
177.971816
 30
0.0
 10
135.613640
 20
181.546208
 30
0.0
 10
135.041480
 20
185.196944
 30
0.0
 10
134.692888
 20
188.917144
 30
0.0
 10
134.575080
 20
192.699960
 30
0.0
 10
134.594760
 20
194.226200
 30
0.0
 10
134.653320
 20
195.743368
 30
0.0
 10
134.749944
 20
197.250912
 30
0.0
 10
134.883800
 20
198.748280
 30
0.0
 10
135.054056
 20
200.234920
 30
0.0
 10
135.259896
 20
201.710288
 30
0.0
 10
135.500496
 20
203.173816
 30
0.0
 10
135.775032
 20
204.624960
 30
0.0
 10
141.844880
 20
208.209784
 30
0.0
 10
147.488888
 20
212.384056
 30
0.0
 10
152.664904
 20
217.105680
 30
0.0
 10
157.330784
 20
222.332536
 30
0.0
 10
161.444384
 20
228.022504
 30
0.0
 10
164.963560
 20
234.133472
 30
0.0
 10
167.846160
 20
240.623328
 30
0.0
 10
170.050032
 20
247.449960
 30
0.0
 10
170.669552
 20
247.723992
 30
0.0
 10
171.292112
 20
247.991344
 30
0.0
 10
171.917864
 20
248.251920
 30
0.0
 10
172.546960
 20
248.505632
 30
0.0
 10
173.179568
 20
248.752376
 30
0.0
 10
173.815848
 20
248.992080
 30
0.0
 10
174.455944
 20
249.224640
 30
0.0
 10
175.100000
 20
249.450000
 30
0.0
  0
LWPOLYLINE
  5
125
100
AcDbEntity
  8
0
 62
7
100
AcDbPolyline
 90
65
 70
0
 10
185.075000
 20
247.750000
 30
0.0
 10
185.608192
 20
247.328656
 30
0.0
 10
186.136448
 20
246.902256
 30
0.0
 10
186.659736
 20
246.470584
 30
0.0
 10
187.178008
 20
246.033400
 30
0.0
 10
187.691208
 20
245.590472
 30
0.0
 10
188.199304
 20
245.141584
 30
0.0
 10
188.702248
 20
244.686504
 30
0.0
 10
189.200000
 20
244.225000
 30
0.0
 10
189.159680
 20
243.619984
 30
0.0
 10
189.124480
 20
243.013960
 30
0.0
 10
189.094480
 20
242.406808
 30
0.0
 10
189.069760
 20
241.798416
 30
0.0
 10
189.050400
 20
241.188656
 30
0.0
 10
189.036480
 20
240.577416
 30
0.0
 10
189.028080
 20
239.964568
 30
0.0
 10
189.024880
 20
239.350000
 30
0.0
 10
189.351656
 20
232.649536
 30
0.0
 10
190.311320
 20
226.135000
 30
0.0
 10
191.872896
 20
219.836712
 30
0.0
 10
194.005392
 20
213.784992
 30
0.0
 10
196.677824
 20
208.010144
 30
0.0
 10
199.859208
 20
202.542480
 30
0.0
 10
203.518552
 20
197.412328
 30
0.0
 10
207.624880
 20
192.650000
 30
0.0
 10
206.705640
 20
187.424032
 30
0.0
 10
205.345872
 20
182.363704
 30
0.0
 10
203.566352
 20
177.489920
 30
0.0
 10
201.387864
 20
172.823552
 30
0.0
 10
198.831192
 20
168.385496
 30
0.0
 10
195.917112
 20
164.196624
 30
0.0
 10
192.666416
 20
160.277832
 30
0.0
 10
189.099880
 20
156.650000
 30
0.0
 10
186.641168
 20
158.680584
 30
0.0
 10
184.296240
 20
160.836696
 30
0.0
 10
182.069720
 20
163.113264
 30
0.0
 10
179.966232
 20
165.505208
 30
0.0
 10
177.990384
 20
168.007432
 30
0.0
 10
176.146800
 20
170.614864
 30
0.0
 10
174.440088
 20
173.322408
 30
0.0
 10
172.874880
 20
176.125000
 30
0.0
 10
176.687672
 20
180.805096
 30
0.0
 10
180.081208
 20
185.815824
 30
0.0
 10
183.028024
 20
191.130424
 30
0.0
 10
185.500648
 20
196.722152
 30
0.0
 10
187.471608
 20
202.564224
 30
0.0
 10
188.913448
 20
208.629904
 30
0.0
 10
189.798696
 20
214.892408
 30
0.0
 10
190.099880
 20
221.325000
 30
0.0
 10
190.012752
 20
224.789360
 30
0.0
 10
189.754264
 20
228.208904
 30
0.0
 10
189.328808
 20
231.579440
 30
0.0
 10
188.740744
 20
234.896768
 30
0.0
 10
187.994448
 20
238.156688
 30
0.0
 10
187.094288
 20
241.355000
 30
0.0
 10
186.044640
 20
244.487504
 30
0.0
 10
184.849880
 20
247.550000
 30
0.0
 10
184.877480
 20
247.575520
 30
0.0
 10
184.905480
 20
247.600640
 30
0.0
 10
184.933800
 20
247.625440
 30
0.0
 10
184.962280
 20
247.650080
 30
0.0
 10
184.990760
 20
247.674720
 30
0.0
 10
185.019080
 20
247.699520
 30
0.0
 10
185.047160
 20
247.724560
 30
0.0
 10
185.075000
 20
247.750000
 30
0.0
  0
LWPOLYLINE
  5
126
100
AcDbEntity
  8
0
 62
7
100
AcDbPolyline
 90
17
 70
0
 10
159.500000
 20
241.375000
 30
0.0
 10
157.757840
 20
237.656288
 30
0.0
 10
155.775408
 20
234.081528
 30
0.0
 10
153.562784
 20
230.661312
 30
0.0
 10
151.130064
 20
227.406272
 30
0.0
 10
148.487336
 20
224.327008
 30
0.0
 10
145.644688
 20
221.434128
 30
0.0
 10
142.612216
 20
218.738256
 30
0.0
 10
139.400000
 20
216.250000
 30
0.0
 10
141.142160
 20
219.968712
 30
0.0
 10
143.124592
 20
223.543472
 30
0.0
 10
145.337216
 20
226.963688
 30
0.0
 10
147.769936
 20
230.218728
 30
0.0
 10
150.412664
 20
233.297992
 30
0.0
 10
153.255312
 20
236.190872
 30
0.0
 10
156.287784
 20
238.886744
 30
0.0
 10
159.500000
 20
241.375000
 30
0.0
  0
LWPOLYLINE
  5
127
100
AcDbEntity
  8
0
 62
7
100
AcDbPolyline
 90
33
 70
0
 10
178.800000
 20
240.925000
 30
0.0
 10
179.551504
 20
238.600328
 30
0.0
 10
180.211520
 20
236.235912
 30
0.0
 10
180.777368
 20
233.833728
 30
0.0
 10
181.246352
 20
231.395736
 30
0.0
 10
181.615792
 20
228.923896
 30
0.0
 10
181.883008
 20
226.420184
 30
0.0
 10
182.045304
 20
223.886560
 30
0.0
 10
182.100024
 20
221.325000
 30
0.0
 10
181.879080
 20
216.144984
 30
0.0
 10
181.228448
 20
211.087544
 30
0.0
 10
180.166408
 20
206.170680
 30
0.0
 10
178.711240
 20
201.412392
 30
0.0
 10
176.881232
 20
196.830680
 30
0.0
 10
174.694672
 20
192.443552
 30
0.0
 10
172.169840
 20
188.268992
 30
0.0
 10
169.325024
 20
184.325000
 30
0.0
 10
168.573520
 20
186.649672
 30
0.0
 10
167.913504
 20
189.014088
 30
0.0
 10
167.347656
 20
191.416272
 30
0.0
 10
166.878672
 20
193.854272
 30
0.0
 10
166.509232
 20
196.326104
 30
0.0
 10
166.242016
 20
198.829816
 30
0.0
 10
166.079720
 20
201.363440
 30
0.0
 10
166.025000
 20
203.925000
 30
0.0
 10
166.245944
 20
209.105016
 30
0.0
 10
166.896576
 20
214.162456
 30
0.0
 10
167.958616
 20
219.079320
 30
0.0
 10
169.413784
 20
223.837608
 30
0.0
 10
171.243792
 20
228.419320
 30
0.0
 10
173.430352
 20
232.806448
 30
0.0
 10
175.955184
 20
236.981008
 30
0.0
 10
178.800000
 20
240.925000
 30
0.0
  0
LWPOLYLINE
  5
128
100
AcDbEntity
  8
0
 62
7
100
AcDbPolyline
 90
17
 70
0
 10
197.200000
 20
235.025000
 30
0.0
 10
199.385312
 20
231.698480
 30
0.0
 10
201.350176
 20
228.223208
 30
0.0
 10
203.085048
 20
224.609040
 30
0.0
 10
204.580360
 20
220.865856
 30
0.0
 10
205.826576
 20
217.003496
 30
0.0
 10
206.814120
 20
213.031824
 30
0.0
 10
207.533448
 20
208.960704
 30
0.0
 10
207.975000
 20
204.800000
 30
0.0
 10
205.789688
 20
208.126520
 30
0.0
 10
203.824824
 20
211.601792
 30
0.0
 10
202.089952
 20
215.215960
 30
0.0
 10
200.594632
 20
218.959152
 30
0.0
 10
199.348424
 20
222.821504
 30
0.0
 10
198.360880
 20
226.793176
 30
0.0
 10
197.641552
 20
230.864296
 30
0.0
 10
197.200000
 20
235.025000
 30
0.0
  0
LWPOLYLINE
  5
129
100
AcDbEntity
  8
0
 62
7
100
AcDbPolyline
 90
33
 70
0
 10
315.950000
 20
228.150000
 30
0.0
 10
314.625952
 20
222.603416
 30
0.0
 10
312.803464
 20
217.269920
 30
0.0
 10
310.508400
 20
212.175960
 30
0.0
 10
307.766640
 20
207.347992
 30
0.0
 10
304.604056
 20
202.812456
 30
0.0
 10
301.046504
 20
198.595816
 30
0.0
 10
297.119864
 20
194.724512
 30
0.0
 10
292.850000
 20
191.225000
 30
0.0
 10
293.123984
 20
192.774672
 30
0.0
 10
293.362000
 20
194.335544
 30
0.0
 10
293.563864
 20
195.907432
 30
0.0
 10
293.729416
 20
197.490120
 30
0.0
 10
293.858472
 20
199.083416
 30
0.0
 10
293.950872
 20
200.687128
 30
0.0
 10
294.006472
 20
202.301056
 30
0.0
 10
294.025032
 20
203.925000
 30
0.0
 10
294.019432
 20
204.794264
 30
0.0
 10
294.002392
 20
205.660672
 30
0.0
 10
293.974312
 20
206.524224
 30
0.0
 10
293.935352
 20
207.384952
 30
0.0
 10
293.885752
 20
208.242872
 30
0.0
 10
293.825672
 20
209.098008
 30
0.0
 10
293.755432
 20
209.950376
 30
0.0
 10
293.675152
 20
210.800000
 30
0.0
 10
296.849560
 20
212.448280
 30
0.0
 10
299.923168
 20
214.256992
 30
0.0
 10
302.890656
 20
216.220264
 30
0.0
 10
305.746704
 20
218.332240
 30
0.0
 10
308.486000
 20
220.587064
 30
0.0
 10
311.103224
 20
222.978872
 30
0.0
 10
313.593048
 20
225.501808
 30
0.0
 10
315.950000
 20
228.150000
 30
0.0
  0
LWPOLYLINE
  5
12a
100
AcDbEntity
  8
0
 62
7
100
AcDbPolyline
 90
41
 70
0
 10
63.025000
 20
210.925000
 30
0.0
 10
64.995596
 20
209.469968
 30
0.0
 10
67.018665
 20
208.085064
 30
0.0
 10
69.092706
 20
206.772120
 30
0.0
 10
71.216220
 20
205.532928
 30
0.0
 10
73.387706
 20
204.369304
 30
0.0
 10
75.605665
 20
203.283072
 30
0.0
 10
77.868596
 20
202.276032
 30
0.0
 10
80.175000
 20
201.350000
 30
0.0
 10
80.172600
 20
201.240432
 30
0.0
 10
80.169400
 20
201.131112
 30
0.0
 10
80.165400
 20
201.021944
 30
0.0
 10
80.161400
 20
200.912832
 30
0.0
 10
80.157400
 20
200.803672
 30
0.0
 10
80.154200
 20
200.694376
 30
0.0
 10
80.151800
 20
200.584856
 30
0.0
 10
80.151000
 20
200.475000
 30
0.0
 10
80.241784
 20
196.932384
 30
0.0
 10
80.511136
 20
193.436664
 30
0.0
 10
80.954576
 20
189.992352
 30
0.0
 10
81.567608
 20
186.603968
 30
0.0
 10
82.345760
 20
183.276024
 30
0.0
 10
83.284528
 20
180.013040
 30
0.0
 10
84.379440
 20
176.819528
 30
0.0
 10
85.626000
 20
173.700000
 30
0.0
 10
81.408592
 20
177.252712
 30
0.0
 10
77.536992
 20
181.172544
 30
0.0
 10
74.037213
 20
185.433136
 30
0.0
 10
70.935264
 20
190.008128
 30
0.0
 10
68.257157
 20
194.871168
 30
0.0
 10
66.028903
 20
199.995896
 30
0.0
 10
64.276514
 20
205.355960
 30
0.0
 10
63.026000
 20
210.925000
 30
0.0
 10
63.025995
 20
210.925000
 30
0.0
 10
63.025990
 20
210.925000
 30
0.0
 10
63.025985
 20
210.925000
 30
0.0
 10
63.025980
 20
210.925000
 30
0.0
 10
63.025975
 20
210.925000
 30
0.0
 10
63.025970
 20
210.925000
 30
0.0
 10
63.025965
 20
210.925000
 30
0.0
 10
63.025000
 20
210.925000
 30
0.0
  0
LWPOLYLINE
  5
12b
100
AcDbEntity
  8
0
 62
7
100
AcDbPolyline
 90
57
 70
0
 10
285.900000
 20
207.600000
 30
0.0
 10
285.926400
 20
207.144056
 30
0.0
 10
285.950480
 20
206.686896
 30
0.0
 10
285.971760
 20
206.228640
 30
0.0
 10
285.990000
 20
205.769408
 30
0.0
 10
286.004800
 20
205.309312
 30
0.0
 10
286.015840
 20
204.848464
 30
0.0
 10
286.023040
 20
204.386992
 30
0.0
 10
286.025440
 20
203.925000
 30
0.0
 10
285.976080
 20
201.498024
 30
0.0
 10
285.829696
 20
199.095872
 30
0.0
 10
285.588720
 20
196.720256
 30
0.0
 10
285.255584
 20
194.372880
 30
0.0
 10
284.832744
 20
192.055456
 30
0.0
 10
284.322640
 20
189.769696
 30
0.0
 10
283.727712
 20
187.517312
 30
0.0
 10
283.050416
 20
185.300000
 30
0.0
 10
280.520792
 20
184.150000
 30
0.0
 10
277.931432
 20
183.114032
 30
0.0
 10
275.285176
 20
182.195784
 30
0.0
 10
272.584880
 20
181.398968
 30
0.0
 10
269.833408
 20
180.727280
 30
0.0
 10
267.033600
 20
180.184424
 30
0.0
 10
264.188320
 20
179.774096
 30
0.0
 10
261.300416
 20
179.500000
 30
0.0
 10
261.596656
 20
181.108504
 30
0.0
 10
261.854432
 20
182.729464
 30
0.0
 10
262.073408
 20
184.362576
 30
0.0
 10
262.253288
 20
186.007536
 30
0.0
 10
262.393744
 20
187.664056
 30
0.0
 10
262.494464
 20
189.331840
 30
0.0
 10
262.555104
 20
191.010584
 30
0.0
 10
262.575424
 20
192.700000
 30
0.0
 10
262.560064
 20
194.147760
 30
0.0
 10
262.514384
 20
195.587216
 30
0.0
 10
262.438704
 20
197.018392
 30
0.0
 10
262.333488
 20
198.441272
 30
0.0
 10
262.199136
 20
199.855864
 30
0.0
 10
262.036064
 20
201.262184
 30
0.0
 10
261.844680
 20
202.660232
 30
0.0
 10
261.625392
 20
204.050000
 30
0.0
 10
261.921520
 20
204.040080
 30
0.0
 10
262.217672
 20
204.030800
 30
0.0
 10
262.513936
 20
204.022320
 30
0.0
 10
262.810408
 20
204.015120
 30
0.0
 10
263.107200
 20
204.008720
 30
0.0
 10
263.404392
 20
204.003920
 30
0.0
 10
263.702096
 20
204.000720
 30
0.0
 10
264.000000
 20
204.000000
 30
0.0
 10
266.859640
 20
204.058800
 30
0.0
 10
269.688720
 20
204.233752
 30
0.0
 10
272.485064
 20
204.522656
 30
0.0
 10
275.246504
 20
204.923336
 30
0.0
 10
277.970888
 20
205.433600
 30
0.0
 10
280.656048
 20
206.051256
 30
0.0
 10
283.299800
 20
206.774120
 30
0.0
 10
285.900000
 20
207.600000
 30
0.0
  0
LWPOLYLINE
  5
12c
100
AcDbEntity
  8
0
 62
7
100
AcDbPolyline
 90
57
 70
0
 10
127.075000
 20
200.825000
 30
0.0
 10
126.962200
 20
199.822904
 30
0.0
 10
126.862688
 20
198.817240
 30
0.0
 10
126.777024
 20
197.807856
 30
0.0
 10
126.705744
 20
196.794616
 30
0.0
 10
126.649344
 20
195.777352
 30
0.0
 10
126.608384
 20
194.755928
 30
0.0
 10
126.583424
 20
193.730192
 30
0.0
 10
126.575024
 20
192.700000
 30
0.0
 10
126.694032
 20
188.652632
 30
0.0
 10
127.046448
 20
184.668568
 30
0.0
 10
127.625344
 20
180.754168
 30
0.0
 10
128.423816
 20
176.915808
 30
0.0
 10
129.434936
 20
173.159840
 30
0.0
 10
130.651784
 20
169.492640
 30
0.0
 10
132.067456
 20
165.920576
 30
0.0
 10
133.675024
 20
162.450000
 30
0.0
 10
132.264888
 20
162.191568
 30
0.0
 10
130.843352
 20
161.965512
 30
0.0
 10
129.410856
 20
161.772472
 30
0.0
 10
127.967856
 20
161.613096
 30
0.0
 10
126.514824
 20
161.488016
 30
0.0
 10
125.052200
 20
161.397880
 30
0.0
 10
123.580448
 20
161.343320
 30
0.0
 10
122.100024
 20
161.325000
 30
0.0
 10
119.065656
 20
161.401080
 30
0.0
 10
116.070928
 20
161.626712
 30
0.0
 10
113.119232
 20
161.997944
 30
0.0
 10
110.213968
 20
162.510832
 30
0.0
 10
107.358520
 20
163.161424
 30
0.0
 10
104.556288
 20
163.945776
 30
0.0
 10
101.810656
 20
164.859952
 30
0.0
 10
99.125024
 20
165.899992
 30
0.0
 10
96.768616
 20
169.503512
 30
0.0
 10
94.671080
 20
173.279760
 30
0.0
 10
92.844512
 20
177.216416
 30
0.0
 10
91.301024
 20
181.301184
 30
0.0
 10
90.052728
 20
185.521736
 30
0.0
 10
89.111720
 20
189.865760
 30
0.0
 10
88.490120
 20
194.320952
 30
0.0
 10
88.200024
 20
198.874992
 30
0.0
 10
90.149504
 20
198.430048
 30
0.0
 10
92.119392
 20
198.039624
 30
0.0
 10
94.108928
 20
197.705208
 30
0.0
 10
96.117360
 20
197.428272
 30
0.0
 10
98.143944
 20
197.210312
 30
0.0
 10
100.187920
 20
197.052784
 30
0.0
 10
102.248528
 20
196.957184
 30
0.0
 10
104.325024
 20
196.925024
 30
0.0
 10
107.302320
 20
196.988944
 30
0.0
 10
110.246368
 20
197.179104
 30
0.0
 10
113.154712
 20
197.492856
 30
0.0
 10
116.024904
 20
197.927632
 30
0.0
 10
118.854488
 20
198.480816
 30
0.0
 10
121.641008
 20
199.149832
 30
0.0
 10
124.382000
 20
199.932088
 30
0.0
 10
127.075000
 20
200.825000
 30
0.0
  0
LWPOLYLINE
  5
12d
100
AcDbEntity
  8
0
 62
7
100
AcDbPolyline
 90
41
 70
0
 10
214.650000
 20
186.200000
 30
0.0
 10
218.540744
 20
183.312504
 30
0.0
 10
222.636144
 20
180.702408
 30
0.0
 10
226.922696
 20
178.383680
 30
0.0
 10
231.386896
 20
176.370312
 30
0.0
 10
236.015232
 20
174.676280
 30
0.0
 10
240.794200
 20
173.315568
 30
0.0
 10
245.710288
 20
172.302144
 30
0.0
 10
250.750000
 20
171.650000
 30
0.0
 10
249.031648
 20
167.540640
 30
0.0
 10
247.024496
 20
163.593632
 30
0.0
 10
244.741616
 20
159.821984
 30
0.0
 10
242.196128
 20
156.238728
 30
0.0
 10
239.401128
 20
152.856880
 30
0.0
 10
236.369704
 20
149.689464
 30
0.0
 10
233.114960
 20
146.749496
 30
0.0
 10
229.650000
 20
144.050000
 30
0.0
 10
229.200240
 20
144.024160
 30
0.0
 10
228.749280
 20
144.000400
 30
0.0
 10
228.297224
 20
143.979120
 30
0.0
 10
227.844216
 20
143.960800
 30
0.0
 10
227.390360
 20
143.945760
 30
0.0
 10
226.935792
 20
143.934480
 30
0.0
 10
226.480632
 20
143.927280
 30
0.0
 10
226.025000
 20
143.924880
 30
0.0
 10
221.935952
 20
144.062216
 30
0.0
 10
217.921384
 20
144.468288
 30
0.0
 10
213.989816
 20
145.134208
 30
0.0
 10
210.149760
 20
146.051056
 30
0.0
 10
206.409728
 20
147.209952
 30
0.0
 10
202.778248
 20
148.601992
 30
0.0
 10
199.263832
 20
150.218264
 30
0.0
 10
195.875000
 20
152.049880
 30
0.0
 10
199.230008
 20
155.600984
 30
0.0
 10
202.326040
 20
159.385720
 30
0.0
 10
205.148568
 20
163.389776
 30
0.0
 10
207.683056
 20
167.598872
 30
0.0
 10
209.914976
 20
171.998728
 30
0.0
 10
211.829792
 20
176.575040
 30
0.0
 10
213.412984
 20
181.313520
 30
0.0
 10
214.650000
 20
186.200000
 30
0.0
  0
LWPOLYLINE
  5
12e
100
AcDbEntity
  8
0
 62
7
100
AcDbPolyline
 90
25
 70
0
 10
278.475000
 20
174.800000
 30
0.0
 10
275.540072
 20
170.058848
 30
0.0
 10
272.191096
 20
165.625072
 30
0.0
 10
268.454816
 20
161.525416
 30
0.0
 10
264.357976
 20
157.786616
 30
0.0
 10
259.927336
 20
154.435432
 30
0.0
 10
255.189624
 20
151.498608
 30
0.0
 10
250.171592
 20
149.002880
 30
0.0
 10
244.900000
 20
146.975000
 30
0.0
 10
247.208840
 20
149.650688
 30
0.0
 10
249.379328
 20
152.445424
 30
0.0
 10
251.405720
 20
155.353608
 30
0.0
 10
253.282264
 20
158.369632
 30
0.0
 10
255.003208
 20
161.487888
 30
0.0
 10
256.562816
 20
164.702776
 30
0.0
 10
257.955328
 20
168.008680
 30
0.0
 10
259.175000
 20
171.400000
 30
0.0
 10
261.685144
 20
171.523136
 30
0.0
 10
264.170576
 20
171.734760
 30
0.0
 10
266.629712
 20
172.033760
 30
0.0
 10
269.060944
 20
172.419000
 30
0.0
 10
271.462688
 20
172.889368
 30
0.0
 10
273.833344
 20
173.443744
 30
0.0
 10
276.171312
 20
174.080992
 30
0.0
 10
278.475000
 20
174.800000
 30
0.0
  0
LWPOLYLINE
  5
12f
100
AcDbEntity
  8
0
 62
7
100
AcDbPolyline
 90
33
 70
0
 10
166.950000
 20
170.250000
 30
0.0
 10
168.546304
 20
167.597208
 30
0.0
 10
170.257768
 20
165.024344
 30
0.0
 10
172.080912
 20
162.535136
 30
0.0
 10
174.012248
 20
160.133336
 30
0.0
 10
176.048304
 20
157.822680
 30
0.0
 10
178.185608
 20
155.606912
 30
0.0
 10
180.420664
 20
153.489768
 30
0.0
 10
182.750000
 20
151.475000
 30
0.0
 10
180.426224
 20
149.911696
 30
0.0
 10
178.027688
 20
148.456728
 30
0.0
 10
175.557664
 20
147.113184
 30
0.0
 10
173.019440
 20
145.884160
 30
0.0
 10
170.416288
 20
144.772744
 30
0.0
 10
167.751480
 20
143.782016
 30
0.0
 10
165.028288
 20
142.915072
 30
0.0
 10
162.250000
 20
142.175000
 30
0.0
 10
159.901832
 20
143.760088
 30
0.0
 10
157.634672
 20
145.450952
 30
0.0
 10
155.451952
 20
147.244160
 30
0.0
 10
153.357104
 20
149.136272
 30
0.0
 10
151.353560
 20
151.123848
 30
0.0
 10
149.444744
 20
153.203456
 30
0.0
 10
147.634080
 20
155.371648
 30
0.0
 10
145.925000
 20
157.625000
 30
0.0
 10
148.813016
 20
158.783408
 30
0.0
 10
151.633480
 20
160.069640
 30
0.0
 10
154.383040
 20
161.479752
 30
0.0
 10
157.058344
 20
163.009776
 30
0.0
 10
159.656048
 20
164.655768
 30
0.0
 10
162.172792
 20
166.413776
 30
0.0
 10
164.605224
 20
168.279840
 30
0.0
 10
166.950000
 20
170.250000
 30
0.0
  0
LWPOLYLINE
  5
130
100
AcDbEntity
  8
0
 62
7
100
AcDbPolyline
 90
49
 70
0
 10
137.875000
 20
155.175000
 30
0.0
 10
139.274880
 20
153.144072
 30
0.0
 10
140.745088
 20
151.167624
 30
0.0
 10
142.283960
 20
149.247400
 30
0.0
 10
143.889832
 20
147.385120
 30
0.0
 10
145.561040
 20
145.582512
 30
0.0
 10
147.295912
 20
143.841304
 30
0.0
 10
149.092784
 20
142.163224
 30
0.0
 10
150.950000
 20
140.550000
 30
0.0
 10
150.602496
 20
140.534640
 30
0.0
 10
150.253840
 20
140.520400
 30
0.0
 10
149.904232
 20
140.507680
 30
0.0
 10
149.553920
 20
140.496640
 30
0.0
 10
149.203120
 20
140.487600
 30
0.0
 10
148.852048
 20
140.480400
 30
0.0
 10
148.500928
 20
140.476400
 30
0.0
 10
148.150000
 20
140.474800
 30
0.0
 10
142.716592
 20
140.717512
 30
0.0
 10
137.418600
 20
141.431728
 30
0.0
 10
132.277016
 20
142.596584
 30
0.0
 10
127.312840
 20
144.191192
 30
0.0
 10
122.547056
 20
146.194696
 30
0.0
 10
118.000664
 20
148.586216
 30
0.0
 10
113.694648
 20
151.344872
 30
0.0
 10
109.650000
 20
154.449800
 30
0.0
 10
111.170152
 20
154.186696
 30
0.0
 10
112.700936
 20
153.958440
 30
0.0
 10
114.242200
 20
153.765120
 30
0.0
 10
115.793776
 20
153.606792
 30
0.0
 10
117.355504
 20
153.483520
 30
0.0
 10
118.927224
 20
153.395392
 30
0.0
 10
120.508776
 20
153.342432
 30
0.0
 10
122.100000
 20
153.324752
 30
0.0
 10
124.129744
 20
153.354912
 30
0.0
 10
126.144400
 20
153.444624
 30
0.0
 10
128.143240
 20
153.592856
 30
0.0
 10
130.125552
 20
153.798544
 30
0.0
 10
132.090608
 20
154.060632
 30
0.0
 10
134.037680
 20
154.378080
 30
0.0
 10
135.966056
 20
154.749808
 30
0.0
 10
137.875000
 20
155.174776
 30
0.0
 10
137.875000
 20
155.174768
 30
0.0
 10
137.875000
 20
155.174768
 30
0.0
 10
137.875000
 20
155.174760
 30
0.0
 10
137.875000
 20
155.174760
 30
0.0
 10
137.875000
 20
155.174752
 30
0.0
 10
137.875000
 20
155.174744
 30
0.0
 10
137.875000
 20
155.174744
 30
0.0
 10
137.875000
 20
155.175000
 30
0.0
  0
LWPOLYLINE
  5
131
100
AcDbEntity
  8
0
 62
7
100
AcDbPolyline
 90
33
 70
0
 10
189.550000
 20
146.550000
 30
0.0
 10
192.547680
 20
144.745560
 30
0.0
 10
195.642776
 20
143.091272
 30
0.0
 10
198.830208
 20
141.593048
 30
0.0
 10
202.104920
 20
140.256816
 30
0.0
 10
205.461824
 20
139.088480
 30
0.0
 10
208.895856
 20
138.093952
 30
0.0
 10
212.401936
 20
137.279160
 30
0.0
 10
215.975000
 20
136.650000
 30
0.0
 10
213.455664
 20
135.750824
 30
0.0
 10
210.886616
 20
134.960968
 30
0.0
 10
208.270464
 20
134.283688
 30
0.0
 10
205.609840
 20
133.722248
 30
0.0
 10
202.907360
 20
133.279904
 30
0.0
 10
200.165640
 20
132.959904
 30
0.0
 10
197.387320
 20
132.765520
 30
0.0
 10
194.575000
 20
132.700000
 30
0.0
 10
191.656952
 20
132.770800
 30
0.0
 10
188.775784
 20
132.980632
 30
0.0
 10
185.934368
 20
133.325776
 30
0.0
 10
183.135616
 20
133.802480
 30
0.0
 10
180.382408
 20
134.407000
 30
0.0
 10
177.677648
 20
135.135600
 30
0.0
 10
175.024208
 20
135.984520
 30
0.0
 10
172.425000
 20
136.950024
 30
0.0
 10
174.728328
 20
137.879968
 30
0.0
 10
176.988256
 20
138.890552
 30
0.0
 10
179.203240
 20
139.980032
 30
0.0
 10
181.371728
 20
141.146680
 30
0.0
 10
183.492192
 20
142.388736
 30
0.0
 10
185.563088
 20
143.704472
 30
0.0
 10
187.582872
 20
145.092152
 30
0.0
 10
189.550000
 20
146.550000
 30
0.0
  0
ENDSEC
  0
SECTION
  2
OBJECTS
  0
DICTIONARY
  5
C
330
0
100
AcDbDictionary
  3
ACAD_GROUP
350
D
  3
ACAD_MLINESTYLE
350
17
  0
DICTIONARY
  5
D
330
C
100
AcDbDictionary
  0
DICTIONARY
  5
1A
330
C
100
AcDbDictionary
  0
DICTIONARY
  5
17
330
C
100
AcDbDictionary
  3
STANDARD
350
18
  0
DICTIONARY
  5
19
330
C
100
AcDbDictionary
  0
ENDSEC
  0
EOF
