  0
SECTION
  2
HEADER
  9
$ACADVER
  1
AC1014
  9
$HANDSEED
  5
FFFF
  9
$MEASUREMENT
 70
     1
  0
ENDSEC
  0
SECTION
  2
TABLES
  0
TABLE
  2
VPORT
  5
8
330
0
100
AcDbSymbolTable
 70
     4
  0
VPORT
  5
2E
330
8
100
AcDbSymbolTableRecord
100
AcDbViewportTableRecord
  2
*ACTIVE
 70
     0
 10
0.0
 20
0.0
 11
1.0
 21
1.0
 12
210.0
 22
148.5
 13
0.0
 23
0.0
 14
10.0
 24
10.0
 15
10.0
 25
10.0
 16
0.0
 26
0.0
 36
1.0
 17
0.0
 27
0.0
 37
0.0
 40
341.0
 41
1.24
 42
50.0
 43
0.0
 44
0.0
 50
0.0
 51
0.0
 71
     0
 72
   100
 73
     1
 74
     3
 75
     0
 76
     0
 77
     0
 78
     0
  0
ENDTAB
  0
TABLE
  2
LTYPE
  5
5
330
0
100
AcDbSymbolTable
 70
     1
  0
LTYPE
  5
14
330
5
100
AcDbSymbolTableRecord
100
AcDbLinetypeTableRecord
  2
BYBLOCK
 70
     0
  3

 72
    65
 73
     0
 40
0.0
  0
LTYPE
  5
15
330
5
100
AcDbSymbolTableRecord
100
AcDbLinetypeTableRecord
  2
BYLAYER
 70
     0
  3

 72
    65
 73
     0
 40
0.0
  0
LTYPE
  5
16
330
5
100
AcDbSymbolTableRecord
100
AcDbLinetypeTableRecord
  2
CONTINUOUS
 70
     0
  3
Solid line
 72
    65
 73
     0
 40
0.0
  0
ENDTAB
  0
TABLE
  2
LAYER
  5
2
100
AcDbSymbolTable
 70
1
  0
LAYER
  5
50
100
AcDbSymbolTableRecord
100
AcDbLayerTableRecord
  2
0
 70
0
  6
CONTINUOUS
  0
ENDTAB
  0
TABLE
  2
STYLE
  5
3
330
0
100
AcDbSymbolTable
 70
     1
  0
STYLE
  5
11
330
3
100
AcDbSymbolTableRecord
100
AcDbTextStyleTableRecord
  2
STANDARD
 70
     0
 40
0.0
 41
1.0
 50
0.0
 71
     0
 42
2.5
  3
txt
  4

  0
ENDTAB
  0
TABLE
  2
VIEW
  5
6
330
0
100
AcDbSymbolTable
 70
     0
  0
ENDTAB
  0
TABLE
  2
UCS
  5
7
330
0
100
AcDbSymbolTable
 70
     0
  0
ENDTAB
  0
TABLE
  2
APPID
  5
9
330
0
100
AcDbSymbolTable
 70
     2
  0
APPID
  5
12
330
9
100
AcDbSymbolTableRecord
100
AcDbRegAppTableRecord
  2
ACAD
 70
     0
  0
ENDTAB
  0
TABLE
  2
DIMSTYLE
  5
A
330
0
100
AcDbSymbolTable
 70
     1
  0
DIMSTYLE
105
27
330
A
100
AcDbSymbolTableRecord
100
AcDbDimStyleTableRecord
  2
ISO-25
 70
     0
  3

  4

  5

  6

  7

 40
1.0
 41
2.5
 42
0.625
 43
3.75
 44
1.25
 45
0.0
 46
0.0
 47
0.0
 48
0.0
140
2.5
141
2.5
142
0.0
143
0.03937007874016
144
1.0
145
0.0
146
1.0
147
0.625
 71
     0
 72
     0
 73
     0
 74
     0
 75
     0
 76
     0
 77
     1
 78
     8
170
     0
171
     3
172
     1
173
     0
174
     0
175
     0
176
     0
177
     0
178
     0
270
     2
271
     2
272
     2
273
     2
274
     3
340
11
275
     0
280
     0
281
     0
282
     0
283
     0
284
     8
285
     0
286
     0
287
     3
288
     0
  0
ENDTAB
  0
TABLE
  2
BLOCK_RECORD
  5
1
330
0
100
AcDbSymbolTable
 70
     1
  0
BLOCK_RECORD
  5
1F
330
1
100
AcDbSymbolTableRecord
100
AcDbBlockTableRecord
  2
*MODEL_SPACE
  0
BLOCK_RECORD
  5
1B
330
1
100
AcDbSymbolTableRecord
100
AcDbBlockTableRecord
  2
*PAPER_SPACE
  0
ENDTAB
  0
ENDSEC
  0
SECTION
  2
BLOCKS
  0
BLOCK
  5
20
330
1F
100
AcDbEntity
  8
0
100
AcDbBlockBegin
  2
*MODEL_SPACE
 70
     0
 10
0.0
 20
0.0
 30
0.0
  3
*MODEL_SPACE
  1

  0
ENDBLK
  5
21
330
1F
100
AcDbEntity
  8
0
100
AcDbBlockEnd
  0
BLOCK
  5
1C
330
1B
100
AcDbEntity
 67
     1
  8
0
100
AcDbBlockBegin
  2
*PAPER_SPACE
  1

  0
ENDBLK
  5
1D
330
1B
100
AcDbEntity
 67
     1
  8
0
100
AcDbBlockEnd
  0
ENDSEC
  0
SECTION
  2
ENTITIES
  0
LINE
  5
100
100
AcDbEntity
  8
0
 62
7
100
AcDbLine
 10
57.600000
 20
6.400000
 30
0.0
 11
64.700000
 21
6.400000
 31
0.0
  0
LINE
  5
101
100
AcDbEntity
  8
0
 62
7
100
AcDbLine
 10
64.700000
 20
6.400000
 30
0.0
 11
71.800000
 21
6.400000
 31
0.0
  0
LINE
  5
102
100
AcDbEntity
  8
0
 62
7
100
AcDbLine
 10
71.800000
 20
6.400000
 30
0.0
 11
78.900000
 21
6.400000
 31
0.0
  0
LINE
  5
103
100
AcDbEntity
  8
0
 62
7
100
AcDbLine
 10
78.900000
 20
6.400000
 30
0.0
 11
86.000000
 21
6.400000
 31
0.0
  0
LINE
  5
104
100
AcDbEntity
  8
0
 62
7
100
AcDbLine
 10
86.000000
 20
6.400000
 30
0.0
 11
93.100000
 21
6.400000
 31
0.0
  0
LINE
  5
105
100
AcDbEntity
  8
0
 62
7
100
AcDbLine
 10
93.100000
 20
6.400000
 30
0.0
 11
100.200000
 21
6.400000
 31
0.0
  0
LINE
  5
106
100
AcDbEntity
  8
0
 62
7
100
AcDbLine
 10
100.200000
 20
6.400000
 30
0.0
 11
107.300000
 21
6.400000
 31
0.0
  0
LINE
  5
107
100
AcDbEntity
  8
0
 62
7
100
AcDbLine
 10
107.300000
 20
6.400000
 30
0.0
 11
114.400000
 21
6.400000
 31
0.0
  0
LINE
  5
108
100
AcDbEntity
  8
0
 62
7
100
AcDbLine
 10
114.400000
 20
6.400000
 30
0.0
 11
116.000000
 21
10.900000
 31
0.0
  0
LINE
  5
109
100
AcDbEntity
  8
0
 62
7
100
AcDbLine
 10
116.000000
 20
10.900000
 30
0.0
 11
117.600000
 21
15.400000
 31
0.0
  0
LINE
  5
10a
100
AcDbEntity
  8
0
 62
7
100
AcDbLine
 10
117.600000
 20
15.400000
 30
0.0
 11
119.200000
 21
19.900000
 31
0.0
  0
LINE
  5
10b
100
AcDbEntity
  8
0
 62
7
100
AcDbLine
 10
119.200000
 20
19.900000
 30
0.0
 11
120.800000
 21
24.400000
 31
0.0
  0
LINE
  5
10c
100
AcDbEntity
  8
0
 62
7
100
AcDbLine
 10
120.800000
 20
24.400000
 30
0.0
 11
122.400000
 21
28.900000
 31
0.0
  0
LINE
  5
10d
100
AcDbEntity
  8
0
 62
7
100
AcDbLine
 10
122.400000
 20
28.900000
 30
0.0
 11
124.000000
 21
33.400000
 31
0.0
  0
LINE
  5
10e
100
AcDbEntity
  8
0
 62
7
100
AcDbLine
 10
124.000000
 20
33.400000
 30
0.0
 11
125.600000
 21
37.900000
 31
0.0
  0
LINE
  5
10f
100
AcDbEntity
  8
0
 62
7
100
AcDbLine
 10
125.600000
 20
37.900000
 30
0.0
 11
127.200000
 21
42.400000
 31
0.0
  0
LINE
  5
110
100
AcDbEntity
  8
0
 62
7
100
AcDbLine
 10
127.200000
 20
42.400000
 30
0.0
 11
127.200000
 21
47.700000
 31
0.0
  0
LINE
  5
111
100
AcDbEntity
  8
0
 62
7
100
AcDbLine
 10
127.200000
 20
47.700000
 30
0.0
 11
127.200000
 21
53.000000
 31
0.0
  0
LINE
  5
112
100
AcDbEntity
  8
0
 62
7
100
AcDbLine
 10
127.200000
 20
53.000000
 30
0.0
 11
127.200000
 21
58.300000
 31
0.0
  0
LINE
  5
113
100
AcDbEntity
  8
0
 62
7
100
AcDbLine
 10
127.200000
 20
58.300000
 30
0.0
 11
127.200000
 21
63.600000
 31
0.0
  0
LINE
  5
114
100
AcDbEntity
  8
0
 62
7
100
AcDbLine
 10
127.200000
 20
63.600000
 30
0.0
 11
127.200000
 21
68.900000
 31
0.0
  0
LINE
  5
115
100
AcDbEntity
  8
0
 62
7
100
AcDbLine
 10
127.200000
 20
68.900000
 30
0.0
 11
127.200000
 21
74.200000
 31
0.0
  0
LINE
  5
116
100
AcDbEntity
  8
0
 62
7
100
AcDbLine
 10
127.200000
 20
74.200000
 30
0.0
 11
127.200000
 21
79.500000
 31
0.0
  0
LINE
  5
117
100
AcDbEntity
  8
0
 62
7
100
AcDbLine
 10
127.200000
 20
79.500000
 30
0.0
 11
127.200000
 21
84.800000
 31
0.0
  0
LINE
  5
118
100
AcDbEntity
  8
0
 62
7
100
AcDbLine
 10
127.200000
 20
84.800000
 30
0.0
 11
126.375000
 21
86.809375
 31
0.0
  0
LINE
  5
119
100
AcDbEntity
  8
0
 62
7
100
AcDbLine
 10
126.375000
 20
86.809375
 30
0.0
 11
124.200000
 21
88.575000
 31
0.0
  0
LINE
  5
11a
100
AcDbEntity
  8
0
 62
7
100
AcDbLine
 10
124.200000
 20
88.575000
 30
0.0
 11
121.125000
 21
90.003125
 31
0.0
  0
LINE
  5
11b
100
AcDbEntity
  8
0
 62
7
100
AcDbLine
 10
121.125000
 20
90.003125
 30
0.0
 11
117.600000
 21
91.000000
 31
0.0
  0
LINE
  5
11c
100
AcDbEntity
  8
0
 62
7
100
AcDbLine
 10
117.600000
 20
91.000000
 30
0.0
 11
114.075000
 21
91.471875
 31
0.0
  0
LINE
  5
11d
100
AcDbEntity
  8
0
 62
7
100
AcDbLine
 10
114.075000
 20
91.471875
 30
0.0
 11
111.000000
 21
91.325000
 31
0.0
  0
LINE
  5
11e
100
AcDbEntity
  8
0
 62
7
100
AcDbLine
 10
111.000000
 20
91.325000
 30
0.0
 11
108.825000
 21
90.465625
 31
0.0
  0
LINE
  5
11f
100
AcDbEntity
  8
0
 62
7
100
AcDbLine
 10
108.825000
 20
90.465625
 30
0.0
 11
108.000000
 21
88.800000
 31
0.0
  0
LINE
  5
120
100
AcDbEntity
  8
0
 62
7
100
AcDbLine
 10
108.000000
 20
88.800000
 30
0.0
 11
108.000000
 21
87.500000
 31
0.0
  0
LINE
  5
121
100
AcDbEntity
  8
0
 62
7
100
AcDbLine
 10
108.000000
 20
87.500000
 30
0.0
 11
108.000000
 21
86.200000
 31
0.0
  0
LINE
  5
122
100
AcDbEntity
  8
0
 62
7
100
AcDbLine
 10
108.000000
 20
86.200000
 30
0.0
 11
108.000000
 21
84.900000
 31
0.0
  0
LINE
  5
123
100
AcDbEntity
  8
0
 62
7
100
AcDbLine
 10
108.000000
 20
84.900000
 30
0.0
 11
108.000000
 21
83.600000
 31
0.0
  0
LINE
  5
124
100
AcDbEntity
  8
0
 62
7
100
AcDbLine
 10
108.000000
 20
83.600000
 30
0.0
 11
108.000000
 21
82.300000
 31
0.0
  0
LINE
  5
125
100
AcDbEntity
  8
0
 62
7
100
AcDbLine
 10
108.000000
 20
82.300000
 30
0.0
 11
108.000000
 21
81.000000
 31
0.0
  0
LINE
  5
126
100
AcDbEntity
  8
0
 62
7
100
AcDbLine
 10
108.000000
 20
81.000000
 30
0.0
 11
108.000000
 21
79.700000
 31
0.0
  0
LINE
  5
127
100
AcDbEntity
  8
0
 62
7
100
AcDbLine
 10
108.000000
 20
79.700000
 30
0.0
 11
108.000000
 21
78.400000
 31
0.0
  0
LINE
  5
128
100
AcDbEntity
  8
0
 62
7
100
AcDbLine
 10
108.000000
 20
78.400000
 30
0.0
 11
108.000000
 21
80.700000
 31
0.0
  0
LINE
  5
129
100
AcDbEntity
  8
0
 62
7
100
AcDbLine
 10
108.000000
 20
80.700000
 30
0.0
 11
108.000000
 21
83.000000
 31
0.0
  0
LINE
  5
12a
100
AcDbEntity
  8
0
 62
7
100
AcDbLine
 10
108.000000
 20
83.000000
 30
0.0
 11
108.000000
 21
85.300000
 31
0.0
  0
LINE
  5
12b
100
AcDbEntity
  8
0
 62
7
100
AcDbLine
 10
108.000000
 20
85.300000
 30
0.0
 11
108.000000
 21
87.600000
 31
0.0
  0
LINE
  5
12c
100
AcDbEntity
  8
0
 62
7
100
AcDbLine
 10
108.000000
 20
87.600000
 30
0.0
 11
108.000000
 21
89.900000
 31
0.0
  0
LINE
  5
12d
100
AcDbEntity
  8
0
 62
7
100
AcDbLine
 10
108.000000
 20
89.900000
 30
0.0
 11
108.000000
 21
92.200000
 31
0.0
  0
LINE
  5
12e
100
AcDbEntity
  8
0
 62
7
100
AcDbLine
 10
108.000000
 20
92.200000
 30
0.0
 11
108.000000
 21
94.500000
 31
0.0
  0
LINE
  5
12f
100
AcDbEntity
  8
0
 62
7
100
AcDbLine
 10
108.000000
 20
94.500000
 30
0.0
 11
108.000000
 21
96.800000
 31
0.0
  0
LINE
  5
130
100
AcDbEntity
  8
0
 62
7
100
AcDbLine
 10
108.000000
 20
96.800000
 30
0.0
 11
107.209376
 21
98.210938
 31
0.0
  0
LINE
  5
131
100
AcDbEntity
  8
0
 62
7
100
AcDbLine
 10
107.209376
 20
98.210938
 30
0.0
 11
105.125000
 21
99.387500
 31
0.0
  0
LINE
  5
132
100
AcDbEntity
  8
0
 62
7
100
AcDbLine
 10
105.125000
 20
99.387500
 30
0.0
 11
102.178128
 21
100.245313
 31
0.0
  0
LINE
  5
133
100
AcDbEntity
  8
0
 62
7
100
AcDbLine
 10
102.178128
 20
100.245313
 30
0.0
 11
98.800000
 21
100.700000
 31
0.0
  0
LINE
  5
134
100
AcDbEntity
  8
0
 62
7
100
AcDbLine
 10
98.800000
 20
100.700000
 30
0.0
 11
95.421872
 21
100.667184
 31
0.0
  0
LINE
  5
135
100
AcDbEntity
  8
0
 62
7
100
AcDbLine
 10
95.421872
 20
100.667184
 30
0.0
 11
92.475000
 21
100.062497
 31
0.0
  0
LINE
  5
136
100
AcDbEntity
  8
0
 62
7
100
AcDbLine
 10
92.475000
 20
100.062497
 30
0.0
 11
90.390624
 21
98.801559
 31
0.0
  0
LINE
  5
137
100
AcDbEntity
  8
0
 62
7
100
AcDbLine
 10
90.390624
 20
98.801559
 30
0.0
 11
89.600000
 21
96.800000
 31
0.0
  0
LINE
  5
138
100
AcDbEntity
  8
0
 62
7
100
AcDbLine
 10
89.600000
 20
96.800000
 30
0.0
 11
89.600000
 21
95.100000
 31
0.0
  0
LINE
  5
139
100
AcDbEntity
  8
0
 62
7
100
AcDbLine
 10
89.600000
 20
95.100000
 30
0.0
 11
89.600000
 21
93.400000
 31
0.0
  0
LINE
  5
13a
100
AcDbEntity
  8
0
 62
7
100
AcDbLine
 10
89.600000
 20
93.400000
 30
0.0
 11
89.600000
 21
91.700000
 31
0.0
  0
LINE
  5
13b
100
AcDbEntity
  8
0
 62
7
100
AcDbLine
 10
89.600000
 20
91.700000
 30
0.0
 11
89.600000
 21
90.000000
 31
0.0
  0
LINE
  5
13c
100
AcDbEntity
  8
0
 62
7
100
AcDbLine
 10
89.600000
 20
90.000000
 30
0.0
 11
89.600000
 21
88.300000
 31
0.0
  0
LINE
  5
13d
100
AcDbEntity
  8
0
 62
7
100
AcDbLine
 10
89.600000
 20
88.300000
 30
0.0
 11
89.600000
 21
86.600000
 31
0.0
  0
LINE
  5
13e
100
AcDbEntity
  8
0
 62
7
100
AcDbLine
 10
89.600000
 20
86.600000
 30
0.0
 11
89.600000
 21
84.900000
 31
0.0
  0
LINE
  5
13f
100
AcDbEntity
  8
0
 62
7
100
AcDbLine
 10
89.600000
 20
84.900000
 30
0.0
 11
89.600000
 21
83.200000
 31
0.0
  0
LINE
  5
140
100
AcDbEntity
  8
0
 62
7
100
AcDbLine
 10
89.600000
 20
83.200000
 30
0.0
 11
89.600000
 21
91.000000
 31
0.0
  0
LINE
  5
141
100
AcDbEntity
  8
0
 62
7
100
AcDbLine
 10
89.600000
 20
91.000000
 30
0.0
 11
89.600000
 21
98.800000
 31
0.0
  0
LINE
  5
142
100
AcDbEntity
  8
0
 62
7
100
AcDbLine
 10
89.600000
 20
98.800000
 30
0.0
 11
89.600000
 21
106.600000
 31
0.0
  0
LINE
  5
143
100
AcDbEntity
  8
0
 62
7
100
AcDbLine
 10
89.600000
 20
106.600000
 30
0.0
 11
89.600000
 21
114.400000
 31
0.0
  0
LINE
  5
144
100
AcDbEntity
  8
0
 62
7
100
AcDbLine
 10
89.600000
 20
114.400000
 30
0.0
 11
89.600000
 21
122.200000
 31
0.0
  0
LINE
  5
145
100
AcDbEntity
  8
0
 62
7
100
AcDbLine
 10
89.600000
 20
122.200000
 30
0.0
 11
89.600000
 21
130.000000
 31
0.0
  0
LINE
  5
146
100
AcDbEntity
  8
0
 62
7
100
AcDbLine
 10
89.600000
 20
130.000000
 30
0.0
 11
89.600000
 21
137.800000
 31
0.0
  0
LINE
  5
147
100
AcDbEntity
  8
0
 62
7
100
AcDbLine
 10
89.600000
 20
137.800000
 30
0.0
 11
89.600000
 21
145.600000
 31
0.0
  0
LINE
  5
148
100
AcDbEntity
  8
0
 62
7
100
AcDbLine
 10
89.600000
 20
145.600000
 30
0.0
 11
88.085936
 21
148.257813
 31
0.0
  0
LINE
  5
149
100
AcDbEntity
  8
0
 62
7
100
AcDbLine
 10
88.085936
 20
148.257813
 30
0.0
 11
85.587504
 21
150.212500
 31
0.0
  0
LINE
  5
14a
100
AcDbEntity
  8
0
 62
7
100
AcDbLine
 10
85.587504
 20
150.212500
 30
0.0
 11
82.470312
 21
151.435938
 31
0.0
  0
LINE
  5
14b
100
AcDbEntity
  8
0
 62
7
100
AcDbLine
 10
82.470312
 20
151.435938
 30
0.0
 11
79.100000
 21
151.900000
 31
0.0
  0
LINE
  5
14c
100
AcDbEntity
  8
0
 62
7
100
AcDbLine
 10
79.100000
 20
151.900000
 30
0.0
 11
75.842187
 21
151.576562
 31
0.0
  0
LINE
  5
14d
100
AcDbEntity
  8
0
 62
7
100
AcDbLine
 10
75.842187
 20
151.576562
 30
0.0
 11
73.062500
 21
150.437500
 31
0.0
  0
LINE
  5
14e
100
AcDbEntity
  8
0
 62
7
100
AcDbLine
 10
73.062500
 20
150.437500
 30
0.0
 11
71.126562
 21
148.454687
 31
0.0
  0
LINE
  5
14f
100
AcDbEntity
  8
0
 62
7
100
AcDbLine
 10
71.126562
 20
148.454687
 30
0.0
 11
70.400000
 21
145.600000
 31
0.0
  0
LINE
  5
150
100
AcDbEntity
  8
0
 62
7
100
AcDbLine
 10
70.400000
 20
145.600000
 30
0.0
 11
70.400000
 21
137.700000
 31
0.0
  0
LINE
  5
151
100
AcDbEntity
  8
0
 62
7
100
AcDbLine
 10
70.400000
 20
137.700000
 30
0.0
 11
70.400000
 21
129.800000
 31
0.0
  0
LINE
  5
152
100
AcDbEntity
  8
0
 62
7
100
AcDbLine
 10
70.400000
 20
129.800000
 30
0.0
 11
70.400000
 21
121.900000
 31
0.0
  0
LINE
  5
153
100
AcDbEntity
  8
0
 62
7
100
AcDbLine
 10
70.400000
 20
121.900000
 30
0.0
 11
70.400000
 21
114.000000
 31
0.0
  0
LINE
  5
154
100
AcDbEntity
  8
0
 62
7
100
AcDbLine
 10
70.400000
 20
114.000000
 30
0.0
 11
70.400000
 21
106.100000
 31
0.0
  0
LINE
  5
155
100
AcDbEntity
  8
0
 62
7
100
AcDbLine
 10
70.400000
 20
106.100000
 30
0.0
 11
70.400000
 21
98.200000
 31
0.0
  0
LINE
  5
156
100
AcDbEntity
  8
0
 62
7
100
AcDbLine
 10
70.400000
 20
98.200000
 30
0.0
 11
70.400000
 21
90.300000
 31
0.0
  0
LINE
  5
157
100
AcDbEntity
  8
0
 62
7
100
AcDbLine
 10
70.400000
 20
90.300000
 30
0.0
 11
70.400000
 21
82.400000
 31
0.0
  0
LINE
  5
158
100
AcDbEntity
  8
0
 62
7
100
AcDbLine
 10
70.400000
 20
82.400000
 30
0.0
 11
70.400000
 21
84.100000
 31
0.0
  0
LINE
  5
159
100
AcDbEntity
  8
0
 62
7
100
AcDbLine
 10
70.400000
 20
84.100000
 30
0.0
 11
70.400000
 21
85.800000
 31
0.0
  0
LINE
  5
15a
100
AcDbEntity
  8
0
 62
7
100
AcDbLine
 10
70.400000
 20
85.800000
 30
0.0
 11
70.400000
 21
87.500000
 31
0.0
  0
LINE
  5
15b
100
AcDbEntity
  8
0
 62
7
100
AcDbLine
 10
70.400000
 20
87.500000
 30
0.0
 11
70.400000
 21
89.200000
 31
0.0
  0
LINE
  5
15c
100
AcDbEntity
  8
0
 62
7
100
AcDbLine
 10
70.400000
 20
89.200000
 30
0.0
 11
70.400000
 21
90.900000
 31
0.0
  0
LINE
  5
15d
100
AcDbEntity
  8
0
 62
7
100
AcDbLine
 10
70.400000
 20
90.900000
 30
0.0
 11
70.400000
 21
92.600000
 31
0.0
  0
LINE
  5
15e
100
AcDbEntity
  8
0
 62
7
100
AcDbLine
 10
70.400000
 20
92.600000
 30
0.0
 11
70.400000
 21
94.300000
 31
0.0
  0
LINE
  5
15f
100
AcDbEntity
  8
0
 62
7
100
AcDbLine
 10
70.400000
 20
94.300000
 30
0.0
 11
70.400000
 21
96.000000
 31
0.0
  0
LINE
  5
160
100
AcDbEntity
  8
0
 62
7
100
AcDbLine
 10
70.400000
 20
96.000000
 30
0.0
 11
69.410938
 21
97.110938
 31
0.0
  0
LINE
  5
161
100
AcDbEntity
  8
0
 62
7
100
AcDbLine
 10
69.410938
 20
97.110938
 30
0.0
 11
67.287500
 21
97.987500
 31
0.0
  0
LINE
  5
162
100
AcDbEntity
  8
0
 62
7
100
AcDbLine
 10
67.287500
 20
97.987500
 30
0.0
 11
64.395313
 21
98.545313
 31
0.0
  0
LINE
  5
163
100
AcDbEntity
  8
0
 62
7
100
AcDbLine
 10
64.395313
 20
98.545313
 30
0.0
 11
61.100000
 21
98.700000
 31
0.0
  0
LINE
  5
164
100
AcDbEntity
  8
0
 62
7
100
AcDbLine
 10
61.100000
 20
98.700000
 30
0.0
 11
57.767187
 21
98.367187
 31
0.0
  0
LINE
  5
165
100
AcDbEntity
  8
0
 62
7
100
AcDbLine
 10
57.767187
 20
98.367187
 30
0.0
 11
54.762500
 21
97.462500
 31
0.0
  0
LINE
  5
166
100
AcDbEntity
  8
0
 62
7
100
AcDbLine
 10
54.762500
 20
97.462500
 30
0.0
 11
52.451562
 21
95.901562
 31
0.0
  0
LINE
  5
167
100
AcDbEntity
  8
0
 62
7
100
AcDbLine
 10
52.451562
 20
95.901562
 30
0.0
 11
51.200000
 21
93.600000
 31
0.0
  0
LINE
  5
168
100
AcDbEntity
  8
0
 62
7
100
AcDbLine
 10
51.200000
 20
93.600000
 30
0.0
 11
51.200000
 21
89.100000
 31
0.0
  0
LINE
  5
169
100
AcDbEntity
  8
0
 62
7
100
AcDbLine
 10
51.200000
 20
89.100000
 30
0.0
 11
51.200000
 21
84.600000
 31
0.0
  0
LINE
  5
16a
100
AcDbEntity
  8
0
 62
7
100
AcDbLine
 10
51.200000
 20
84.600000
 30
0.0
 11
51.200000
 21
80.100000
 31
0.0
  0
LINE
  5
16b
100
AcDbEntity
  8
0
 62
7
100
AcDbLine
 10
51.200000
 20
80.100000
 30
0.0
 11
51.200000
 21
75.600000
 31
0.0
  0
LINE
  5
16c
100
AcDbEntity
  8
0
 62
7
100
AcDbLine
 10
51.200000
 20
75.600000
 30
0.0
 11
51.200000
 21
71.100000
 31
0.0
  0
LINE
  5
16d
100
AcDbEntity
  8
0
 62
7
100
AcDbLine
 10
51.200000
 20
71.100000
 30
0.0
 11
51.200000
 21
66.600000
 31
0.0
  0
LINE
  5
16e
100
AcDbEntity
  8
0
 62
7
100
AcDbLine
 10
51.200000
 20
66.600000
 30
0.0
 11
51.200000
 21
62.100000
 31
0.0
  0
LINE
  5
16f
100
AcDbEntity
  8
0
 62
7
100
AcDbLine
 10
51.200000
 20
62.100000
 30
0.0
 11
51.200000
 21
57.600000
 31
0.0
  0
LINE
  5
170
100
AcDbEntity
  8
0
 62
7
100
AcDbLine
 10
51.200000
 20
57.600000
 30
0.0
 11
51.200000
 21
60.200000
 31
0.0
  0
LINE
  5
171
100
AcDbEntity
  8
0
 62
7
100
AcDbLine
 10
51.200000
 20
60.200000
 30
0.0
 11
51.200000
 21
62.800000
 31
0.0
  0
LINE
  5
172
100
AcDbEntity
  8
0
 62
7
100
AcDbLine
 10
51.200000
 20
62.800000
 30
0.0
 11
51.200000
 21
65.400000
 31
0.0
  0
LINE
  5
173
100
AcDbEntity
  8
0
 62
7
100
AcDbLine
 10
51.200000
 20
65.400000
 30
0.0
 11
51.200000
 21
68.000000
 31
0.0
  0
LINE
  5
174
100
AcDbEntity
  8
0
 62
7
100
AcDbLine
 10
51.200000
 20
68.000000
 30
0.0
 11
51.200000
 21
70.600000
 31
0.0
  0
LINE
  5
175
100
AcDbEntity
  8
0
 62
7
100
AcDbLine
 10
51.200000
 20
70.600000
 30
0.0
 11
51.200000
 21
73.200000
 31
0.0
  0
LINE
  5
176
100
AcDbEntity
  8
0
 62
7
100
AcDbLine
 10
51.200000
 20
73.200000
 30
0.0
 11
51.200000
 21
75.800000
 31
0.0
  0
LINE
  5
177
100
AcDbEntity
  8
0
 62
7
100
AcDbLine
 10
51.200000
 20
75.800000
 30
0.0
 11
51.200000
 21
78.400000
 31
0.0
  0
LINE
  5
178
100
AcDbEntity
  8
0
 62
7
100
AcDbLine
 10
51.200000
 20
78.400000
 30
0.0
 11
50.442187
 21
80.007813
 31
0.0
  0
LINE
  5
179
100
AcDbEntity
  8
0
 62
7
100
AcDbLine
 10
50.442187
 20
80.007813
 30
0.0
 11
48.437500
 21
81.212500
 31
0.0
  0
LINE
  5
17a
100
AcDbEntity
  8
0
 62
7
100
AcDbLine
 10
48.437500
 20
81.212500
 30
0.0
 11
45.589062
 21
81.985938
 31
0.0
  0
LINE
  5
17b
100
AcDbEntity
  8
0
 62
7
100
AcDbLine
 10
45.589062
 20
81.985938
 30
0.0
 11
42.300000
 21
82.300000
 31
0.0
  0
LINE
  5
17c
100
AcDbEntity
  8
0
 62
7
100
AcDbLine
 10
42.300000
 20
82.300000
 30
0.0
 11
38.973438
 21
82.126562
 31
0.0
  0
LINE
  5
17d
100
AcDbEntity
  8
0
 62
7
100
AcDbLine
 10
38.973438
 20
82.126562
 30
0.0
 11
36.012500
 21
81.437500
 31
0.0
  0
LINE
  5
17e
100
AcDbEntity
  8
0
 62
7
100
AcDbLine
 10
36.012500
 20
81.437500
 30
0.0
 11
33.820313
 21
80.204687
 31
0.0
  0
LINE
  5
17f
100
AcDbEntity
  8
0
 62
7
100
AcDbLine
 10
33.820313
 20
80.204687
 30
0.0
 11
32.800000
 21
78.400000
 31
0.0
  0
LINE
  5
180
100
AcDbEntity
  8
0
 62
7
100
AcDbLine
 10
32.800000
 20
78.400000
 30
0.0
 11
32.800000
 21
75.700000
 31
0.0
  0
LINE
  5
181
100
AcDbEntity
  8
0
 62
7
100
AcDbLine
 10
32.800000
 20
75.700000
 30
0.0
 11
32.800000
 21
73.000000
 31
0.0
  0
LINE
  5
182
100
AcDbEntity
  8
0
 62
7
100
AcDbLine
 10
32.800000
 20
73.000000
 30
0.0
 11
32.800000
 21
70.300000
 31
0.0
  0
LINE
  5
183
100
AcDbEntity
  8
0
 62
7
100
AcDbLine
 10
32.800000
 20
70.300000
 30
0.0
 11
32.800000
 21
67.600000
 31
0.0
  0
LINE
  5
184
100
AcDbEntity
  8
0
 62
7
100
AcDbLine
 10
32.800000
 20
67.600000
 30
0.0
 11
32.800000
 21
64.900000
 31
0.0
  0
LINE
  5
185
100
AcDbEntity
  8
0
 62
7
100
AcDbLine
 10
32.800000
 20
64.900000
 30
0.0
 11
32.800000
 21
62.200000
 31
0.0
  0
LINE
  5
186
100
AcDbEntity
  8
0
 62
7
100
AcDbLine
 10
32.800000
 20
62.200000
 30
0.0
 11
32.800000
 21
59.500000
 31
0.0
  0
LINE
  5
187
100
AcDbEntity
  8
0
 62
7
100
AcDbLine
 10
32.800000
 20
59.500000
 30
0.0
 11
32.800000
 21
56.800000
 31
0.0
  0
LINE
  5
188
100
AcDbEntity
  8
0
 62
7
100
AcDbLine
 10
32.800000
 20
56.800000
 30
0.0
 11
35.900000
 21
50.500000
 31
0.0
  0
LINE
  5
189
100
AcDbEntity
  8
0
 62
7
100
AcDbLine
 10
35.900000
 20
50.500000
 30
0.0
 11
39.000000
 21
44.200000
 31
0.0
  0
LINE
  5
18a
100
AcDbEntity
  8
0
 62
7
100
AcDbLine
 10
39.000000
 20
44.200000
 30
0.0
 11
42.100000
 21
37.900000
 31
0.0
  0
LINE
  5
18b
100
AcDbEntity
  8
0
 62
7
100
AcDbLine
 10
42.100000
 20
37.900000
 30
0.0
 11
45.200000
 21
31.600000
 31
0.0
  0
LINE
  5
18c
100
AcDbEntity
  8
0
 62
7
100
AcDbLine
 10
45.200000
 20
31.600000
 30
0.0
 11
48.300000
 21
25.300000
 31
0.0
  0
LINE
  5
18d
100
AcDbEntity
  8
0
 62
7
100
AcDbLine
 10
48.300000
 20
25.300000
 30
0.0
 11
51.400000
 21
19.000000
 31
0.0
  0
LINE
  5
18e
100
AcDbEntity
  8
0
 62
7
100
AcDbLine
 10
51.400000
 20
19.000000
 30
0.0
 11
54.500000
 21
12.700000
 31
0.0
  0
LINE
  5
18f
100
AcDbEntity
  8
0
 62
7
100
AcDbLine
 10
54.500000
 20
12.700000
 30
0.0
 11
57.600000
 21
6.400000
 31
0.0
  0
ENDSEC
  0
SECTION
  2
OBJECTS
  0
DICTIONARY
  5
C
330
0
100
AcDbDictionary
  3
ACAD_GROUP
350
D
  3
ACAD_MLINESTYLE
350
17
  0
DICTIONARY
  5
D
330
C
100
AcDbDictionary
  0
DICTIONARY
  5
1A
330
C
100
AcDbDictionary
  0
DICTIONARY
  5
17
330
C
100
AcDbDictionary
  3
STANDARD
350
18
  0
DICTIONARY
  5
19
330
C
100
AcDbDictionary
  0
ENDSEC
  0
EOF
