  0
SECTION
  2
HEADER
  9
$ACADVER
  1
AC1014
  9
$HANDSEED
  5
FFFF
  9
$MEASUREMENT
 70
     1
  0
ENDSEC
  0
SECTION
  2
TABLES
  0
TABLE
  2
VPORT
  5
8
330
0
100
AcDbSymbolTable
 70
     4
  0
VPORT
  5
2E
330
8
100
AcDbSymbolTableRecord
100
AcDbViewportTableRecord
  2
*ACTIVE
 70
     0
 10
0.0
 20
0.0
 11
1.0
 21
1.0
 12
210.0
 22
148.5
 13
0.0
 23
0.0
 14
10.0
 24
10.0
 15
10.0
 25
10.0
 16
0.0
 26
0.0
 36
1.0
 17
0.0
 27
0.0
 37
0.0
 40
341.0
 41
1.24
 42
50.0
 43
0.0
 44
0.0
 50
0.0
 51
0.0
 71
     0
 72
   100
 73
     1
 74
     3
 75
     0
 76
     0
 77
     0
 78
     0
  0
ENDTAB
  0
TABLE
  2
LTYPE
  5
5
330
0
100
AcDbSymbolTable
 70
     1
  0
LTYPE
  5
14
330
5
100
AcDbSymbolTableRecord
100
AcDbLinetypeTableRecord
  2
BYBLOCK
 70
     0
  3

 72
    65
 73
     0
 40
0.0
  0
LTYPE
  5
15
330
5
100
AcDbSymbolTableRecord
100
AcDbLinetypeTableRecord
  2
BYLAYER
 70
     0
  3

 72
    65
 73
     0
 40
0.0
  0
LTYPE
  5
16
330
5
100
AcDbSymbolTableRecord
100
AcDbLinetypeTableRecord
  2
CONTINUOUS
 70
     0
  3
Solid line
 72
    65
 73
     0
 40
0.0
  0
ENDTAB
  0
TABLE
  2
LAYER
  5
2
100
AcDbSymbolTable
 70
1
  0
LAYER
  5
50
100
AcDbSymbolTableRecord
100
AcDbLayerTableRecord
  2
0
 70
0
  6
CONTINUOUS
  0
ENDTAB
  0
TABLE
  2
STYLE
  5
3
330
0
100
AcDbSymbolTable
 70
     1
  0
STYLE
  5
11
330
3
100
AcDbSymbolTableRecord
100
AcDbTextStyleTableRecord
  2
STANDARD
 70
     0
 40
0.0
 41
1.0
 50
0.0
 71
     0
 42
2.5
  3
txt
  4

  0
ENDTAB
  0
TABLE
  2
VIEW
  5
6
330
0
100
AcDbSymbolTable
 70
     0
  0
ENDTAB
  0
TABLE
  2
UCS
  5
7
330
0
100
AcDbSymbolTable
 70
     0
  0
ENDTAB
  0
TABLE
  2
APPID
  5
9
330
0
100
AcDbSymbolTable
 70
     2
  0
APPID
  5
12
330
9
100
AcDbSymbolTableRecord
100
AcDbRegAppTableRecord
  2
ACAD
 70
     0
  0
ENDTAB
  0
TABLE
  2
DIMSTYLE
  5
A
330
0
100
AcDbSymbolTable
 70
     1
  0
DIMSTYLE
105
27
330
A
100
AcDbSymbolTableRecord
100
AcDbDimStyleTableRecord
  2
ISO-25
 70
     0
  3

  4

  5

  6

  7

 40
1.0
 41
2.5
 42
0.625
 43
3.75
 44
1.25
 45
0.0
 46
0.0
 47
0.0
 48
0.0
140
2.5
141
2.5
142
0.0
143
0.03937007874016
144
1.0
145
0.0
146
1.0
147
0.625
 71
     0
 72
     0
 73
     0
 74
     0
 75
     0
 76
     0
 77
     1
 78
     8
170
     0
171
     3
172
     1
173
     0
174
     0
175
     0
176
     0
177
     0
178
     0
270
     2
271
     2
272
     2
273
     2
274
     3
340
11
275
     0
280
     0
281
     0
282
     0
283
     0
284
     8
285
     0
286
     0
287
     3
288
     0
  0
ENDTAB
  0
TABLE
  2
BLOCK_RECORD
  5
1
330
0
100
AcDbSymbolTable
 70
     1
  0
BLOCK_RECORD
  5
1F
330
1
100
AcDbSymbolTableRecord
100
AcDbBlockTableRecord
  2
*MODEL_SPACE
  0
BLOCK_RECORD
  5
1B
330
1
100
AcDbSymbolTableRecord
100
AcDbBlockTableRecord
  2
*PAPER_SPACE
  0
ENDTAB
  0
ENDSEC
  0
SECTION
  2
BLOCKS
  0
BLOCK
  5
20
330
1F
100
AcDbEntity
  8
0
100
AcDbBlockBegin
  2
*MODEL_SPACE
 70
     0
 10
0.0
 20
0.0
 30
0.0
  3
*MODEL_SPACE
  1

  0
ENDBLK
  5
21
330
1F
100
AcDbEntity
  8
0
100
AcDbBlockEnd
  0
BLOCK
  5
1C
330
1B
100
AcDbEntity
 67
     1
  8
0
100
AcDbBlockBegin
  2
*PAPER_SPACE
  1

  0
ENDBLK
  5
1D
330
1B
100
AcDbEntity
 67
     1
  8
0
100
AcDbBlockEnd
  0
ENDSEC
  0
SECTION
  2
ENTITIES
  0
LWPOLYLINE
  5
100
100
AcDbEntity
  8
0
 62
7
100
AcDbPolyline
 90
145
 70
0
 10
27.600000
 20
2.795392
 30
0.0
 10
34.700000
 20
2.795392
 30
0.0
 10
41.800000
 20
2.795392
 30
0.0
 10
48.900000
 20
2.795392
 30
0.0
 10
56.000000
 20
2.795392
 30
0.0
 10
63.100000
 20
2.795392
 30
0.0
 10
70.200000
 20
2.795392
 30
0.0
 10
77.300000
 20
2.795392
 30
0.0
 10
84.400000
 20
2.795392
 30
0.0
 10
86.000000
 20
7.295392
 30
0.0
 10
87.600000
 20
11.795392
 30
0.0
 10
89.200000
 20
16.295392
 30
0.0
 10
90.800000
 20
20.795392
 30
0.0
 10
92.400000
 20
25.295392
 30
0.0
 10
94.000000
 20
29.795392
 30
0.0
 10
95.600000
 20
34.295392
 30
0.0
 10
97.200000
 20
38.795392
 30
0.0
 10
97.200000
 20
44.095392
 30
0.0
 10
97.200000
 20
49.395392
 30
0.0
 10
97.200000
 20
54.695392
 30
0.0
 10
97.200000
 20
59.995392
 30
0.0
 10
97.200000
 20
65.295392
 30
0.0
 10
97.200000
 20
70.595392
 30
0.0
 10
97.200000
 20
75.895389
 30
0.0
 10
97.200000
 20
81.195388
 30
0.0
 10
96.643136
 20
83.259474
 30
0.0
 10
95.158600
 20
85.172253
 30
0.0
 10
93.025504
 20
86.814510
 30
0.0
 10
90.522936
 20
88.067028
 30
0.0
 10
87.930000
 20
88.810591
 30
0.0
 10
85.525800
 20
88.925983
 30
0.0
 10
83.589432
 20
88.293987
 30
0.0
 10
82.400000
 20
86.795388
 30
0.0
 10
81.850000
 20
85.295388
 30
0.0
 10
81.300000
 20
83.795388
 30
0.0
 10
80.750000
 20
82.295388
 30
0.0
 10
80.200000
 20
80.795388
 30
0.0
 10
79.650000
 20
79.295388
 30
0.0
 10
79.100000
 20
77.795388
 30
0.0
 10
78.550000
 20
76.295388
 30
0.0
 10
78.000000
 20
74.795388
 30
0.0
 10
78.125000
 20
76.870388
 30
0.0
 10
78.250000
 20
78.945388
 30
0.0
 10
78.375000
 20
81.020388
 30
0.0
 10
78.500000
 20
83.095388
 30
0.0
 10
78.625000
 20
85.170388
 30
0.0
 10
78.750000
 20
87.245388
 30
0.0
 10
78.875000
 20
89.320388
 30
0.0
 10
79.000000
 20
91.395388
 30
0.0
 10
78.478510
 20
93.402656
 30
0.0
 10
76.870414
 20
94.992312
 30
0.0
 10
74.507802
 20
96.114981
 30
0.0
 10
71.722758
 20
96.721288
 30
0.0
 10
68.847370
 20
96.761856
 30
0.0
 10
66.213723
 20
96.187313
 30
0.0
 10
64.153904
 20
94.948282
 30
0.0
 10
63.000000
 20
92.995386
 30
0.0
 10
62.575000
 20
91.320386
 30
0.0
 10
62.150000
 20
89.645386
 30
0.0
 10
61.725000
 20
87.970386
 30
0.0
 10
61.300000
 20
86.295386
 30
0.0
 10
60.875000
 20
84.620386
 30
0.0
 10
60.450000
 20
82.945386
 30
0.0
 10
60.025000
 20
81.270386
 30
0.0
 10
59.600000
 20
79.595386
 30
0.0
 10
59.550000
 20
87.570386
 30
0.0
 10
59.500000
 20
95.545386
 30
0.0
 10
59.450000
 20
103.520386
 30
0.0
 10
59.400000
 20
111.495386
 30
0.0
 10
59.350000
 20
119.470386
 30
0.0
 10
59.300000
 20
127.445386
 30
0.0
 10
59.250000
 20
135.420386
 30
0.0
 10
59.200000
 20
143.395388
 30
0.0
 10
57.703125
 20
145.993044
 30
0.0
 10
55.250000
 20
147.789138
 30
0.0
 10
52.196875
 20
148.788357
 30
0.0
 10
48.900000
 20
148.995388
 30
0.0
 10
45.684654
 20
148.413365
 30
0.0
 10
42.917412
 20
147.047494
 30
0.0
 10
41.016463
 20
144.905570
 30
0.0
 10
40.400000
 20
141.995388
 30
0.0
 10
40.797748
 20
134.068871
 30
0.0
 10
41.195495
 20
126.142355
 30
0.0
 10
41.593242
 20
118.215838
 30
0.0
 10
41.990990
 20
110.289322
 30
0.0
 10
42.388738
 20
102.362806
 30
0.0
 10
42.786486
 20
94.436289
 30
0.0
 10
43.184234
 20
86.509773
 30
0.0
 10
43.581981
 20
78.583256
 30
0.0
 10
42.680420
 20
80.318611
 30
0.0
 10
41.778858
 20
82.053966
 30
0.0
 10
40.877297
 20
83.789322
 30
0.0
 10
39.975736
 20
85.524677
 30
0.0
 10
39.074175
 20
87.260033
 30
0.0
 10
38.172614
 20
88.995388
 30
0.0
 10
37.271052
 20
90.730743
 30
0.0
 10
36.369491
 20
92.466098
 30
0.0
 10
35.429873
 20
92.950874
 30
0.0
 10
33.788734
 20
93.452449
 30
0.0
 10
31.676255
 20
93.834766
 30
0.0
 10
29.322614
 20
93.961765
 30
0.0
 10
26.957988
 20
93.697386
 30
0.0
 10
24.812558
 20
92.905570
 30
0.0
 10
23.116502
 20
91.450257
 30
0.0
 10
22.100000
 20
89.195388
 30
0.0
 10
21.987500
 20
84.795389
 30
0.0
 10
21.875000
 20
80.395389
 30
0.0
 10
21.762500
 20
75.995390
 30
0.0
 10
21.650000
 20
71.595392
 30
0.0
 10
21.537500
 20
67.195392
 30
0.0
 10
21.425000
 20
62.795392
 30
0.0
 10
21.312500
 20
58.395392
 30
0.0
 10
21.200000
 20
53.995392
 30
0.0
 10
20.500000
 20
56.620392
 30
0.0
 10
19.800000
 20
59.245392
 30
0.0
 10
19.100000
 20
61.870392
 30
0.0
 10
18.400000
 20
64.495392
 30
0.0
 10
17.700000
 20
67.120392
 30
0.0
 10
17.000000
 20
69.745392
 30
0.0
 10
16.300000
 20
72.370389
 30
0.0
 10
15.600000
 20
74.995388
 30
0.0
 10
14.727721
 20
76.548074
 30
0.0
 10
13.190733
 20
77.708264
 30
0.0
 10
11.217430
 20
78.446821
 30
0.0
 10
9.036207
 20
78.734611
 30
0.0
 10
6.875458
 20
78.542498
 30
0.0
 10
4.963578
 20
77.841346
 30
0.0
 10
3.528960
 20
76.602022
 30
0.0
 10
2.800000
 20
74.795388
 30
0.0
 10
2.800000
 20
72.095389
 30
0.0
 10
2.800000
 20
69.395392
 30
0.0
 10
2.800000
 20
66.695392
 30
0.0
 10
2.800000
 20
63.995392
 30
0.0
 10
2.800000
 20
61.295392
 30
0.0
 10
2.800000
 20
58.595392
 30
0.0
 10
2.800000
 20
55.895392
 30
0.0
 10
2.800000
 20
53.195392
 30
0.0
 10
5.900000
 20
46.895392
 30
0.0
 10
9.000000
 20
40.595392
 30
0.0
 10
12.100000
 20
34.295392
 30
0.0
 10
15.200000
 20
27.995392
 30
0.0
 10
18.300000
 20
21.695392
 30
0.0
 10
21.400000
 20
15.395392
 30
0.0
 10
24.500000
 20
9.095392
 30
0.0
 10
27.600000
 20
2.795392
 30
0.0
  0
ENDSEC
  0
SECTION
  2
OBJECTS
  0
DICTIONARY
  5
C
330
0
100
AcDbDictionary
  3
ACAD_GROUP
350
D
  3
ACAD_MLINESTYLE
350
17
  0
DICTIONARY
  5
D
330
C
100
AcDbDictionary
  0
DICTIONARY
  5
1A
330
C
100
AcDbDictionary
  0
DICTIONARY
  5
17
330
C
100
AcDbDictionary
  3
STANDARD
350
18
  0
DICTIONARY
  5
19
330
C
100
AcDbDictionary
  0
ENDSEC
  0
EOF
